G04 EAGLE Gerber RS-274X export*
G75*
%MOMM*%
%FSLAX34Y34*%
%LPD*%
%INSilkscreen Bottom*%
%IPPOS*%
%AMOC8*
5,1,8,0,0,1.08239X$1,22.5*%
G01*
%ADD10C,0.127000*%
%ADD11C,0.101600*%
%ADD12C,0.050800*%
%ADD13C,0.152400*%
%ADD14R,0.609600X0.863600*%


D10*
X443520Y48110D02*
X23520Y48110D01*
X23520Y288110D01*
X443520Y288110D01*
X443520Y48110D01*
X53520Y88110D02*
X53520Y248110D01*
X53520Y88110D02*
X213520Y88110D01*
X213520Y248110D01*
X53520Y248110D01*
X33520Y268110D02*
X33523Y268355D01*
X33532Y268601D01*
X33547Y268846D01*
X33568Y269090D01*
X33595Y269334D01*
X33628Y269577D01*
X33667Y269820D01*
X33712Y270061D01*
X33763Y270301D01*
X33820Y270540D01*
X33882Y270777D01*
X33951Y271013D01*
X34025Y271247D01*
X34105Y271479D01*
X34190Y271709D01*
X34281Y271937D01*
X34378Y272162D01*
X34480Y272386D01*
X34588Y272606D01*
X34701Y272824D01*
X34819Y273039D01*
X34943Y273251D01*
X35071Y273460D01*
X35205Y273666D01*
X35344Y273868D01*
X35488Y274067D01*
X35637Y274262D01*
X35790Y274454D01*
X35948Y274642D01*
X36110Y274826D01*
X36278Y275005D01*
X36449Y275181D01*
X36625Y275352D01*
X36804Y275520D01*
X36988Y275682D01*
X37176Y275840D01*
X37368Y275993D01*
X37563Y276142D01*
X37762Y276286D01*
X37964Y276425D01*
X38170Y276559D01*
X38379Y276687D01*
X38591Y276811D01*
X38806Y276929D01*
X39024Y277042D01*
X39244Y277150D01*
X39468Y277252D01*
X39693Y277349D01*
X39921Y277440D01*
X40151Y277525D01*
X40383Y277605D01*
X40617Y277679D01*
X40853Y277748D01*
X41090Y277810D01*
X41329Y277867D01*
X41569Y277918D01*
X41810Y277963D01*
X42053Y278002D01*
X42296Y278035D01*
X42540Y278062D01*
X42784Y278083D01*
X43029Y278098D01*
X43275Y278107D01*
X43520Y278110D01*
X43765Y278107D01*
X44011Y278098D01*
X44256Y278083D01*
X44500Y278062D01*
X44744Y278035D01*
X44987Y278002D01*
X45230Y277963D01*
X45471Y277918D01*
X45711Y277867D01*
X45950Y277810D01*
X46187Y277748D01*
X46423Y277679D01*
X46657Y277605D01*
X46889Y277525D01*
X47119Y277440D01*
X47347Y277349D01*
X47572Y277252D01*
X47796Y277150D01*
X48016Y277042D01*
X48234Y276929D01*
X48449Y276811D01*
X48661Y276687D01*
X48870Y276559D01*
X49076Y276425D01*
X49278Y276286D01*
X49477Y276142D01*
X49672Y275993D01*
X49864Y275840D01*
X50052Y275682D01*
X50236Y275520D01*
X50415Y275352D01*
X50591Y275181D01*
X50762Y275005D01*
X50930Y274826D01*
X51092Y274642D01*
X51250Y274454D01*
X51403Y274262D01*
X51552Y274067D01*
X51696Y273868D01*
X51835Y273666D01*
X51969Y273460D01*
X52097Y273251D01*
X52221Y273039D01*
X52339Y272824D01*
X52452Y272606D01*
X52560Y272386D01*
X52662Y272162D01*
X52759Y271937D01*
X52850Y271709D01*
X52935Y271479D01*
X53015Y271247D01*
X53089Y271013D01*
X53158Y270777D01*
X53220Y270540D01*
X53277Y270301D01*
X53328Y270061D01*
X53373Y269820D01*
X53412Y269577D01*
X53445Y269334D01*
X53472Y269090D01*
X53493Y268846D01*
X53508Y268601D01*
X53517Y268355D01*
X53520Y268110D01*
X53517Y267865D01*
X53508Y267619D01*
X53493Y267374D01*
X53472Y267130D01*
X53445Y266886D01*
X53412Y266643D01*
X53373Y266400D01*
X53328Y266159D01*
X53277Y265919D01*
X53220Y265680D01*
X53158Y265443D01*
X53089Y265207D01*
X53015Y264973D01*
X52935Y264741D01*
X52850Y264511D01*
X52759Y264283D01*
X52662Y264058D01*
X52560Y263834D01*
X52452Y263614D01*
X52339Y263396D01*
X52221Y263181D01*
X52097Y262969D01*
X51969Y262760D01*
X51835Y262554D01*
X51696Y262352D01*
X51552Y262153D01*
X51403Y261958D01*
X51250Y261766D01*
X51092Y261578D01*
X50930Y261394D01*
X50762Y261215D01*
X50591Y261039D01*
X50415Y260868D01*
X50236Y260700D01*
X50052Y260538D01*
X49864Y260380D01*
X49672Y260227D01*
X49477Y260078D01*
X49278Y259934D01*
X49076Y259795D01*
X48870Y259661D01*
X48661Y259533D01*
X48449Y259409D01*
X48234Y259291D01*
X48016Y259178D01*
X47796Y259070D01*
X47572Y258968D01*
X47347Y258871D01*
X47119Y258780D01*
X46889Y258695D01*
X46657Y258615D01*
X46423Y258541D01*
X46187Y258472D01*
X45950Y258410D01*
X45711Y258353D01*
X45471Y258302D01*
X45230Y258257D01*
X44987Y258218D01*
X44744Y258185D01*
X44500Y258158D01*
X44256Y258137D01*
X44011Y258122D01*
X43765Y258113D01*
X43520Y258110D01*
X43275Y258113D01*
X43029Y258122D01*
X42784Y258137D01*
X42540Y258158D01*
X42296Y258185D01*
X42053Y258218D01*
X41810Y258257D01*
X41569Y258302D01*
X41329Y258353D01*
X41090Y258410D01*
X40853Y258472D01*
X40617Y258541D01*
X40383Y258615D01*
X40151Y258695D01*
X39921Y258780D01*
X39693Y258871D01*
X39468Y258968D01*
X39244Y259070D01*
X39024Y259178D01*
X38806Y259291D01*
X38591Y259409D01*
X38379Y259533D01*
X38170Y259661D01*
X37964Y259795D01*
X37762Y259934D01*
X37563Y260078D01*
X37368Y260227D01*
X37176Y260380D01*
X36988Y260538D01*
X36804Y260700D01*
X36625Y260868D01*
X36449Y261039D01*
X36278Y261215D01*
X36110Y261394D01*
X35948Y261578D01*
X35790Y261766D01*
X35637Y261958D01*
X35488Y262153D01*
X35344Y262352D01*
X35205Y262554D01*
X35071Y262760D01*
X34943Y262969D01*
X34819Y263181D01*
X34701Y263396D01*
X34588Y263614D01*
X34480Y263834D01*
X34378Y264058D01*
X34281Y264283D01*
X34190Y264511D01*
X34105Y264741D01*
X34025Y264973D01*
X33951Y265207D01*
X33882Y265443D01*
X33820Y265680D01*
X33763Y265919D01*
X33712Y266159D01*
X33667Y266400D01*
X33628Y266643D01*
X33595Y266886D01*
X33568Y267130D01*
X33547Y267374D01*
X33532Y267619D01*
X33523Y267865D01*
X33520Y268110D01*
X33520Y68110D02*
X33523Y68355D01*
X33532Y68601D01*
X33547Y68846D01*
X33568Y69090D01*
X33595Y69334D01*
X33628Y69577D01*
X33667Y69820D01*
X33712Y70061D01*
X33763Y70301D01*
X33820Y70540D01*
X33882Y70777D01*
X33951Y71013D01*
X34025Y71247D01*
X34105Y71479D01*
X34190Y71709D01*
X34281Y71937D01*
X34378Y72162D01*
X34480Y72386D01*
X34588Y72606D01*
X34701Y72824D01*
X34819Y73039D01*
X34943Y73251D01*
X35071Y73460D01*
X35205Y73666D01*
X35344Y73868D01*
X35488Y74067D01*
X35637Y74262D01*
X35790Y74454D01*
X35948Y74642D01*
X36110Y74826D01*
X36278Y75005D01*
X36449Y75181D01*
X36625Y75352D01*
X36804Y75520D01*
X36988Y75682D01*
X37176Y75840D01*
X37368Y75993D01*
X37563Y76142D01*
X37762Y76286D01*
X37964Y76425D01*
X38170Y76559D01*
X38379Y76687D01*
X38591Y76811D01*
X38806Y76929D01*
X39024Y77042D01*
X39244Y77150D01*
X39468Y77252D01*
X39693Y77349D01*
X39921Y77440D01*
X40151Y77525D01*
X40383Y77605D01*
X40617Y77679D01*
X40853Y77748D01*
X41090Y77810D01*
X41329Y77867D01*
X41569Y77918D01*
X41810Y77963D01*
X42053Y78002D01*
X42296Y78035D01*
X42540Y78062D01*
X42784Y78083D01*
X43029Y78098D01*
X43275Y78107D01*
X43520Y78110D01*
X43765Y78107D01*
X44011Y78098D01*
X44256Y78083D01*
X44500Y78062D01*
X44744Y78035D01*
X44987Y78002D01*
X45230Y77963D01*
X45471Y77918D01*
X45711Y77867D01*
X45950Y77810D01*
X46187Y77748D01*
X46423Y77679D01*
X46657Y77605D01*
X46889Y77525D01*
X47119Y77440D01*
X47347Y77349D01*
X47572Y77252D01*
X47796Y77150D01*
X48016Y77042D01*
X48234Y76929D01*
X48449Y76811D01*
X48661Y76687D01*
X48870Y76559D01*
X49076Y76425D01*
X49278Y76286D01*
X49477Y76142D01*
X49672Y75993D01*
X49864Y75840D01*
X50052Y75682D01*
X50236Y75520D01*
X50415Y75352D01*
X50591Y75181D01*
X50762Y75005D01*
X50930Y74826D01*
X51092Y74642D01*
X51250Y74454D01*
X51403Y74262D01*
X51552Y74067D01*
X51696Y73868D01*
X51835Y73666D01*
X51969Y73460D01*
X52097Y73251D01*
X52221Y73039D01*
X52339Y72824D01*
X52452Y72606D01*
X52560Y72386D01*
X52662Y72162D01*
X52759Y71937D01*
X52850Y71709D01*
X52935Y71479D01*
X53015Y71247D01*
X53089Y71013D01*
X53158Y70777D01*
X53220Y70540D01*
X53277Y70301D01*
X53328Y70061D01*
X53373Y69820D01*
X53412Y69577D01*
X53445Y69334D01*
X53472Y69090D01*
X53493Y68846D01*
X53508Y68601D01*
X53517Y68355D01*
X53520Y68110D01*
X53517Y67865D01*
X53508Y67619D01*
X53493Y67374D01*
X53472Y67130D01*
X53445Y66886D01*
X53412Y66643D01*
X53373Y66400D01*
X53328Y66159D01*
X53277Y65919D01*
X53220Y65680D01*
X53158Y65443D01*
X53089Y65207D01*
X53015Y64973D01*
X52935Y64741D01*
X52850Y64511D01*
X52759Y64283D01*
X52662Y64058D01*
X52560Y63834D01*
X52452Y63614D01*
X52339Y63396D01*
X52221Y63181D01*
X52097Y62969D01*
X51969Y62760D01*
X51835Y62554D01*
X51696Y62352D01*
X51552Y62153D01*
X51403Y61958D01*
X51250Y61766D01*
X51092Y61578D01*
X50930Y61394D01*
X50762Y61215D01*
X50591Y61039D01*
X50415Y60868D01*
X50236Y60700D01*
X50052Y60538D01*
X49864Y60380D01*
X49672Y60227D01*
X49477Y60078D01*
X49278Y59934D01*
X49076Y59795D01*
X48870Y59661D01*
X48661Y59533D01*
X48449Y59409D01*
X48234Y59291D01*
X48016Y59178D01*
X47796Y59070D01*
X47572Y58968D01*
X47347Y58871D01*
X47119Y58780D01*
X46889Y58695D01*
X46657Y58615D01*
X46423Y58541D01*
X46187Y58472D01*
X45950Y58410D01*
X45711Y58353D01*
X45471Y58302D01*
X45230Y58257D01*
X44987Y58218D01*
X44744Y58185D01*
X44500Y58158D01*
X44256Y58137D01*
X44011Y58122D01*
X43765Y58113D01*
X43520Y58110D01*
X43275Y58113D01*
X43029Y58122D01*
X42784Y58137D01*
X42540Y58158D01*
X42296Y58185D01*
X42053Y58218D01*
X41810Y58257D01*
X41569Y58302D01*
X41329Y58353D01*
X41090Y58410D01*
X40853Y58472D01*
X40617Y58541D01*
X40383Y58615D01*
X40151Y58695D01*
X39921Y58780D01*
X39693Y58871D01*
X39468Y58968D01*
X39244Y59070D01*
X39024Y59178D01*
X38806Y59291D01*
X38591Y59409D01*
X38379Y59533D01*
X38170Y59661D01*
X37964Y59795D01*
X37762Y59934D01*
X37563Y60078D01*
X37368Y60227D01*
X37176Y60380D01*
X36988Y60538D01*
X36804Y60700D01*
X36625Y60868D01*
X36449Y61039D01*
X36278Y61215D01*
X36110Y61394D01*
X35948Y61578D01*
X35790Y61766D01*
X35637Y61958D01*
X35488Y62153D01*
X35344Y62352D01*
X35205Y62554D01*
X35071Y62760D01*
X34943Y62969D01*
X34819Y63181D01*
X34701Y63396D01*
X34588Y63614D01*
X34480Y63834D01*
X34378Y64058D01*
X34281Y64283D01*
X34190Y64511D01*
X34105Y64741D01*
X34025Y64973D01*
X33951Y65207D01*
X33882Y65443D01*
X33820Y65680D01*
X33763Y65919D01*
X33712Y66159D01*
X33667Y66400D01*
X33628Y66643D01*
X33595Y66886D01*
X33568Y67130D01*
X33547Y67374D01*
X33532Y67619D01*
X33523Y67865D01*
X33520Y68110D01*
X413520Y68110D02*
X413523Y68355D01*
X413532Y68601D01*
X413547Y68846D01*
X413568Y69090D01*
X413595Y69334D01*
X413628Y69577D01*
X413667Y69820D01*
X413712Y70061D01*
X413763Y70301D01*
X413820Y70540D01*
X413882Y70777D01*
X413951Y71013D01*
X414025Y71247D01*
X414105Y71479D01*
X414190Y71709D01*
X414281Y71937D01*
X414378Y72162D01*
X414480Y72386D01*
X414588Y72606D01*
X414701Y72824D01*
X414819Y73039D01*
X414943Y73251D01*
X415071Y73460D01*
X415205Y73666D01*
X415344Y73868D01*
X415488Y74067D01*
X415637Y74262D01*
X415790Y74454D01*
X415948Y74642D01*
X416110Y74826D01*
X416278Y75005D01*
X416449Y75181D01*
X416625Y75352D01*
X416804Y75520D01*
X416988Y75682D01*
X417176Y75840D01*
X417368Y75993D01*
X417563Y76142D01*
X417762Y76286D01*
X417964Y76425D01*
X418170Y76559D01*
X418379Y76687D01*
X418591Y76811D01*
X418806Y76929D01*
X419024Y77042D01*
X419244Y77150D01*
X419468Y77252D01*
X419693Y77349D01*
X419921Y77440D01*
X420151Y77525D01*
X420383Y77605D01*
X420617Y77679D01*
X420853Y77748D01*
X421090Y77810D01*
X421329Y77867D01*
X421569Y77918D01*
X421810Y77963D01*
X422053Y78002D01*
X422296Y78035D01*
X422540Y78062D01*
X422784Y78083D01*
X423029Y78098D01*
X423275Y78107D01*
X423520Y78110D01*
X423765Y78107D01*
X424011Y78098D01*
X424256Y78083D01*
X424500Y78062D01*
X424744Y78035D01*
X424987Y78002D01*
X425230Y77963D01*
X425471Y77918D01*
X425711Y77867D01*
X425950Y77810D01*
X426187Y77748D01*
X426423Y77679D01*
X426657Y77605D01*
X426889Y77525D01*
X427119Y77440D01*
X427347Y77349D01*
X427572Y77252D01*
X427796Y77150D01*
X428016Y77042D01*
X428234Y76929D01*
X428449Y76811D01*
X428661Y76687D01*
X428870Y76559D01*
X429076Y76425D01*
X429278Y76286D01*
X429477Y76142D01*
X429672Y75993D01*
X429864Y75840D01*
X430052Y75682D01*
X430236Y75520D01*
X430415Y75352D01*
X430591Y75181D01*
X430762Y75005D01*
X430930Y74826D01*
X431092Y74642D01*
X431250Y74454D01*
X431403Y74262D01*
X431552Y74067D01*
X431696Y73868D01*
X431835Y73666D01*
X431969Y73460D01*
X432097Y73251D01*
X432221Y73039D01*
X432339Y72824D01*
X432452Y72606D01*
X432560Y72386D01*
X432662Y72162D01*
X432759Y71937D01*
X432850Y71709D01*
X432935Y71479D01*
X433015Y71247D01*
X433089Y71013D01*
X433158Y70777D01*
X433220Y70540D01*
X433277Y70301D01*
X433328Y70061D01*
X433373Y69820D01*
X433412Y69577D01*
X433445Y69334D01*
X433472Y69090D01*
X433493Y68846D01*
X433508Y68601D01*
X433517Y68355D01*
X433520Y68110D01*
X433517Y67865D01*
X433508Y67619D01*
X433493Y67374D01*
X433472Y67130D01*
X433445Y66886D01*
X433412Y66643D01*
X433373Y66400D01*
X433328Y66159D01*
X433277Y65919D01*
X433220Y65680D01*
X433158Y65443D01*
X433089Y65207D01*
X433015Y64973D01*
X432935Y64741D01*
X432850Y64511D01*
X432759Y64283D01*
X432662Y64058D01*
X432560Y63834D01*
X432452Y63614D01*
X432339Y63396D01*
X432221Y63181D01*
X432097Y62969D01*
X431969Y62760D01*
X431835Y62554D01*
X431696Y62352D01*
X431552Y62153D01*
X431403Y61958D01*
X431250Y61766D01*
X431092Y61578D01*
X430930Y61394D01*
X430762Y61215D01*
X430591Y61039D01*
X430415Y60868D01*
X430236Y60700D01*
X430052Y60538D01*
X429864Y60380D01*
X429672Y60227D01*
X429477Y60078D01*
X429278Y59934D01*
X429076Y59795D01*
X428870Y59661D01*
X428661Y59533D01*
X428449Y59409D01*
X428234Y59291D01*
X428016Y59178D01*
X427796Y59070D01*
X427572Y58968D01*
X427347Y58871D01*
X427119Y58780D01*
X426889Y58695D01*
X426657Y58615D01*
X426423Y58541D01*
X426187Y58472D01*
X425950Y58410D01*
X425711Y58353D01*
X425471Y58302D01*
X425230Y58257D01*
X424987Y58218D01*
X424744Y58185D01*
X424500Y58158D01*
X424256Y58137D01*
X424011Y58122D01*
X423765Y58113D01*
X423520Y58110D01*
X423275Y58113D01*
X423029Y58122D01*
X422784Y58137D01*
X422540Y58158D01*
X422296Y58185D01*
X422053Y58218D01*
X421810Y58257D01*
X421569Y58302D01*
X421329Y58353D01*
X421090Y58410D01*
X420853Y58472D01*
X420617Y58541D01*
X420383Y58615D01*
X420151Y58695D01*
X419921Y58780D01*
X419693Y58871D01*
X419468Y58968D01*
X419244Y59070D01*
X419024Y59178D01*
X418806Y59291D01*
X418591Y59409D01*
X418379Y59533D01*
X418170Y59661D01*
X417964Y59795D01*
X417762Y59934D01*
X417563Y60078D01*
X417368Y60227D01*
X417176Y60380D01*
X416988Y60538D01*
X416804Y60700D01*
X416625Y60868D01*
X416449Y61039D01*
X416278Y61215D01*
X416110Y61394D01*
X415948Y61578D01*
X415790Y61766D01*
X415637Y61958D01*
X415488Y62153D01*
X415344Y62352D01*
X415205Y62554D01*
X415071Y62760D01*
X414943Y62969D01*
X414819Y63181D01*
X414701Y63396D01*
X414588Y63614D01*
X414480Y63834D01*
X414378Y64058D01*
X414281Y64283D01*
X414190Y64511D01*
X414105Y64741D01*
X414025Y64973D01*
X413951Y65207D01*
X413882Y65443D01*
X413820Y65680D01*
X413763Y65919D01*
X413712Y66159D01*
X413667Y66400D01*
X413628Y66643D01*
X413595Y66886D01*
X413568Y67130D01*
X413547Y67374D01*
X413532Y67619D01*
X413523Y67865D01*
X413520Y68110D01*
X413520Y268110D02*
X413523Y268355D01*
X413532Y268601D01*
X413547Y268846D01*
X413568Y269090D01*
X413595Y269334D01*
X413628Y269577D01*
X413667Y269820D01*
X413712Y270061D01*
X413763Y270301D01*
X413820Y270540D01*
X413882Y270777D01*
X413951Y271013D01*
X414025Y271247D01*
X414105Y271479D01*
X414190Y271709D01*
X414281Y271937D01*
X414378Y272162D01*
X414480Y272386D01*
X414588Y272606D01*
X414701Y272824D01*
X414819Y273039D01*
X414943Y273251D01*
X415071Y273460D01*
X415205Y273666D01*
X415344Y273868D01*
X415488Y274067D01*
X415637Y274262D01*
X415790Y274454D01*
X415948Y274642D01*
X416110Y274826D01*
X416278Y275005D01*
X416449Y275181D01*
X416625Y275352D01*
X416804Y275520D01*
X416988Y275682D01*
X417176Y275840D01*
X417368Y275993D01*
X417563Y276142D01*
X417762Y276286D01*
X417964Y276425D01*
X418170Y276559D01*
X418379Y276687D01*
X418591Y276811D01*
X418806Y276929D01*
X419024Y277042D01*
X419244Y277150D01*
X419468Y277252D01*
X419693Y277349D01*
X419921Y277440D01*
X420151Y277525D01*
X420383Y277605D01*
X420617Y277679D01*
X420853Y277748D01*
X421090Y277810D01*
X421329Y277867D01*
X421569Y277918D01*
X421810Y277963D01*
X422053Y278002D01*
X422296Y278035D01*
X422540Y278062D01*
X422784Y278083D01*
X423029Y278098D01*
X423275Y278107D01*
X423520Y278110D01*
X423765Y278107D01*
X424011Y278098D01*
X424256Y278083D01*
X424500Y278062D01*
X424744Y278035D01*
X424987Y278002D01*
X425230Y277963D01*
X425471Y277918D01*
X425711Y277867D01*
X425950Y277810D01*
X426187Y277748D01*
X426423Y277679D01*
X426657Y277605D01*
X426889Y277525D01*
X427119Y277440D01*
X427347Y277349D01*
X427572Y277252D01*
X427796Y277150D01*
X428016Y277042D01*
X428234Y276929D01*
X428449Y276811D01*
X428661Y276687D01*
X428870Y276559D01*
X429076Y276425D01*
X429278Y276286D01*
X429477Y276142D01*
X429672Y275993D01*
X429864Y275840D01*
X430052Y275682D01*
X430236Y275520D01*
X430415Y275352D01*
X430591Y275181D01*
X430762Y275005D01*
X430930Y274826D01*
X431092Y274642D01*
X431250Y274454D01*
X431403Y274262D01*
X431552Y274067D01*
X431696Y273868D01*
X431835Y273666D01*
X431969Y273460D01*
X432097Y273251D01*
X432221Y273039D01*
X432339Y272824D01*
X432452Y272606D01*
X432560Y272386D01*
X432662Y272162D01*
X432759Y271937D01*
X432850Y271709D01*
X432935Y271479D01*
X433015Y271247D01*
X433089Y271013D01*
X433158Y270777D01*
X433220Y270540D01*
X433277Y270301D01*
X433328Y270061D01*
X433373Y269820D01*
X433412Y269577D01*
X433445Y269334D01*
X433472Y269090D01*
X433493Y268846D01*
X433508Y268601D01*
X433517Y268355D01*
X433520Y268110D01*
X433517Y267865D01*
X433508Y267619D01*
X433493Y267374D01*
X433472Y267130D01*
X433445Y266886D01*
X433412Y266643D01*
X433373Y266400D01*
X433328Y266159D01*
X433277Y265919D01*
X433220Y265680D01*
X433158Y265443D01*
X433089Y265207D01*
X433015Y264973D01*
X432935Y264741D01*
X432850Y264511D01*
X432759Y264283D01*
X432662Y264058D01*
X432560Y263834D01*
X432452Y263614D01*
X432339Y263396D01*
X432221Y263181D01*
X432097Y262969D01*
X431969Y262760D01*
X431835Y262554D01*
X431696Y262352D01*
X431552Y262153D01*
X431403Y261958D01*
X431250Y261766D01*
X431092Y261578D01*
X430930Y261394D01*
X430762Y261215D01*
X430591Y261039D01*
X430415Y260868D01*
X430236Y260700D01*
X430052Y260538D01*
X429864Y260380D01*
X429672Y260227D01*
X429477Y260078D01*
X429278Y259934D01*
X429076Y259795D01*
X428870Y259661D01*
X428661Y259533D01*
X428449Y259409D01*
X428234Y259291D01*
X428016Y259178D01*
X427796Y259070D01*
X427572Y258968D01*
X427347Y258871D01*
X427119Y258780D01*
X426889Y258695D01*
X426657Y258615D01*
X426423Y258541D01*
X426187Y258472D01*
X425950Y258410D01*
X425711Y258353D01*
X425471Y258302D01*
X425230Y258257D01*
X424987Y258218D01*
X424744Y258185D01*
X424500Y258158D01*
X424256Y258137D01*
X424011Y258122D01*
X423765Y258113D01*
X423520Y258110D01*
X423275Y258113D01*
X423029Y258122D01*
X422784Y258137D01*
X422540Y258158D01*
X422296Y258185D01*
X422053Y258218D01*
X421810Y258257D01*
X421569Y258302D01*
X421329Y258353D01*
X421090Y258410D01*
X420853Y258472D01*
X420617Y258541D01*
X420383Y258615D01*
X420151Y258695D01*
X419921Y258780D01*
X419693Y258871D01*
X419468Y258968D01*
X419244Y259070D01*
X419024Y259178D01*
X418806Y259291D01*
X418591Y259409D01*
X418379Y259533D01*
X418170Y259661D01*
X417964Y259795D01*
X417762Y259934D01*
X417563Y260078D01*
X417368Y260227D01*
X417176Y260380D01*
X416988Y260538D01*
X416804Y260700D01*
X416625Y260868D01*
X416449Y261039D01*
X416278Y261215D01*
X416110Y261394D01*
X415948Y261578D01*
X415790Y261766D01*
X415637Y261958D01*
X415488Y262153D01*
X415344Y262352D01*
X415205Y262554D01*
X415071Y262760D01*
X414943Y262969D01*
X414819Y263181D01*
X414701Y263396D01*
X414588Y263614D01*
X414480Y263834D01*
X414378Y264058D01*
X414281Y264283D01*
X414190Y264511D01*
X414105Y264741D01*
X414025Y264973D01*
X413951Y265207D01*
X413882Y265443D01*
X413820Y265680D01*
X413763Y265919D01*
X413712Y266159D01*
X413667Y266400D01*
X413628Y266643D01*
X413595Y266886D01*
X413568Y267130D01*
X413547Y267374D01*
X413532Y267619D01*
X413523Y267865D01*
X413520Y268110D01*
D11*
X235012Y104566D02*
X223328Y104566D01*
X228521Y108461D02*
X235012Y104566D01*
X228521Y108461D02*
X235012Y112355D01*
X223328Y112355D01*
X223328Y117605D02*
X231117Y117605D01*
X234363Y117280D02*
X235012Y117280D01*
X235012Y117929D01*
X234363Y117929D01*
X234363Y117280D01*
X223328Y124208D02*
X223328Y126804D01*
X223328Y124208D02*
X223330Y124121D01*
X223336Y124033D01*
X223346Y123947D01*
X223359Y123860D01*
X223377Y123775D01*
X223398Y123690D01*
X223423Y123606D01*
X223452Y123524D01*
X223485Y123443D01*
X223521Y123363D01*
X223560Y123285D01*
X223604Y123209D01*
X223650Y123135D01*
X223700Y123064D01*
X223753Y122994D01*
X223809Y122927D01*
X223868Y122863D01*
X223930Y122801D01*
X223994Y122742D01*
X224061Y122686D01*
X224131Y122633D01*
X224202Y122583D01*
X224276Y122537D01*
X224352Y122493D01*
X224430Y122454D01*
X224510Y122418D01*
X224591Y122385D01*
X224673Y122356D01*
X224757Y122331D01*
X224842Y122310D01*
X224927Y122292D01*
X225014Y122279D01*
X225100Y122269D01*
X225188Y122263D01*
X225275Y122261D01*
X225275Y122260D02*
X229170Y122260D01*
X229170Y122261D02*
X229257Y122263D01*
X229345Y122269D01*
X229431Y122279D01*
X229518Y122292D01*
X229603Y122310D01*
X229688Y122331D01*
X229772Y122356D01*
X229854Y122385D01*
X229935Y122418D01*
X230015Y122454D01*
X230093Y122493D01*
X230169Y122537D01*
X230243Y122583D01*
X230314Y122633D01*
X230384Y122686D01*
X230451Y122742D01*
X230515Y122801D01*
X230577Y122863D01*
X230636Y122927D01*
X230692Y122994D01*
X230745Y123064D01*
X230795Y123135D01*
X230841Y123209D01*
X230885Y123285D01*
X230924Y123363D01*
X230960Y123443D01*
X230993Y123524D01*
X231022Y123606D01*
X231047Y123690D01*
X231068Y123775D01*
X231086Y123860D01*
X231099Y123947D01*
X231109Y124033D01*
X231115Y124121D01*
X231117Y124208D01*
X231117Y126804D01*
X231117Y131457D02*
X223328Y131457D01*
X231117Y131457D02*
X231117Y135352D01*
X229819Y135352D01*
X228521Y139011D02*
X225924Y139011D01*
X228521Y139012D02*
X228622Y139014D01*
X228722Y139020D01*
X228822Y139030D01*
X228922Y139043D01*
X229021Y139061D01*
X229120Y139082D01*
X229217Y139107D01*
X229314Y139136D01*
X229409Y139169D01*
X229503Y139205D01*
X229595Y139245D01*
X229686Y139288D01*
X229775Y139335D01*
X229862Y139385D01*
X229948Y139439D01*
X230031Y139496D01*
X230111Y139556D01*
X230190Y139619D01*
X230266Y139686D01*
X230339Y139755D01*
X230409Y139827D01*
X230477Y139901D01*
X230542Y139978D01*
X230603Y140058D01*
X230662Y140140D01*
X230717Y140224D01*
X230769Y140310D01*
X230818Y140398D01*
X230863Y140488D01*
X230905Y140580D01*
X230943Y140673D01*
X230977Y140768D01*
X231008Y140863D01*
X231035Y140960D01*
X231058Y141058D01*
X231078Y141157D01*
X231093Y141257D01*
X231105Y141357D01*
X231113Y141457D01*
X231117Y141558D01*
X231117Y141658D01*
X231113Y141759D01*
X231105Y141859D01*
X231093Y141959D01*
X231078Y142059D01*
X231058Y142158D01*
X231035Y142256D01*
X231008Y142353D01*
X230977Y142448D01*
X230943Y142543D01*
X230905Y142636D01*
X230863Y142728D01*
X230818Y142818D01*
X230769Y142906D01*
X230717Y142992D01*
X230662Y143076D01*
X230603Y143158D01*
X230542Y143238D01*
X230477Y143315D01*
X230409Y143389D01*
X230339Y143461D01*
X230266Y143530D01*
X230190Y143597D01*
X230111Y143660D01*
X230031Y143720D01*
X229948Y143777D01*
X229862Y143831D01*
X229775Y143881D01*
X229686Y143928D01*
X229595Y143971D01*
X229503Y144011D01*
X229409Y144047D01*
X229314Y144080D01*
X229217Y144109D01*
X229120Y144134D01*
X229021Y144155D01*
X228922Y144173D01*
X228822Y144186D01*
X228722Y144196D01*
X228622Y144202D01*
X228521Y144204D01*
X225924Y144204D01*
X225823Y144202D01*
X225723Y144196D01*
X225623Y144186D01*
X225523Y144173D01*
X225424Y144155D01*
X225325Y144134D01*
X225228Y144109D01*
X225131Y144080D01*
X225036Y144047D01*
X224942Y144011D01*
X224850Y143971D01*
X224759Y143928D01*
X224670Y143881D01*
X224583Y143831D01*
X224497Y143777D01*
X224414Y143720D01*
X224334Y143660D01*
X224255Y143597D01*
X224179Y143530D01*
X224106Y143461D01*
X224036Y143389D01*
X223968Y143315D01*
X223903Y143238D01*
X223842Y143158D01*
X223783Y143076D01*
X223728Y142992D01*
X223676Y142906D01*
X223627Y142818D01*
X223582Y142728D01*
X223540Y142636D01*
X223502Y142543D01*
X223468Y142448D01*
X223437Y142353D01*
X223410Y142256D01*
X223387Y142158D01*
X223367Y142059D01*
X223352Y141959D01*
X223340Y141859D01*
X223332Y141759D01*
X223328Y141658D01*
X223328Y141558D01*
X223332Y141457D01*
X223340Y141357D01*
X223352Y141257D01*
X223367Y141157D01*
X223387Y141058D01*
X223410Y140960D01*
X223437Y140863D01*
X223468Y140768D01*
X223502Y140673D01*
X223540Y140580D01*
X223582Y140488D01*
X223627Y140398D01*
X223676Y140310D01*
X223728Y140224D01*
X223783Y140140D01*
X223842Y140058D01*
X223903Y139978D01*
X223968Y139901D01*
X224036Y139827D01*
X224106Y139755D01*
X224179Y139686D01*
X224255Y139619D01*
X224334Y139556D01*
X224414Y139496D01*
X224497Y139439D01*
X224583Y139385D01*
X224670Y139335D01*
X224759Y139288D01*
X224850Y139245D01*
X224942Y139205D01*
X225036Y139169D01*
X225131Y139136D01*
X225228Y139107D01*
X225325Y139082D01*
X225424Y139061D01*
X225523Y139043D01*
X225623Y139030D01*
X225723Y139020D01*
X225823Y139014D01*
X225924Y139012D01*
X223328Y152544D02*
X223330Y152643D01*
X223336Y152743D01*
X223345Y152842D01*
X223358Y152940D01*
X223375Y153038D01*
X223396Y153136D01*
X223421Y153232D01*
X223449Y153327D01*
X223481Y153421D01*
X223516Y153514D01*
X223555Y153606D01*
X223598Y153696D01*
X223643Y153784D01*
X223693Y153871D01*
X223745Y153955D01*
X223801Y154038D01*
X223859Y154118D01*
X223921Y154196D01*
X223986Y154271D01*
X224054Y154344D01*
X224124Y154414D01*
X224197Y154482D01*
X224272Y154547D01*
X224350Y154609D01*
X224430Y154667D01*
X224513Y154723D01*
X224597Y154775D01*
X224684Y154825D01*
X224772Y154870D01*
X224862Y154913D01*
X224954Y154952D01*
X225047Y154987D01*
X225141Y155019D01*
X225236Y155047D01*
X225332Y155072D01*
X225430Y155093D01*
X225528Y155110D01*
X225626Y155123D01*
X225725Y155132D01*
X225825Y155138D01*
X225924Y155140D01*
X223328Y152544D02*
X223330Y152400D01*
X223336Y152255D01*
X223345Y152111D01*
X223358Y151968D01*
X223375Y151824D01*
X223396Y151681D01*
X223421Y151539D01*
X223449Y151398D01*
X223481Y151257D01*
X223517Y151117D01*
X223556Y150978D01*
X223599Y150840D01*
X223646Y150704D01*
X223696Y150568D01*
X223750Y150434D01*
X223807Y150302D01*
X223868Y150171D01*
X223932Y150042D01*
X224000Y149914D01*
X224070Y149788D01*
X224145Y149664D01*
X224222Y149543D01*
X224303Y149423D01*
X224386Y149305D01*
X224473Y149190D01*
X224563Y149077D01*
X224656Y148966D01*
X224751Y148858D01*
X224850Y148752D01*
X224951Y148649D01*
X232416Y148974D02*
X232515Y148976D01*
X232615Y148982D01*
X232714Y148991D01*
X232812Y149004D01*
X232910Y149021D01*
X233008Y149042D01*
X233104Y149067D01*
X233199Y149095D01*
X233293Y149127D01*
X233386Y149162D01*
X233478Y149201D01*
X233568Y149244D01*
X233656Y149289D01*
X233743Y149339D01*
X233827Y149391D01*
X233910Y149447D01*
X233990Y149505D01*
X234068Y149567D01*
X234143Y149632D01*
X234216Y149700D01*
X234286Y149770D01*
X234354Y149843D01*
X234419Y149918D01*
X234481Y149996D01*
X234539Y150076D01*
X234595Y150159D01*
X234647Y150243D01*
X234697Y150330D01*
X234742Y150418D01*
X234785Y150508D01*
X234824Y150600D01*
X234859Y150693D01*
X234891Y150787D01*
X234919Y150882D01*
X234944Y150979D01*
X234965Y151076D01*
X234982Y151174D01*
X234995Y151272D01*
X235004Y151371D01*
X235010Y151471D01*
X235012Y151570D01*
X235010Y151706D01*
X235004Y151842D01*
X234995Y151978D01*
X234982Y152114D01*
X234964Y152249D01*
X234944Y152383D01*
X234919Y152517D01*
X234891Y152651D01*
X234858Y152783D01*
X234823Y152914D01*
X234783Y153045D01*
X234740Y153174D01*
X234694Y153302D01*
X234643Y153428D01*
X234590Y153554D01*
X234532Y153677D01*
X234472Y153799D01*
X234408Y153919D01*
X234340Y154038D01*
X234270Y154154D01*
X234196Y154268D01*
X234119Y154381D01*
X234038Y154491D01*
X230144Y150271D02*
X230197Y150185D01*
X230254Y150101D01*
X230313Y150019D01*
X230376Y149939D01*
X230442Y149862D01*
X230510Y149787D01*
X230582Y149715D01*
X230656Y149646D01*
X230733Y149580D01*
X230812Y149517D01*
X230894Y149457D01*
X230978Y149400D01*
X231064Y149346D01*
X231152Y149296D01*
X231242Y149249D01*
X231333Y149205D01*
X231427Y149166D01*
X231521Y149129D01*
X231617Y149097D01*
X231715Y149068D01*
X231813Y149043D01*
X231912Y149022D01*
X232012Y149004D01*
X232112Y148991D01*
X232213Y148981D01*
X232315Y148975D01*
X232416Y148973D01*
X228196Y153842D02*
X228143Y153928D01*
X228086Y154012D01*
X228027Y154094D01*
X227964Y154174D01*
X227898Y154251D01*
X227830Y154326D01*
X227758Y154398D01*
X227684Y154467D01*
X227607Y154533D01*
X227528Y154596D01*
X227446Y154656D01*
X227362Y154713D01*
X227276Y154767D01*
X227188Y154817D01*
X227098Y154864D01*
X227007Y154908D01*
X226913Y154947D01*
X226819Y154984D01*
X226723Y155016D01*
X226625Y155045D01*
X226527Y155070D01*
X226428Y155091D01*
X226328Y155109D01*
X226228Y155122D01*
X226127Y155132D01*
X226025Y155138D01*
X225924Y155140D01*
X228196Y153842D02*
X230144Y150272D01*
X235012Y160079D02*
X223328Y160079D01*
X235012Y160079D02*
X235012Y163324D01*
X235010Y163437D01*
X235004Y163550D01*
X234994Y163663D01*
X234980Y163776D01*
X234963Y163888D01*
X234941Y163999D01*
X234916Y164109D01*
X234886Y164219D01*
X234853Y164327D01*
X234816Y164434D01*
X234776Y164540D01*
X234731Y164644D01*
X234683Y164747D01*
X234632Y164848D01*
X234577Y164947D01*
X234519Y165044D01*
X234457Y165139D01*
X234392Y165232D01*
X234324Y165322D01*
X234253Y165410D01*
X234178Y165496D01*
X234101Y165579D01*
X234021Y165659D01*
X233938Y165736D01*
X233852Y165811D01*
X233764Y165882D01*
X233674Y165950D01*
X233581Y166015D01*
X233486Y166077D01*
X233389Y166135D01*
X233290Y166190D01*
X233189Y166241D01*
X233086Y166289D01*
X232982Y166334D01*
X232876Y166374D01*
X232769Y166411D01*
X232661Y166444D01*
X232551Y166474D01*
X232441Y166499D01*
X232330Y166521D01*
X232218Y166538D01*
X232105Y166552D01*
X231992Y166562D01*
X231879Y166568D01*
X231766Y166570D01*
X226574Y166570D01*
X226461Y166568D01*
X226348Y166562D01*
X226235Y166552D01*
X226122Y166538D01*
X226010Y166521D01*
X225899Y166499D01*
X225789Y166474D01*
X225679Y166444D01*
X225571Y166411D01*
X225464Y166374D01*
X225358Y166334D01*
X225254Y166289D01*
X225151Y166241D01*
X225050Y166190D01*
X224951Y166135D01*
X224854Y166077D01*
X224759Y166015D01*
X224666Y165950D01*
X224576Y165882D01*
X224488Y165811D01*
X224402Y165736D01*
X224319Y165659D01*
X224239Y165579D01*
X224162Y165496D01*
X224087Y165410D01*
X224016Y165322D01*
X223948Y165232D01*
X223883Y165139D01*
X223821Y165044D01*
X223763Y164947D01*
X223708Y164848D01*
X223657Y164747D01*
X223609Y164644D01*
X223564Y164540D01*
X223524Y164434D01*
X223487Y164327D01*
X223454Y164219D01*
X223424Y164109D01*
X223399Y163999D01*
X223377Y163888D01*
X223360Y163776D01*
X223346Y163663D01*
X223336Y163550D01*
X223330Y163437D01*
X223328Y163324D01*
X223328Y160079D01*
X223328Y178320D02*
X231117Y178320D01*
X231117Y182215D01*
X229819Y182215D01*
X223328Y187821D02*
X223328Y191067D01*
X223328Y187821D02*
X223330Y187734D01*
X223336Y187646D01*
X223346Y187560D01*
X223359Y187473D01*
X223377Y187388D01*
X223398Y187303D01*
X223423Y187219D01*
X223452Y187137D01*
X223485Y187056D01*
X223521Y186976D01*
X223560Y186898D01*
X223604Y186822D01*
X223650Y186748D01*
X223700Y186677D01*
X223753Y186607D01*
X223809Y186540D01*
X223868Y186476D01*
X223930Y186414D01*
X223994Y186355D01*
X224061Y186299D01*
X224131Y186246D01*
X224202Y186196D01*
X224276Y186150D01*
X224352Y186106D01*
X224430Y186067D01*
X224510Y186031D01*
X224591Y185998D01*
X224673Y185969D01*
X224757Y185944D01*
X224842Y185923D01*
X224927Y185905D01*
X225014Y185892D01*
X225100Y185882D01*
X225188Y185876D01*
X225275Y185874D01*
X228521Y185874D01*
X228622Y185876D01*
X228722Y185882D01*
X228822Y185892D01*
X228922Y185905D01*
X229021Y185923D01*
X229120Y185944D01*
X229217Y185969D01*
X229314Y185998D01*
X229409Y186031D01*
X229503Y186067D01*
X229595Y186107D01*
X229686Y186150D01*
X229775Y186197D01*
X229862Y186247D01*
X229948Y186301D01*
X230031Y186358D01*
X230111Y186418D01*
X230190Y186481D01*
X230266Y186548D01*
X230339Y186617D01*
X230409Y186689D01*
X230477Y186763D01*
X230542Y186840D01*
X230603Y186920D01*
X230662Y187002D01*
X230717Y187086D01*
X230769Y187172D01*
X230818Y187260D01*
X230863Y187350D01*
X230905Y187442D01*
X230943Y187535D01*
X230977Y187630D01*
X231008Y187725D01*
X231035Y187822D01*
X231058Y187920D01*
X231078Y188019D01*
X231093Y188119D01*
X231105Y188219D01*
X231113Y188319D01*
X231117Y188420D01*
X231117Y188520D01*
X231113Y188621D01*
X231105Y188721D01*
X231093Y188821D01*
X231078Y188921D01*
X231058Y189020D01*
X231035Y189118D01*
X231008Y189215D01*
X230977Y189310D01*
X230943Y189405D01*
X230905Y189498D01*
X230863Y189590D01*
X230818Y189680D01*
X230769Y189768D01*
X230717Y189854D01*
X230662Y189938D01*
X230603Y190020D01*
X230542Y190100D01*
X230477Y190177D01*
X230409Y190251D01*
X230339Y190323D01*
X230266Y190392D01*
X230190Y190459D01*
X230111Y190522D01*
X230031Y190582D01*
X229948Y190639D01*
X229862Y190693D01*
X229775Y190743D01*
X229686Y190790D01*
X229595Y190833D01*
X229503Y190873D01*
X229409Y190909D01*
X229314Y190942D01*
X229217Y190971D01*
X229120Y190996D01*
X229021Y191017D01*
X228922Y191035D01*
X228822Y191048D01*
X228722Y191058D01*
X228622Y191064D01*
X228521Y191066D01*
X228521Y191067D02*
X227223Y191067D01*
X227223Y185874D01*
X227872Y197993D02*
X227872Y200914D01*
X227872Y197993D02*
X227870Y197899D01*
X227864Y197805D01*
X227855Y197712D01*
X227841Y197619D01*
X227824Y197527D01*
X227802Y197435D01*
X227778Y197345D01*
X227749Y197255D01*
X227717Y197167D01*
X227681Y197080D01*
X227641Y196995D01*
X227598Y196912D01*
X227552Y196830D01*
X227502Y196750D01*
X227449Y196673D01*
X227393Y196598D01*
X227334Y196525D01*
X227272Y196454D01*
X227207Y196386D01*
X227139Y196321D01*
X227068Y196259D01*
X226995Y196200D01*
X226920Y196144D01*
X226843Y196091D01*
X226763Y196041D01*
X226681Y195995D01*
X226598Y195952D01*
X226513Y195912D01*
X226426Y195876D01*
X226338Y195844D01*
X226248Y195815D01*
X226158Y195791D01*
X226066Y195769D01*
X225974Y195752D01*
X225881Y195738D01*
X225788Y195729D01*
X225694Y195723D01*
X225600Y195721D01*
X225506Y195723D01*
X225412Y195729D01*
X225319Y195738D01*
X225226Y195752D01*
X225134Y195769D01*
X225042Y195791D01*
X224952Y195815D01*
X224862Y195844D01*
X224774Y195876D01*
X224687Y195912D01*
X224602Y195952D01*
X224519Y195995D01*
X224437Y196041D01*
X224357Y196091D01*
X224280Y196144D01*
X224205Y196200D01*
X224132Y196259D01*
X224061Y196321D01*
X223993Y196386D01*
X223928Y196454D01*
X223866Y196525D01*
X223807Y196598D01*
X223751Y196673D01*
X223698Y196750D01*
X223648Y196830D01*
X223602Y196912D01*
X223559Y196995D01*
X223519Y197080D01*
X223483Y197167D01*
X223451Y197255D01*
X223422Y197345D01*
X223398Y197435D01*
X223376Y197527D01*
X223359Y197619D01*
X223345Y197712D01*
X223336Y197805D01*
X223330Y197899D01*
X223328Y197993D01*
X223328Y200914D01*
X229170Y200914D01*
X229257Y200912D01*
X229345Y200906D01*
X229431Y200896D01*
X229518Y200883D01*
X229603Y200865D01*
X229688Y200844D01*
X229772Y200819D01*
X229854Y200790D01*
X229935Y200757D01*
X230015Y200721D01*
X230093Y200682D01*
X230169Y200638D01*
X230243Y200592D01*
X230314Y200542D01*
X230384Y200489D01*
X230451Y200433D01*
X230515Y200374D01*
X230577Y200312D01*
X230636Y200248D01*
X230692Y200181D01*
X230745Y200111D01*
X230795Y200040D01*
X230841Y199966D01*
X230885Y199890D01*
X230924Y199812D01*
X230960Y199732D01*
X230993Y199651D01*
X231022Y199569D01*
X231047Y199485D01*
X231068Y199400D01*
X231086Y199315D01*
X231099Y199228D01*
X231109Y199142D01*
X231115Y199054D01*
X231117Y198967D01*
X231117Y196370D01*
X235012Y211201D02*
X223328Y211201D01*
X223328Y207955D01*
X223330Y207868D01*
X223336Y207780D01*
X223346Y207694D01*
X223359Y207607D01*
X223377Y207522D01*
X223398Y207437D01*
X223423Y207353D01*
X223452Y207271D01*
X223485Y207190D01*
X223521Y207110D01*
X223560Y207032D01*
X223604Y206956D01*
X223650Y206882D01*
X223700Y206811D01*
X223753Y206741D01*
X223809Y206674D01*
X223868Y206610D01*
X223930Y206548D01*
X223994Y206489D01*
X224061Y206433D01*
X224131Y206380D01*
X224202Y206330D01*
X224276Y206284D01*
X224352Y206240D01*
X224430Y206201D01*
X224510Y206165D01*
X224591Y206132D01*
X224673Y206103D01*
X224757Y206078D01*
X224842Y206057D01*
X224927Y206039D01*
X225014Y206026D01*
X225100Y206016D01*
X225188Y206010D01*
X225275Y206008D01*
X229170Y206008D01*
X229257Y206010D01*
X229345Y206016D01*
X229431Y206026D01*
X229518Y206039D01*
X229603Y206057D01*
X229688Y206078D01*
X229772Y206103D01*
X229854Y206132D01*
X229935Y206165D01*
X230015Y206201D01*
X230093Y206240D01*
X230169Y206284D01*
X230243Y206330D01*
X230314Y206380D01*
X230384Y206433D01*
X230451Y206489D01*
X230515Y206548D01*
X230577Y206610D01*
X230636Y206674D01*
X230692Y206741D01*
X230745Y206811D01*
X230795Y206882D01*
X230841Y206956D01*
X230885Y207032D01*
X230924Y207110D01*
X230960Y207190D01*
X230993Y207271D01*
X231022Y207353D01*
X231047Y207437D01*
X231068Y207522D01*
X231086Y207607D01*
X231099Y207694D01*
X231109Y207780D01*
X231115Y207868D01*
X231117Y207955D01*
X231117Y211201D01*
X223328Y218301D02*
X223328Y221547D01*
X223328Y218301D02*
X223330Y218214D01*
X223336Y218126D01*
X223346Y218040D01*
X223359Y217953D01*
X223377Y217868D01*
X223398Y217783D01*
X223423Y217699D01*
X223452Y217617D01*
X223485Y217536D01*
X223521Y217456D01*
X223560Y217378D01*
X223604Y217302D01*
X223650Y217228D01*
X223700Y217157D01*
X223753Y217087D01*
X223809Y217020D01*
X223868Y216956D01*
X223930Y216894D01*
X223994Y216835D01*
X224061Y216779D01*
X224131Y216726D01*
X224202Y216676D01*
X224276Y216630D01*
X224352Y216586D01*
X224430Y216547D01*
X224510Y216511D01*
X224591Y216478D01*
X224673Y216449D01*
X224757Y216424D01*
X224842Y216403D01*
X224927Y216385D01*
X225014Y216372D01*
X225100Y216362D01*
X225188Y216356D01*
X225275Y216354D01*
X228521Y216354D01*
X228622Y216356D01*
X228722Y216362D01*
X228822Y216372D01*
X228922Y216385D01*
X229021Y216403D01*
X229120Y216424D01*
X229217Y216449D01*
X229314Y216478D01*
X229409Y216511D01*
X229503Y216547D01*
X229595Y216587D01*
X229686Y216630D01*
X229775Y216677D01*
X229862Y216727D01*
X229948Y216781D01*
X230031Y216838D01*
X230111Y216898D01*
X230190Y216961D01*
X230266Y217028D01*
X230339Y217097D01*
X230409Y217169D01*
X230477Y217243D01*
X230542Y217320D01*
X230603Y217400D01*
X230662Y217482D01*
X230717Y217566D01*
X230769Y217652D01*
X230818Y217740D01*
X230863Y217830D01*
X230905Y217922D01*
X230943Y218015D01*
X230977Y218110D01*
X231008Y218205D01*
X231035Y218302D01*
X231058Y218400D01*
X231078Y218499D01*
X231093Y218599D01*
X231105Y218699D01*
X231113Y218799D01*
X231117Y218900D01*
X231117Y219000D01*
X231113Y219101D01*
X231105Y219201D01*
X231093Y219301D01*
X231078Y219401D01*
X231058Y219500D01*
X231035Y219598D01*
X231008Y219695D01*
X230977Y219790D01*
X230943Y219885D01*
X230905Y219978D01*
X230863Y220070D01*
X230818Y220160D01*
X230769Y220248D01*
X230717Y220334D01*
X230662Y220418D01*
X230603Y220500D01*
X230542Y220580D01*
X230477Y220657D01*
X230409Y220731D01*
X230339Y220803D01*
X230266Y220872D01*
X230190Y220939D01*
X230111Y221002D01*
X230031Y221062D01*
X229948Y221119D01*
X229862Y221173D01*
X229775Y221223D01*
X229686Y221270D01*
X229595Y221313D01*
X229503Y221353D01*
X229409Y221389D01*
X229314Y221422D01*
X229217Y221451D01*
X229120Y221476D01*
X229021Y221497D01*
X228922Y221515D01*
X228822Y221528D01*
X228722Y221538D01*
X228622Y221544D01*
X228521Y221546D01*
X228521Y221547D02*
X227223Y221547D01*
X227223Y216354D01*
X223328Y226707D02*
X231117Y226707D01*
X231117Y230602D01*
X229819Y230602D01*
D10*
X1006700Y225100D02*
X1006700Y433100D01*
X1162700Y433100D01*
X1162700Y225100D01*
X1006700Y225100D01*
X1136700Y245100D02*
X1136703Y245345D01*
X1136712Y245591D01*
X1136727Y245836D01*
X1136748Y246080D01*
X1136775Y246324D01*
X1136808Y246567D01*
X1136847Y246810D01*
X1136892Y247051D01*
X1136943Y247291D01*
X1137000Y247530D01*
X1137062Y247767D01*
X1137131Y248003D01*
X1137205Y248237D01*
X1137285Y248469D01*
X1137370Y248699D01*
X1137461Y248927D01*
X1137558Y249152D01*
X1137660Y249376D01*
X1137768Y249596D01*
X1137881Y249814D01*
X1137999Y250029D01*
X1138123Y250241D01*
X1138251Y250450D01*
X1138385Y250656D01*
X1138524Y250858D01*
X1138668Y251057D01*
X1138817Y251252D01*
X1138970Y251444D01*
X1139128Y251632D01*
X1139290Y251816D01*
X1139458Y251995D01*
X1139629Y252171D01*
X1139805Y252342D01*
X1139984Y252510D01*
X1140168Y252672D01*
X1140356Y252830D01*
X1140548Y252983D01*
X1140743Y253132D01*
X1140942Y253276D01*
X1141144Y253415D01*
X1141350Y253549D01*
X1141559Y253677D01*
X1141771Y253801D01*
X1141986Y253919D01*
X1142204Y254032D01*
X1142424Y254140D01*
X1142648Y254242D01*
X1142873Y254339D01*
X1143101Y254430D01*
X1143331Y254515D01*
X1143563Y254595D01*
X1143797Y254669D01*
X1144033Y254738D01*
X1144270Y254800D01*
X1144509Y254857D01*
X1144749Y254908D01*
X1144990Y254953D01*
X1145233Y254992D01*
X1145476Y255025D01*
X1145720Y255052D01*
X1145964Y255073D01*
X1146209Y255088D01*
X1146455Y255097D01*
X1146700Y255100D01*
X1146945Y255097D01*
X1147191Y255088D01*
X1147436Y255073D01*
X1147680Y255052D01*
X1147924Y255025D01*
X1148167Y254992D01*
X1148410Y254953D01*
X1148651Y254908D01*
X1148891Y254857D01*
X1149130Y254800D01*
X1149367Y254738D01*
X1149603Y254669D01*
X1149837Y254595D01*
X1150069Y254515D01*
X1150299Y254430D01*
X1150527Y254339D01*
X1150752Y254242D01*
X1150976Y254140D01*
X1151196Y254032D01*
X1151414Y253919D01*
X1151629Y253801D01*
X1151841Y253677D01*
X1152050Y253549D01*
X1152256Y253415D01*
X1152458Y253276D01*
X1152657Y253132D01*
X1152852Y252983D01*
X1153044Y252830D01*
X1153232Y252672D01*
X1153416Y252510D01*
X1153595Y252342D01*
X1153771Y252171D01*
X1153942Y251995D01*
X1154110Y251816D01*
X1154272Y251632D01*
X1154430Y251444D01*
X1154583Y251252D01*
X1154732Y251057D01*
X1154876Y250858D01*
X1155015Y250656D01*
X1155149Y250450D01*
X1155277Y250241D01*
X1155401Y250029D01*
X1155519Y249814D01*
X1155632Y249596D01*
X1155740Y249376D01*
X1155842Y249152D01*
X1155939Y248927D01*
X1156030Y248699D01*
X1156115Y248469D01*
X1156195Y248237D01*
X1156269Y248003D01*
X1156338Y247767D01*
X1156400Y247530D01*
X1156457Y247291D01*
X1156508Y247051D01*
X1156553Y246810D01*
X1156592Y246567D01*
X1156625Y246324D01*
X1156652Y246080D01*
X1156673Y245836D01*
X1156688Y245591D01*
X1156697Y245345D01*
X1156700Y245100D01*
X1156697Y244855D01*
X1156688Y244609D01*
X1156673Y244364D01*
X1156652Y244120D01*
X1156625Y243876D01*
X1156592Y243633D01*
X1156553Y243390D01*
X1156508Y243149D01*
X1156457Y242909D01*
X1156400Y242670D01*
X1156338Y242433D01*
X1156269Y242197D01*
X1156195Y241963D01*
X1156115Y241731D01*
X1156030Y241501D01*
X1155939Y241273D01*
X1155842Y241048D01*
X1155740Y240824D01*
X1155632Y240604D01*
X1155519Y240386D01*
X1155401Y240171D01*
X1155277Y239959D01*
X1155149Y239750D01*
X1155015Y239544D01*
X1154876Y239342D01*
X1154732Y239143D01*
X1154583Y238948D01*
X1154430Y238756D01*
X1154272Y238568D01*
X1154110Y238384D01*
X1153942Y238205D01*
X1153771Y238029D01*
X1153595Y237858D01*
X1153416Y237690D01*
X1153232Y237528D01*
X1153044Y237370D01*
X1152852Y237217D01*
X1152657Y237068D01*
X1152458Y236924D01*
X1152256Y236785D01*
X1152050Y236651D01*
X1151841Y236523D01*
X1151629Y236399D01*
X1151414Y236281D01*
X1151196Y236168D01*
X1150976Y236060D01*
X1150752Y235958D01*
X1150527Y235861D01*
X1150299Y235770D01*
X1150069Y235685D01*
X1149837Y235605D01*
X1149603Y235531D01*
X1149367Y235462D01*
X1149130Y235400D01*
X1148891Y235343D01*
X1148651Y235292D01*
X1148410Y235247D01*
X1148167Y235208D01*
X1147924Y235175D01*
X1147680Y235148D01*
X1147436Y235127D01*
X1147191Y235112D01*
X1146945Y235103D01*
X1146700Y235100D01*
X1146455Y235103D01*
X1146209Y235112D01*
X1145964Y235127D01*
X1145720Y235148D01*
X1145476Y235175D01*
X1145233Y235208D01*
X1144990Y235247D01*
X1144749Y235292D01*
X1144509Y235343D01*
X1144270Y235400D01*
X1144033Y235462D01*
X1143797Y235531D01*
X1143563Y235605D01*
X1143331Y235685D01*
X1143101Y235770D01*
X1142873Y235861D01*
X1142648Y235958D01*
X1142424Y236060D01*
X1142204Y236168D01*
X1141986Y236281D01*
X1141771Y236399D01*
X1141559Y236523D01*
X1141350Y236651D01*
X1141144Y236785D01*
X1140942Y236924D01*
X1140743Y237068D01*
X1140548Y237217D01*
X1140356Y237370D01*
X1140168Y237528D01*
X1139984Y237690D01*
X1139805Y237858D01*
X1139629Y238029D01*
X1139458Y238205D01*
X1139290Y238384D01*
X1139128Y238568D01*
X1138970Y238756D01*
X1138817Y238948D01*
X1138668Y239143D01*
X1138524Y239342D01*
X1138385Y239544D01*
X1138251Y239750D01*
X1138123Y239959D01*
X1137999Y240171D01*
X1137881Y240386D01*
X1137768Y240604D01*
X1137660Y240824D01*
X1137558Y241048D01*
X1137461Y241273D01*
X1137370Y241501D01*
X1137285Y241731D01*
X1137205Y241963D01*
X1137131Y242197D01*
X1137062Y242433D01*
X1137000Y242670D01*
X1136943Y242909D01*
X1136892Y243149D01*
X1136847Y243390D01*
X1136808Y243633D01*
X1136775Y243876D01*
X1136748Y244120D01*
X1136727Y244364D01*
X1136712Y244609D01*
X1136703Y244855D01*
X1136700Y245100D01*
X1136700Y415100D02*
X1136703Y415345D01*
X1136712Y415591D01*
X1136727Y415836D01*
X1136748Y416080D01*
X1136775Y416324D01*
X1136808Y416567D01*
X1136847Y416810D01*
X1136892Y417051D01*
X1136943Y417291D01*
X1137000Y417530D01*
X1137062Y417767D01*
X1137131Y418003D01*
X1137205Y418237D01*
X1137285Y418469D01*
X1137370Y418699D01*
X1137461Y418927D01*
X1137558Y419152D01*
X1137660Y419376D01*
X1137768Y419596D01*
X1137881Y419814D01*
X1137999Y420029D01*
X1138123Y420241D01*
X1138251Y420450D01*
X1138385Y420656D01*
X1138524Y420858D01*
X1138668Y421057D01*
X1138817Y421252D01*
X1138970Y421444D01*
X1139128Y421632D01*
X1139290Y421816D01*
X1139458Y421995D01*
X1139629Y422171D01*
X1139805Y422342D01*
X1139984Y422510D01*
X1140168Y422672D01*
X1140356Y422830D01*
X1140548Y422983D01*
X1140743Y423132D01*
X1140942Y423276D01*
X1141144Y423415D01*
X1141350Y423549D01*
X1141559Y423677D01*
X1141771Y423801D01*
X1141986Y423919D01*
X1142204Y424032D01*
X1142424Y424140D01*
X1142648Y424242D01*
X1142873Y424339D01*
X1143101Y424430D01*
X1143331Y424515D01*
X1143563Y424595D01*
X1143797Y424669D01*
X1144033Y424738D01*
X1144270Y424800D01*
X1144509Y424857D01*
X1144749Y424908D01*
X1144990Y424953D01*
X1145233Y424992D01*
X1145476Y425025D01*
X1145720Y425052D01*
X1145964Y425073D01*
X1146209Y425088D01*
X1146455Y425097D01*
X1146700Y425100D01*
X1146945Y425097D01*
X1147191Y425088D01*
X1147436Y425073D01*
X1147680Y425052D01*
X1147924Y425025D01*
X1148167Y424992D01*
X1148410Y424953D01*
X1148651Y424908D01*
X1148891Y424857D01*
X1149130Y424800D01*
X1149367Y424738D01*
X1149603Y424669D01*
X1149837Y424595D01*
X1150069Y424515D01*
X1150299Y424430D01*
X1150527Y424339D01*
X1150752Y424242D01*
X1150976Y424140D01*
X1151196Y424032D01*
X1151414Y423919D01*
X1151629Y423801D01*
X1151841Y423677D01*
X1152050Y423549D01*
X1152256Y423415D01*
X1152458Y423276D01*
X1152657Y423132D01*
X1152852Y422983D01*
X1153044Y422830D01*
X1153232Y422672D01*
X1153416Y422510D01*
X1153595Y422342D01*
X1153771Y422171D01*
X1153942Y421995D01*
X1154110Y421816D01*
X1154272Y421632D01*
X1154430Y421444D01*
X1154583Y421252D01*
X1154732Y421057D01*
X1154876Y420858D01*
X1155015Y420656D01*
X1155149Y420450D01*
X1155277Y420241D01*
X1155401Y420029D01*
X1155519Y419814D01*
X1155632Y419596D01*
X1155740Y419376D01*
X1155842Y419152D01*
X1155939Y418927D01*
X1156030Y418699D01*
X1156115Y418469D01*
X1156195Y418237D01*
X1156269Y418003D01*
X1156338Y417767D01*
X1156400Y417530D01*
X1156457Y417291D01*
X1156508Y417051D01*
X1156553Y416810D01*
X1156592Y416567D01*
X1156625Y416324D01*
X1156652Y416080D01*
X1156673Y415836D01*
X1156688Y415591D01*
X1156697Y415345D01*
X1156700Y415100D01*
X1156697Y414855D01*
X1156688Y414609D01*
X1156673Y414364D01*
X1156652Y414120D01*
X1156625Y413876D01*
X1156592Y413633D01*
X1156553Y413390D01*
X1156508Y413149D01*
X1156457Y412909D01*
X1156400Y412670D01*
X1156338Y412433D01*
X1156269Y412197D01*
X1156195Y411963D01*
X1156115Y411731D01*
X1156030Y411501D01*
X1155939Y411273D01*
X1155842Y411048D01*
X1155740Y410824D01*
X1155632Y410604D01*
X1155519Y410386D01*
X1155401Y410171D01*
X1155277Y409959D01*
X1155149Y409750D01*
X1155015Y409544D01*
X1154876Y409342D01*
X1154732Y409143D01*
X1154583Y408948D01*
X1154430Y408756D01*
X1154272Y408568D01*
X1154110Y408384D01*
X1153942Y408205D01*
X1153771Y408029D01*
X1153595Y407858D01*
X1153416Y407690D01*
X1153232Y407528D01*
X1153044Y407370D01*
X1152852Y407217D01*
X1152657Y407068D01*
X1152458Y406924D01*
X1152256Y406785D01*
X1152050Y406651D01*
X1151841Y406523D01*
X1151629Y406399D01*
X1151414Y406281D01*
X1151196Y406168D01*
X1150976Y406060D01*
X1150752Y405958D01*
X1150527Y405861D01*
X1150299Y405770D01*
X1150069Y405685D01*
X1149837Y405605D01*
X1149603Y405531D01*
X1149367Y405462D01*
X1149130Y405400D01*
X1148891Y405343D01*
X1148651Y405292D01*
X1148410Y405247D01*
X1148167Y405208D01*
X1147924Y405175D01*
X1147680Y405148D01*
X1147436Y405127D01*
X1147191Y405112D01*
X1146945Y405103D01*
X1146700Y405100D01*
X1146455Y405103D01*
X1146209Y405112D01*
X1145964Y405127D01*
X1145720Y405148D01*
X1145476Y405175D01*
X1145233Y405208D01*
X1144990Y405247D01*
X1144749Y405292D01*
X1144509Y405343D01*
X1144270Y405400D01*
X1144033Y405462D01*
X1143797Y405531D01*
X1143563Y405605D01*
X1143331Y405685D01*
X1143101Y405770D01*
X1142873Y405861D01*
X1142648Y405958D01*
X1142424Y406060D01*
X1142204Y406168D01*
X1141986Y406281D01*
X1141771Y406399D01*
X1141559Y406523D01*
X1141350Y406651D01*
X1141144Y406785D01*
X1140942Y406924D01*
X1140743Y407068D01*
X1140548Y407217D01*
X1140356Y407370D01*
X1140168Y407528D01*
X1139984Y407690D01*
X1139805Y407858D01*
X1139629Y408029D01*
X1139458Y408205D01*
X1139290Y408384D01*
X1139128Y408568D01*
X1138970Y408756D01*
X1138817Y408948D01*
X1138668Y409143D01*
X1138524Y409342D01*
X1138385Y409544D01*
X1138251Y409750D01*
X1138123Y409959D01*
X1137999Y410171D01*
X1137881Y410386D01*
X1137768Y410604D01*
X1137660Y410824D01*
X1137558Y411048D01*
X1137461Y411273D01*
X1137370Y411501D01*
X1137285Y411731D01*
X1137205Y411963D01*
X1137131Y412197D01*
X1137062Y412433D01*
X1137000Y412670D01*
X1136943Y412909D01*
X1136892Y413149D01*
X1136847Y413390D01*
X1136808Y413633D01*
X1136775Y413876D01*
X1136748Y414120D01*
X1136727Y414364D01*
X1136712Y414609D01*
X1136703Y414855D01*
X1136700Y415100D01*
D11*
X1093892Y290608D02*
X1082208Y290608D01*
X1087401Y294503D02*
X1093892Y290608D01*
X1087401Y294503D02*
X1093892Y298397D01*
X1082208Y298397D01*
X1082208Y304380D02*
X1093892Y304380D01*
X1093892Y307626D01*
X1093890Y307739D01*
X1093884Y307852D01*
X1093874Y307965D01*
X1093860Y308078D01*
X1093843Y308190D01*
X1093821Y308301D01*
X1093796Y308411D01*
X1093766Y308521D01*
X1093733Y308629D01*
X1093696Y308736D01*
X1093656Y308842D01*
X1093611Y308946D01*
X1093563Y309049D01*
X1093512Y309150D01*
X1093457Y309249D01*
X1093399Y309346D01*
X1093337Y309441D01*
X1093272Y309534D01*
X1093204Y309624D01*
X1093133Y309712D01*
X1093058Y309798D01*
X1092981Y309881D01*
X1092901Y309961D01*
X1092818Y310038D01*
X1092732Y310113D01*
X1092644Y310184D01*
X1092554Y310252D01*
X1092461Y310317D01*
X1092366Y310379D01*
X1092269Y310437D01*
X1092170Y310492D01*
X1092069Y310543D01*
X1091966Y310591D01*
X1091862Y310636D01*
X1091756Y310676D01*
X1091649Y310713D01*
X1091541Y310746D01*
X1091431Y310776D01*
X1091321Y310801D01*
X1091210Y310823D01*
X1091098Y310840D01*
X1090985Y310854D01*
X1090872Y310864D01*
X1090759Y310870D01*
X1090646Y310872D01*
X1090533Y310870D01*
X1090420Y310864D01*
X1090307Y310854D01*
X1090194Y310840D01*
X1090082Y310823D01*
X1089971Y310801D01*
X1089861Y310776D01*
X1089751Y310746D01*
X1089643Y310713D01*
X1089536Y310676D01*
X1089430Y310636D01*
X1089326Y310591D01*
X1089223Y310543D01*
X1089122Y310492D01*
X1089023Y310437D01*
X1088926Y310379D01*
X1088831Y310317D01*
X1088738Y310252D01*
X1088648Y310184D01*
X1088560Y310113D01*
X1088474Y310038D01*
X1088391Y309961D01*
X1088311Y309881D01*
X1088234Y309798D01*
X1088159Y309712D01*
X1088088Y309624D01*
X1088020Y309534D01*
X1087955Y309441D01*
X1087893Y309346D01*
X1087835Y309249D01*
X1087780Y309150D01*
X1087729Y309049D01*
X1087681Y308946D01*
X1087636Y308842D01*
X1087596Y308736D01*
X1087559Y308629D01*
X1087526Y308521D01*
X1087496Y308411D01*
X1087471Y308301D01*
X1087449Y308190D01*
X1087432Y308078D01*
X1087418Y307965D01*
X1087408Y307852D01*
X1087402Y307739D01*
X1087400Y307626D01*
X1087401Y307626D02*
X1087401Y304380D01*
X1085454Y315641D02*
X1093892Y315641D01*
X1085454Y315641D02*
X1085341Y315643D01*
X1085228Y315649D01*
X1085115Y315659D01*
X1085002Y315673D01*
X1084890Y315690D01*
X1084779Y315712D01*
X1084669Y315737D01*
X1084559Y315767D01*
X1084451Y315800D01*
X1084344Y315837D01*
X1084238Y315877D01*
X1084134Y315922D01*
X1084031Y315970D01*
X1083930Y316021D01*
X1083831Y316076D01*
X1083734Y316134D01*
X1083639Y316196D01*
X1083546Y316261D01*
X1083456Y316329D01*
X1083368Y316400D01*
X1083282Y316475D01*
X1083199Y316552D01*
X1083119Y316632D01*
X1083042Y316715D01*
X1082967Y316801D01*
X1082896Y316889D01*
X1082828Y316979D01*
X1082763Y317072D01*
X1082701Y317167D01*
X1082643Y317264D01*
X1082588Y317363D01*
X1082537Y317464D01*
X1082489Y317567D01*
X1082444Y317671D01*
X1082404Y317777D01*
X1082367Y317884D01*
X1082334Y317992D01*
X1082304Y318102D01*
X1082279Y318212D01*
X1082257Y318323D01*
X1082240Y318435D01*
X1082226Y318548D01*
X1082216Y318661D01*
X1082210Y318774D01*
X1082208Y318887D01*
X1082210Y319000D01*
X1082216Y319113D01*
X1082226Y319226D01*
X1082240Y319339D01*
X1082257Y319451D01*
X1082279Y319562D01*
X1082304Y319672D01*
X1082334Y319782D01*
X1082367Y319890D01*
X1082404Y319997D01*
X1082444Y320103D01*
X1082489Y320207D01*
X1082537Y320310D01*
X1082588Y320411D01*
X1082643Y320510D01*
X1082701Y320607D01*
X1082763Y320702D01*
X1082828Y320795D01*
X1082896Y320885D01*
X1082967Y320973D01*
X1083042Y321059D01*
X1083119Y321142D01*
X1083199Y321222D01*
X1083282Y321299D01*
X1083368Y321374D01*
X1083456Y321445D01*
X1083546Y321513D01*
X1083639Y321578D01*
X1083734Y321640D01*
X1083831Y321698D01*
X1083930Y321753D01*
X1084031Y321804D01*
X1084134Y321852D01*
X1084238Y321897D01*
X1084344Y321937D01*
X1084451Y321974D01*
X1084559Y322007D01*
X1084669Y322037D01*
X1084779Y322062D01*
X1084890Y322084D01*
X1085002Y322101D01*
X1085115Y322115D01*
X1085228Y322125D01*
X1085341Y322131D01*
X1085454Y322133D01*
X1085454Y322132D02*
X1093892Y322132D01*
X1088699Y327452D02*
X1088699Y331347D01*
X1088697Y331446D01*
X1088691Y331546D01*
X1088682Y331645D01*
X1088669Y331743D01*
X1088652Y331841D01*
X1088631Y331939D01*
X1088606Y332035D01*
X1088578Y332130D01*
X1088546Y332224D01*
X1088511Y332317D01*
X1088472Y332409D01*
X1088429Y332499D01*
X1088384Y332587D01*
X1088334Y332674D01*
X1088282Y332758D01*
X1088226Y332841D01*
X1088168Y332921D01*
X1088106Y332999D01*
X1088041Y333074D01*
X1087973Y333147D01*
X1087903Y333217D01*
X1087830Y333285D01*
X1087755Y333350D01*
X1087677Y333412D01*
X1087597Y333470D01*
X1087514Y333526D01*
X1087430Y333578D01*
X1087343Y333628D01*
X1087255Y333673D01*
X1087165Y333716D01*
X1087073Y333755D01*
X1086980Y333790D01*
X1086886Y333822D01*
X1086791Y333850D01*
X1086695Y333875D01*
X1086597Y333896D01*
X1086499Y333913D01*
X1086401Y333926D01*
X1086302Y333935D01*
X1086202Y333941D01*
X1086103Y333943D01*
X1085454Y333943D01*
X1085454Y333944D02*
X1085341Y333942D01*
X1085228Y333936D01*
X1085115Y333926D01*
X1085002Y333912D01*
X1084890Y333895D01*
X1084779Y333873D01*
X1084669Y333848D01*
X1084559Y333818D01*
X1084451Y333785D01*
X1084344Y333748D01*
X1084238Y333708D01*
X1084134Y333663D01*
X1084031Y333615D01*
X1083930Y333564D01*
X1083831Y333509D01*
X1083734Y333451D01*
X1083639Y333389D01*
X1083546Y333324D01*
X1083456Y333256D01*
X1083368Y333185D01*
X1083282Y333110D01*
X1083199Y333033D01*
X1083119Y332953D01*
X1083042Y332870D01*
X1082967Y332784D01*
X1082896Y332696D01*
X1082828Y332606D01*
X1082763Y332513D01*
X1082701Y332418D01*
X1082643Y332321D01*
X1082588Y332222D01*
X1082537Y332121D01*
X1082489Y332018D01*
X1082444Y331914D01*
X1082404Y331808D01*
X1082367Y331701D01*
X1082334Y331593D01*
X1082304Y331483D01*
X1082279Y331373D01*
X1082257Y331262D01*
X1082240Y331150D01*
X1082226Y331037D01*
X1082216Y330924D01*
X1082210Y330811D01*
X1082208Y330698D01*
X1082210Y330585D01*
X1082216Y330472D01*
X1082226Y330359D01*
X1082240Y330246D01*
X1082257Y330134D01*
X1082279Y330023D01*
X1082304Y329913D01*
X1082334Y329803D01*
X1082367Y329695D01*
X1082404Y329588D01*
X1082444Y329482D01*
X1082489Y329378D01*
X1082537Y329275D01*
X1082588Y329174D01*
X1082643Y329075D01*
X1082701Y328978D01*
X1082763Y328883D01*
X1082828Y328790D01*
X1082896Y328700D01*
X1082967Y328612D01*
X1083042Y328526D01*
X1083119Y328443D01*
X1083199Y328363D01*
X1083282Y328286D01*
X1083368Y328211D01*
X1083456Y328140D01*
X1083546Y328072D01*
X1083639Y328007D01*
X1083734Y327945D01*
X1083831Y327887D01*
X1083930Y327832D01*
X1084031Y327781D01*
X1084134Y327733D01*
X1084238Y327688D01*
X1084344Y327648D01*
X1084451Y327611D01*
X1084559Y327578D01*
X1084669Y327548D01*
X1084779Y327523D01*
X1084890Y327501D01*
X1085002Y327484D01*
X1085115Y327470D01*
X1085228Y327460D01*
X1085341Y327454D01*
X1085454Y327452D01*
X1088699Y327452D01*
X1088842Y327454D01*
X1088985Y327460D01*
X1089128Y327470D01*
X1089270Y327484D01*
X1089412Y327501D01*
X1089554Y327523D01*
X1089695Y327548D01*
X1089835Y327578D01*
X1089974Y327611D01*
X1090112Y327648D01*
X1090249Y327689D01*
X1090385Y327733D01*
X1090520Y327782D01*
X1090653Y327834D01*
X1090785Y327889D01*
X1090915Y327949D01*
X1091044Y328012D01*
X1091171Y328078D01*
X1091295Y328148D01*
X1091418Y328221D01*
X1091539Y328298D01*
X1091658Y328378D01*
X1091774Y328461D01*
X1091889Y328547D01*
X1092000Y328636D01*
X1092110Y328729D01*
X1092216Y328824D01*
X1092320Y328923D01*
X1092421Y329024D01*
X1092520Y329128D01*
X1092615Y329234D01*
X1092708Y329344D01*
X1092797Y329455D01*
X1092883Y329570D01*
X1092966Y329686D01*
X1093046Y329805D01*
X1093123Y329926D01*
X1093196Y330048D01*
X1093266Y330173D01*
X1093332Y330300D01*
X1093395Y330429D01*
X1093455Y330559D01*
X1093510Y330691D01*
X1093562Y330824D01*
X1093611Y330959D01*
X1093655Y331095D01*
X1093696Y331232D01*
X1093733Y331370D01*
X1093766Y331509D01*
X1093796Y331649D01*
X1093821Y331790D01*
X1093843Y331932D01*
X1093860Y332074D01*
X1093874Y332216D01*
X1093884Y332359D01*
X1093890Y332502D01*
X1093892Y332645D01*
X1092269Y339856D02*
X1092061Y339757D01*
X1091851Y339664D01*
X1091639Y339576D01*
X1091425Y339493D01*
X1091208Y339415D01*
X1090990Y339342D01*
X1090771Y339274D01*
X1090549Y339212D01*
X1090327Y339155D01*
X1090103Y339103D01*
X1089878Y339057D01*
X1089652Y339016D01*
X1089424Y338981D01*
X1089197Y338951D01*
X1088968Y338926D01*
X1088739Y338907D01*
X1088510Y338893D01*
X1088280Y338885D01*
X1088050Y338882D01*
X1092269Y339856D02*
X1092359Y339889D01*
X1092448Y339925D01*
X1092536Y339965D01*
X1092621Y340009D01*
X1092705Y340056D01*
X1092787Y340106D01*
X1092867Y340160D01*
X1092944Y340216D01*
X1093020Y340276D01*
X1093093Y340339D01*
X1093163Y340404D01*
X1093231Y340473D01*
X1093295Y340544D01*
X1093357Y340617D01*
X1093416Y340693D01*
X1093472Y340771D01*
X1093525Y340852D01*
X1093574Y340934D01*
X1093620Y341018D01*
X1093663Y341105D01*
X1093702Y341192D01*
X1093738Y341282D01*
X1093770Y341372D01*
X1093798Y341464D01*
X1093823Y341557D01*
X1093844Y341651D01*
X1093861Y341745D01*
X1093875Y341840D01*
X1093884Y341936D01*
X1093890Y342032D01*
X1093892Y342128D01*
X1093890Y342224D01*
X1093884Y342320D01*
X1093875Y342416D01*
X1093861Y342511D01*
X1093844Y342605D01*
X1093823Y342699D01*
X1093798Y342792D01*
X1093770Y342884D01*
X1093738Y342974D01*
X1093702Y343064D01*
X1093663Y343151D01*
X1093620Y343238D01*
X1093574Y343322D01*
X1093525Y343404D01*
X1093472Y343485D01*
X1093416Y343563D01*
X1093357Y343639D01*
X1093295Y343712D01*
X1093231Y343783D01*
X1093163Y343852D01*
X1093093Y343917D01*
X1093020Y343980D01*
X1092944Y344040D01*
X1092867Y344096D01*
X1092787Y344150D01*
X1092705Y344200D01*
X1092621Y344247D01*
X1092536Y344291D01*
X1092448Y344331D01*
X1092359Y344367D01*
X1092269Y344400D01*
X1092062Y344499D01*
X1091852Y344592D01*
X1091639Y344680D01*
X1091425Y344763D01*
X1091209Y344841D01*
X1090991Y344914D01*
X1090771Y344982D01*
X1090550Y345044D01*
X1090327Y345101D01*
X1090103Y345153D01*
X1089878Y345199D01*
X1089652Y345240D01*
X1089425Y345275D01*
X1089197Y345305D01*
X1088968Y345330D01*
X1088739Y345349D01*
X1088510Y345363D01*
X1088280Y345371D01*
X1088050Y345374D01*
X1088050Y338882D02*
X1087820Y338885D01*
X1087590Y338893D01*
X1087361Y338907D01*
X1087132Y338926D01*
X1086903Y338951D01*
X1086675Y338981D01*
X1086448Y339016D01*
X1086222Y339057D01*
X1085997Y339103D01*
X1085773Y339155D01*
X1085550Y339212D01*
X1085329Y339274D01*
X1085109Y339342D01*
X1084891Y339415D01*
X1084675Y339493D01*
X1084461Y339576D01*
X1084249Y339664D01*
X1084038Y339757D01*
X1083831Y339856D01*
X1083741Y339889D01*
X1083652Y339925D01*
X1083564Y339966D01*
X1083479Y340009D01*
X1083395Y340056D01*
X1083313Y340106D01*
X1083233Y340160D01*
X1083156Y340216D01*
X1083080Y340276D01*
X1083007Y340339D01*
X1082937Y340404D01*
X1082869Y340473D01*
X1082805Y340544D01*
X1082743Y340617D01*
X1082684Y340693D01*
X1082628Y340771D01*
X1082575Y340852D01*
X1082526Y340934D01*
X1082480Y341018D01*
X1082437Y341105D01*
X1082398Y341192D01*
X1082362Y341282D01*
X1082330Y341372D01*
X1082302Y341464D01*
X1082277Y341557D01*
X1082256Y341651D01*
X1082239Y341745D01*
X1082225Y341840D01*
X1082216Y341936D01*
X1082210Y342032D01*
X1082208Y342128D01*
X1083831Y344399D02*
X1084038Y344498D01*
X1084249Y344591D01*
X1084461Y344679D01*
X1084675Y344762D01*
X1084891Y344840D01*
X1085109Y344913D01*
X1085329Y344981D01*
X1085550Y345043D01*
X1085773Y345100D01*
X1085997Y345152D01*
X1086222Y345198D01*
X1086448Y345239D01*
X1086675Y345274D01*
X1086903Y345304D01*
X1087132Y345329D01*
X1087361Y345348D01*
X1087590Y345362D01*
X1087820Y345370D01*
X1088050Y345373D01*
X1083831Y344400D02*
X1083741Y344367D01*
X1083652Y344331D01*
X1083564Y344291D01*
X1083479Y344247D01*
X1083395Y344200D01*
X1083313Y344150D01*
X1083233Y344096D01*
X1083156Y344040D01*
X1083080Y343980D01*
X1083007Y343917D01*
X1082937Y343852D01*
X1082869Y343783D01*
X1082805Y343712D01*
X1082743Y343639D01*
X1082684Y343563D01*
X1082628Y343485D01*
X1082575Y343404D01*
X1082526Y343322D01*
X1082480Y343238D01*
X1082437Y343151D01*
X1082398Y343064D01*
X1082362Y342974D01*
X1082330Y342884D01*
X1082302Y342792D01*
X1082277Y342699D01*
X1082256Y342605D01*
X1082239Y342511D01*
X1082225Y342416D01*
X1082216Y342320D01*
X1082210Y342224D01*
X1082208Y342128D01*
X1084804Y339531D02*
X1091296Y344724D01*
X1082208Y350312D02*
X1082208Y354207D01*
X1082210Y354306D01*
X1082216Y354406D01*
X1082225Y354505D01*
X1082238Y354603D01*
X1082255Y354701D01*
X1082276Y354799D01*
X1082301Y354895D01*
X1082329Y354990D01*
X1082361Y355084D01*
X1082396Y355177D01*
X1082435Y355269D01*
X1082478Y355359D01*
X1082523Y355447D01*
X1082573Y355534D01*
X1082625Y355618D01*
X1082681Y355701D01*
X1082739Y355781D01*
X1082801Y355859D01*
X1082866Y355934D01*
X1082934Y356007D01*
X1083004Y356077D01*
X1083077Y356145D01*
X1083152Y356210D01*
X1083230Y356272D01*
X1083310Y356330D01*
X1083393Y356386D01*
X1083477Y356438D01*
X1083564Y356488D01*
X1083652Y356533D01*
X1083742Y356576D01*
X1083834Y356615D01*
X1083927Y356650D01*
X1084021Y356682D01*
X1084116Y356710D01*
X1084212Y356735D01*
X1084310Y356756D01*
X1084408Y356773D01*
X1084506Y356786D01*
X1084605Y356795D01*
X1084705Y356801D01*
X1084804Y356803D01*
X1086103Y356803D01*
X1086202Y356801D01*
X1086302Y356795D01*
X1086401Y356786D01*
X1086499Y356773D01*
X1086597Y356756D01*
X1086695Y356735D01*
X1086791Y356710D01*
X1086886Y356682D01*
X1086980Y356650D01*
X1087073Y356615D01*
X1087165Y356576D01*
X1087255Y356533D01*
X1087343Y356488D01*
X1087430Y356438D01*
X1087514Y356386D01*
X1087597Y356330D01*
X1087677Y356272D01*
X1087755Y356210D01*
X1087830Y356145D01*
X1087903Y356077D01*
X1087973Y356007D01*
X1088041Y355934D01*
X1088106Y355859D01*
X1088168Y355781D01*
X1088226Y355701D01*
X1088282Y355618D01*
X1088334Y355534D01*
X1088384Y355447D01*
X1088429Y355359D01*
X1088472Y355269D01*
X1088511Y355177D01*
X1088546Y355084D01*
X1088578Y354990D01*
X1088606Y354895D01*
X1088631Y354799D01*
X1088652Y354701D01*
X1088669Y354603D01*
X1088682Y354505D01*
X1088691Y354406D01*
X1088697Y354306D01*
X1088699Y354207D01*
X1088699Y350312D01*
X1093892Y350312D01*
X1093892Y356803D01*
X1092269Y362716D02*
X1092061Y362617D01*
X1091851Y362524D01*
X1091639Y362436D01*
X1091425Y362353D01*
X1091208Y362275D01*
X1090990Y362202D01*
X1090771Y362134D01*
X1090549Y362072D01*
X1090327Y362015D01*
X1090103Y361963D01*
X1089878Y361917D01*
X1089652Y361876D01*
X1089424Y361841D01*
X1089197Y361811D01*
X1088968Y361786D01*
X1088739Y361767D01*
X1088510Y361753D01*
X1088280Y361745D01*
X1088050Y361742D01*
X1092269Y362715D02*
X1092359Y362748D01*
X1092448Y362784D01*
X1092536Y362824D01*
X1092621Y362868D01*
X1092705Y362915D01*
X1092787Y362965D01*
X1092867Y363019D01*
X1092944Y363075D01*
X1093020Y363135D01*
X1093093Y363198D01*
X1093163Y363263D01*
X1093231Y363332D01*
X1093295Y363403D01*
X1093357Y363476D01*
X1093416Y363552D01*
X1093472Y363630D01*
X1093525Y363711D01*
X1093574Y363793D01*
X1093620Y363877D01*
X1093663Y363964D01*
X1093702Y364051D01*
X1093738Y364141D01*
X1093770Y364231D01*
X1093798Y364323D01*
X1093823Y364416D01*
X1093844Y364510D01*
X1093861Y364604D01*
X1093875Y364699D01*
X1093884Y364795D01*
X1093890Y364891D01*
X1093892Y364987D01*
X1093890Y365083D01*
X1093884Y365179D01*
X1093875Y365275D01*
X1093861Y365370D01*
X1093844Y365464D01*
X1093823Y365558D01*
X1093798Y365651D01*
X1093770Y365743D01*
X1093738Y365833D01*
X1093702Y365923D01*
X1093663Y366010D01*
X1093620Y366097D01*
X1093574Y366181D01*
X1093525Y366263D01*
X1093472Y366344D01*
X1093416Y366422D01*
X1093357Y366498D01*
X1093295Y366571D01*
X1093231Y366642D01*
X1093163Y366711D01*
X1093093Y366776D01*
X1093020Y366839D01*
X1092944Y366899D01*
X1092867Y366955D01*
X1092787Y367009D01*
X1092705Y367059D01*
X1092621Y367106D01*
X1092536Y367150D01*
X1092448Y367190D01*
X1092359Y367226D01*
X1092269Y367259D01*
X1092269Y367260D02*
X1092062Y367359D01*
X1091852Y367452D01*
X1091639Y367540D01*
X1091425Y367623D01*
X1091209Y367701D01*
X1090991Y367774D01*
X1090771Y367842D01*
X1090550Y367904D01*
X1090327Y367961D01*
X1090103Y368013D01*
X1089878Y368059D01*
X1089652Y368100D01*
X1089425Y368135D01*
X1089197Y368165D01*
X1088968Y368190D01*
X1088739Y368209D01*
X1088510Y368223D01*
X1088280Y368231D01*
X1088050Y368234D01*
X1088050Y361742D02*
X1087820Y361745D01*
X1087590Y361753D01*
X1087361Y361767D01*
X1087132Y361786D01*
X1086903Y361811D01*
X1086675Y361841D01*
X1086448Y361876D01*
X1086222Y361917D01*
X1085997Y361963D01*
X1085773Y362015D01*
X1085550Y362072D01*
X1085329Y362134D01*
X1085109Y362202D01*
X1084891Y362275D01*
X1084675Y362353D01*
X1084461Y362436D01*
X1084249Y362524D01*
X1084038Y362617D01*
X1083831Y362716D01*
X1083831Y362715D02*
X1083741Y362748D01*
X1083652Y362784D01*
X1083564Y362825D01*
X1083479Y362868D01*
X1083395Y362915D01*
X1083313Y362965D01*
X1083233Y363019D01*
X1083156Y363075D01*
X1083080Y363135D01*
X1083007Y363198D01*
X1082937Y363263D01*
X1082869Y363332D01*
X1082805Y363403D01*
X1082743Y363476D01*
X1082684Y363552D01*
X1082628Y363630D01*
X1082575Y363711D01*
X1082526Y363793D01*
X1082480Y363877D01*
X1082437Y363964D01*
X1082398Y364051D01*
X1082362Y364141D01*
X1082330Y364231D01*
X1082302Y364323D01*
X1082277Y364416D01*
X1082256Y364510D01*
X1082239Y364604D01*
X1082225Y364699D01*
X1082216Y364795D01*
X1082210Y364891D01*
X1082208Y364987D01*
X1083831Y367259D02*
X1084038Y367358D01*
X1084249Y367451D01*
X1084461Y367539D01*
X1084675Y367622D01*
X1084891Y367700D01*
X1085109Y367773D01*
X1085329Y367841D01*
X1085550Y367903D01*
X1085773Y367960D01*
X1085997Y368012D01*
X1086222Y368058D01*
X1086448Y368099D01*
X1086675Y368134D01*
X1086903Y368164D01*
X1087132Y368189D01*
X1087361Y368208D01*
X1087590Y368222D01*
X1087820Y368230D01*
X1088050Y368233D01*
X1083831Y367259D02*
X1083741Y367226D01*
X1083652Y367190D01*
X1083564Y367150D01*
X1083479Y367106D01*
X1083395Y367059D01*
X1083313Y367009D01*
X1083233Y366955D01*
X1083156Y366899D01*
X1083080Y366839D01*
X1083007Y366776D01*
X1082937Y366711D01*
X1082869Y366642D01*
X1082805Y366571D01*
X1082743Y366498D01*
X1082684Y366422D01*
X1082628Y366344D01*
X1082575Y366263D01*
X1082526Y366181D01*
X1082480Y366097D01*
X1082437Y366010D01*
X1082398Y365923D01*
X1082362Y365833D01*
X1082330Y365743D01*
X1082302Y365651D01*
X1082277Y365558D01*
X1082256Y365464D01*
X1082239Y365370D01*
X1082225Y365275D01*
X1082216Y365179D01*
X1082210Y365083D01*
X1082208Y364987D01*
X1084804Y362391D02*
X1091296Y367584D01*
D10*
X1199200Y129200D02*
X1250000Y129200D01*
X1250000Y111420D01*
X1250000Y96180D01*
X1250000Y86020D02*
X1250000Y70780D01*
X1250000Y53000D01*
X1199200Y53000D01*
X1199200Y129200D01*
X1244920Y111420D02*
X1250000Y111420D01*
X1250000Y96180D02*
X1244920Y96180D01*
X1250000Y96180D02*
X1250000Y86020D01*
X1244920Y86020D01*
X1244920Y70780D02*
X1250000Y70780D01*
X1244920Y96180D02*
X1244920Y111420D01*
X1244920Y86020D02*
X1244920Y70780D01*
D12*
X1196406Y67906D02*
X1192060Y67906D01*
X1191990Y67904D01*
X1191921Y67898D01*
X1191852Y67888D01*
X1191784Y67875D01*
X1191716Y67857D01*
X1191650Y67836D01*
X1191585Y67811D01*
X1191521Y67783D01*
X1191459Y67751D01*
X1191399Y67716D01*
X1191341Y67677D01*
X1191286Y67635D01*
X1191232Y67590D01*
X1191182Y67542D01*
X1191134Y67492D01*
X1191089Y67438D01*
X1191047Y67383D01*
X1191008Y67325D01*
X1190973Y67265D01*
X1190941Y67203D01*
X1190913Y67139D01*
X1190888Y67074D01*
X1190867Y67008D01*
X1190849Y66940D01*
X1190836Y66872D01*
X1190826Y66803D01*
X1190820Y66734D01*
X1190818Y66664D01*
X1190818Y66043D01*
X1190818Y72128D02*
X1190820Y72198D01*
X1190826Y72267D01*
X1190836Y72336D01*
X1190849Y72404D01*
X1190867Y72472D01*
X1190888Y72538D01*
X1190913Y72603D01*
X1190941Y72667D01*
X1190973Y72729D01*
X1191008Y72789D01*
X1191047Y72847D01*
X1191089Y72902D01*
X1191134Y72956D01*
X1191182Y73006D01*
X1191232Y73054D01*
X1191286Y73099D01*
X1191341Y73141D01*
X1191399Y73180D01*
X1191459Y73215D01*
X1191521Y73247D01*
X1191585Y73275D01*
X1191650Y73300D01*
X1191716Y73321D01*
X1191784Y73339D01*
X1191852Y73352D01*
X1191921Y73362D01*
X1191990Y73368D01*
X1192060Y73370D01*
X1190818Y72128D02*
X1190820Y72029D01*
X1190825Y71931D01*
X1190835Y71833D01*
X1190848Y71735D01*
X1190864Y71638D01*
X1190884Y71541D01*
X1190908Y71446D01*
X1190936Y71351D01*
X1190967Y71257D01*
X1191001Y71165D01*
X1191039Y71074D01*
X1191080Y70984D01*
X1191125Y70896D01*
X1191173Y70810D01*
X1191224Y70726D01*
X1191278Y70644D01*
X1191336Y70563D01*
X1191396Y70485D01*
X1191459Y70410D01*
X1191525Y70336D01*
X1191594Y70266D01*
X1195164Y70420D02*
X1195234Y70422D01*
X1195303Y70428D01*
X1195372Y70438D01*
X1195440Y70451D01*
X1195508Y70469D01*
X1195574Y70490D01*
X1195639Y70515D01*
X1195703Y70543D01*
X1195765Y70575D01*
X1195825Y70610D01*
X1195883Y70649D01*
X1195938Y70691D01*
X1195992Y70736D01*
X1196042Y70784D01*
X1196090Y70834D01*
X1196135Y70888D01*
X1196177Y70943D01*
X1196216Y71001D01*
X1196251Y71061D01*
X1196283Y71123D01*
X1196311Y71187D01*
X1196336Y71252D01*
X1196357Y71318D01*
X1196375Y71386D01*
X1196388Y71454D01*
X1196398Y71523D01*
X1196404Y71592D01*
X1196406Y71662D01*
X1196404Y71756D01*
X1196398Y71849D01*
X1196389Y71942D01*
X1196376Y72035D01*
X1196359Y72127D01*
X1196339Y72218D01*
X1196314Y72309D01*
X1196287Y72398D01*
X1196255Y72486D01*
X1196220Y72573D01*
X1196182Y72659D01*
X1196140Y72742D01*
X1196095Y72824D01*
X1196047Y72905D01*
X1195995Y72983D01*
X1195940Y73059D01*
X1194078Y71041D02*
X1194114Y70982D01*
X1194154Y70926D01*
X1194197Y70872D01*
X1194242Y70820D01*
X1194291Y70771D01*
X1194342Y70725D01*
X1194395Y70682D01*
X1194451Y70641D01*
X1194509Y70604D01*
X1194569Y70569D01*
X1194630Y70539D01*
X1194693Y70511D01*
X1194758Y70487D01*
X1194824Y70467D01*
X1194891Y70450D01*
X1194958Y70437D01*
X1195026Y70428D01*
X1195095Y70422D01*
X1195164Y70420D01*
X1193146Y72748D02*
X1193110Y72807D01*
X1193070Y72863D01*
X1193027Y72917D01*
X1192982Y72969D01*
X1192933Y73018D01*
X1192882Y73064D01*
X1192829Y73107D01*
X1192773Y73148D01*
X1192715Y73185D01*
X1192655Y73220D01*
X1192594Y73250D01*
X1192531Y73278D01*
X1192466Y73302D01*
X1192400Y73322D01*
X1192333Y73339D01*
X1192266Y73352D01*
X1192198Y73361D01*
X1192129Y73367D01*
X1192060Y73369D01*
X1193146Y72748D02*
X1194078Y71041D01*
X1196406Y76755D02*
X1190818Y76755D01*
X1196406Y75203D02*
X1196406Y78307D01*
X1196406Y84957D02*
X1196404Y85030D01*
X1196398Y85103D01*
X1196389Y85176D01*
X1196375Y85247D01*
X1196358Y85319D01*
X1196338Y85389D01*
X1196313Y85458D01*
X1196285Y85525D01*
X1196254Y85591D01*
X1196219Y85656D01*
X1196181Y85718D01*
X1196139Y85778D01*
X1196095Y85836D01*
X1196047Y85892D01*
X1195997Y85945D01*
X1195944Y85995D01*
X1195888Y86043D01*
X1195830Y86087D01*
X1195770Y86129D01*
X1195708Y86167D01*
X1195643Y86202D01*
X1195577Y86233D01*
X1195510Y86261D01*
X1195441Y86286D01*
X1195371Y86306D01*
X1195299Y86323D01*
X1195228Y86337D01*
X1195155Y86346D01*
X1195082Y86352D01*
X1195009Y86354D01*
X1196406Y84957D02*
X1196404Y84873D01*
X1196398Y84790D01*
X1196389Y84707D01*
X1196375Y84625D01*
X1196358Y84543D01*
X1196336Y84462D01*
X1196311Y84382D01*
X1196283Y84304D01*
X1196251Y84226D01*
X1196215Y84151D01*
X1196176Y84077D01*
X1196133Y84005D01*
X1196087Y83935D01*
X1196038Y83868D01*
X1195985Y83802D01*
X1195930Y83740D01*
X1195872Y83680D01*
X1195811Y83622D01*
X1195748Y83568D01*
X1195682Y83516D01*
X1195614Y83468D01*
X1195543Y83423D01*
X1195471Y83381D01*
X1195396Y83343D01*
X1195320Y83308D01*
X1195243Y83277D01*
X1195164Y83249D01*
X1193923Y85887D02*
X1193976Y85941D01*
X1194033Y85992D01*
X1194092Y86040D01*
X1194153Y86085D01*
X1194216Y86126D01*
X1194282Y86165D01*
X1194349Y86200D01*
X1194418Y86232D01*
X1194489Y86260D01*
X1194560Y86284D01*
X1194633Y86305D01*
X1194707Y86322D01*
X1194782Y86336D01*
X1194857Y86345D01*
X1194933Y86351D01*
X1195009Y86353D01*
X1193922Y85888D02*
X1190818Y83249D01*
X1190818Y86354D01*
X1190818Y88487D02*
X1191128Y88487D01*
X1191128Y88797D01*
X1190818Y88797D01*
X1190818Y88487D01*
X1190818Y90930D02*
X1190818Y92793D01*
X1190820Y92863D01*
X1190826Y92932D01*
X1190836Y93001D01*
X1190849Y93069D01*
X1190867Y93137D01*
X1190888Y93203D01*
X1190913Y93268D01*
X1190941Y93332D01*
X1190973Y93394D01*
X1191008Y93454D01*
X1191047Y93512D01*
X1191089Y93567D01*
X1191134Y93621D01*
X1191182Y93671D01*
X1191232Y93719D01*
X1191286Y93764D01*
X1191341Y93806D01*
X1191399Y93845D01*
X1191459Y93880D01*
X1191521Y93912D01*
X1191585Y93940D01*
X1191650Y93965D01*
X1191716Y93986D01*
X1191784Y94004D01*
X1191852Y94017D01*
X1191921Y94027D01*
X1191990Y94033D01*
X1192060Y94035D01*
X1192681Y94035D01*
X1192751Y94033D01*
X1192820Y94027D01*
X1192889Y94017D01*
X1192957Y94004D01*
X1193025Y93986D01*
X1193091Y93965D01*
X1193156Y93940D01*
X1193220Y93912D01*
X1193282Y93880D01*
X1193342Y93845D01*
X1193400Y93806D01*
X1193455Y93764D01*
X1193509Y93719D01*
X1193559Y93671D01*
X1193607Y93621D01*
X1193652Y93567D01*
X1193694Y93512D01*
X1193733Y93454D01*
X1193768Y93394D01*
X1193800Y93332D01*
X1193828Y93268D01*
X1193853Y93203D01*
X1193874Y93137D01*
X1193892Y93069D01*
X1193905Y93001D01*
X1193915Y92932D01*
X1193921Y92863D01*
X1193923Y92793D01*
X1193922Y92793D02*
X1193922Y90930D01*
X1196406Y90930D01*
X1196406Y94035D01*
X1196406Y97658D02*
X1192060Y96417D01*
X1192060Y99521D01*
X1193302Y98590D02*
X1190818Y98590D01*
X1190818Y101593D02*
X1196406Y105318D01*
X1196406Y101593D02*
X1190818Y105318D01*
X1195009Y110494D02*
X1195082Y110492D01*
X1195155Y110486D01*
X1195228Y110477D01*
X1195299Y110463D01*
X1195371Y110446D01*
X1195441Y110426D01*
X1195510Y110401D01*
X1195577Y110373D01*
X1195643Y110342D01*
X1195708Y110307D01*
X1195770Y110269D01*
X1195830Y110227D01*
X1195888Y110183D01*
X1195944Y110135D01*
X1195997Y110085D01*
X1196047Y110032D01*
X1196095Y109976D01*
X1196139Y109918D01*
X1196181Y109858D01*
X1196219Y109796D01*
X1196254Y109731D01*
X1196285Y109665D01*
X1196313Y109598D01*
X1196338Y109529D01*
X1196358Y109459D01*
X1196375Y109387D01*
X1196389Y109316D01*
X1196398Y109243D01*
X1196404Y109170D01*
X1196406Y109097D01*
X1196404Y109013D01*
X1196398Y108930D01*
X1196389Y108847D01*
X1196375Y108765D01*
X1196358Y108683D01*
X1196336Y108602D01*
X1196311Y108522D01*
X1196283Y108444D01*
X1196251Y108366D01*
X1196215Y108291D01*
X1196176Y108217D01*
X1196133Y108145D01*
X1196087Y108075D01*
X1196038Y108008D01*
X1195985Y107942D01*
X1195930Y107880D01*
X1195872Y107820D01*
X1195811Y107762D01*
X1195748Y107708D01*
X1195682Y107656D01*
X1195614Y107608D01*
X1195543Y107563D01*
X1195471Y107521D01*
X1195396Y107483D01*
X1195320Y107448D01*
X1195243Y107417D01*
X1195164Y107389D01*
X1193923Y110027D02*
X1193976Y110081D01*
X1194033Y110132D01*
X1194092Y110180D01*
X1194153Y110225D01*
X1194216Y110266D01*
X1194282Y110305D01*
X1194349Y110340D01*
X1194418Y110372D01*
X1194489Y110400D01*
X1194560Y110424D01*
X1194633Y110445D01*
X1194707Y110462D01*
X1194782Y110476D01*
X1194857Y110485D01*
X1194933Y110491D01*
X1195009Y110493D01*
X1193922Y110028D02*
X1190818Y107389D01*
X1190818Y110494D01*
X1190818Y113142D02*
X1196406Y113142D01*
X1196406Y114694D01*
X1196404Y114771D01*
X1196398Y114849D01*
X1196389Y114925D01*
X1196375Y115002D01*
X1196358Y115077D01*
X1196337Y115151D01*
X1196312Y115225D01*
X1196284Y115297D01*
X1196252Y115367D01*
X1196217Y115436D01*
X1196178Y115503D01*
X1196136Y115568D01*
X1196091Y115631D01*
X1196043Y115692D01*
X1195992Y115750D01*
X1195938Y115805D01*
X1195881Y115858D01*
X1195822Y115907D01*
X1195760Y115954D01*
X1195696Y115998D01*
X1195630Y116038D01*
X1195562Y116075D01*
X1195492Y116109D01*
X1195421Y116139D01*
X1195348Y116165D01*
X1195274Y116188D01*
X1195199Y116207D01*
X1195124Y116222D01*
X1195047Y116234D01*
X1194970Y116242D01*
X1194893Y116246D01*
X1194815Y116246D01*
X1194738Y116242D01*
X1194661Y116234D01*
X1194584Y116222D01*
X1194509Y116207D01*
X1194434Y116188D01*
X1194360Y116165D01*
X1194287Y116139D01*
X1194216Y116109D01*
X1194146Y116075D01*
X1194078Y116038D01*
X1194012Y115998D01*
X1193948Y115954D01*
X1193886Y115907D01*
X1193827Y115858D01*
X1193770Y115805D01*
X1193716Y115750D01*
X1193665Y115692D01*
X1193617Y115631D01*
X1193572Y115568D01*
X1193530Y115503D01*
X1193491Y115436D01*
X1193456Y115367D01*
X1193424Y115297D01*
X1193396Y115225D01*
X1193371Y115151D01*
X1193350Y115077D01*
X1193333Y115002D01*
X1193319Y114925D01*
X1193310Y114849D01*
X1193304Y114771D01*
X1193302Y114694D01*
X1193302Y113142D01*
D10*
X1199510Y141000D02*
X1249510Y141000D01*
X1199510Y141000D02*
X1199510Y281000D01*
X1249510Y281000D02*
X1249510Y141000D01*
X1249510Y281000D02*
X1199510Y281000D01*
D12*
X1255332Y187439D02*
X1255262Y187437D01*
X1255192Y187431D01*
X1255122Y187422D01*
X1255053Y187409D01*
X1254985Y187392D01*
X1254918Y187371D01*
X1254852Y187347D01*
X1254787Y187319D01*
X1254724Y187288D01*
X1254663Y187253D01*
X1254604Y187215D01*
X1254546Y187174D01*
X1254492Y187130D01*
X1254439Y187083D01*
X1254390Y187034D01*
X1254343Y186981D01*
X1254299Y186927D01*
X1254258Y186869D01*
X1254220Y186810D01*
X1254185Y186749D01*
X1254154Y186686D01*
X1254126Y186621D01*
X1254102Y186555D01*
X1254081Y186488D01*
X1254064Y186420D01*
X1254051Y186351D01*
X1254042Y186281D01*
X1254036Y186211D01*
X1254034Y186141D01*
X1254036Y186038D01*
X1254042Y185935D01*
X1254051Y185832D01*
X1254065Y185730D01*
X1254082Y185629D01*
X1254103Y185528D01*
X1254128Y185428D01*
X1254157Y185329D01*
X1254189Y185231D01*
X1254226Y185134D01*
X1254265Y185039D01*
X1254308Y184945D01*
X1254355Y184853D01*
X1254405Y184763D01*
X1254459Y184675D01*
X1254515Y184589D01*
X1254575Y184505D01*
X1254638Y184424D01*
X1254704Y184345D01*
X1254773Y184268D01*
X1254845Y184194D01*
X1258578Y184357D02*
X1258648Y184359D01*
X1258718Y184365D01*
X1258788Y184374D01*
X1258857Y184387D01*
X1258925Y184404D01*
X1258992Y184425D01*
X1259058Y184449D01*
X1259123Y184477D01*
X1259186Y184508D01*
X1259247Y184543D01*
X1259306Y184581D01*
X1259364Y184622D01*
X1259418Y184666D01*
X1259471Y184713D01*
X1259520Y184762D01*
X1259567Y184815D01*
X1259611Y184869D01*
X1259652Y184927D01*
X1259690Y184986D01*
X1259725Y185047D01*
X1259756Y185110D01*
X1259784Y185175D01*
X1259808Y185241D01*
X1259829Y185308D01*
X1259846Y185376D01*
X1259859Y185445D01*
X1259868Y185515D01*
X1259874Y185585D01*
X1259876Y185655D01*
X1259874Y185753D01*
X1259868Y185851D01*
X1259858Y185948D01*
X1259845Y186045D01*
X1259827Y186141D01*
X1259805Y186237D01*
X1259780Y186331D01*
X1259751Y186425D01*
X1259718Y186517D01*
X1259682Y186608D01*
X1259642Y186697D01*
X1259598Y186785D01*
X1259551Y186870D01*
X1259500Y186954D01*
X1259446Y187036D01*
X1259389Y187115D01*
X1257442Y185006D02*
X1257479Y184948D01*
X1257518Y184892D01*
X1257560Y184838D01*
X1257605Y184786D01*
X1257652Y184737D01*
X1257702Y184690D01*
X1257754Y184646D01*
X1257809Y184605D01*
X1257866Y184566D01*
X1257924Y184531D01*
X1257984Y184498D01*
X1258046Y184469D01*
X1258109Y184443D01*
X1258174Y184420D01*
X1258240Y184401D01*
X1258306Y184385D01*
X1258374Y184373D01*
X1258441Y184364D01*
X1258510Y184359D01*
X1258578Y184357D01*
X1256468Y186791D02*
X1256432Y186849D01*
X1256393Y186905D01*
X1256351Y186959D01*
X1256306Y187011D01*
X1256258Y187060D01*
X1256208Y187107D01*
X1256156Y187151D01*
X1256102Y187192D01*
X1256045Y187231D01*
X1255986Y187266D01*
X1255926Y187299D01*
X1255864Y187328D01*
X1255801Y187354D01*
X1255736Y187377D01*
X1255671Y187396D01*
X1255604Y187412D01*
X1255537Y187424D01*
X1255469Y187433D01*
X1255400Y187438D01*
X1255332Y187440D01*
X1256468Y186790D02*
X1257442Y185005D01*
X1259876Y189507D02*
X1254034Y190805D01*
X1257929Y192103D01*
X1254034Y193401D01*
X1259876Y194700D01*
X1259876Y197437D02*
X1254034Y197437D01*
X1254034Y196788D02*
X1254034Y198086D01*
X1259876Y198086D02*
X1259876Y196788D01*
X1259876Y201628D02*
X1254034Y201628D01*
X1259876Y200005D02*
X1259876Y203251D01*
X1254034Y206621D02*
X1254034Y207919D01*
X1254034Y206621D02*
X1254036Y206551D01*
X1254042Y206481D01*
X1254051Y206411D01*
X1254064Y206342D01*
X1254081Y206274D01*
X1254102Y206207D01*
X1254126Y206141D01*
X1254154Y206076D01*
X1254185Y206013D01*
X1254220Y205952D01*
X1254258Y205893D01*
X1254299Y205835D01*
X1254343Y205781D01*
X1254390Y205728D01*
X1254439Y205679D01*
X1254492Y205632D01*
X1254546Y205588D01*
X1254604Y205547D01*
X1254663Y205509D01*
X1254724Y205474D01*
X1254787Y205443D01*
X1254852Y205415D01*
X1254918Y205391D01*
X1254985Y205370D01*
X1255053Y205353D01*
X1255122Y205340D01*
X1255192Y205331D01*
X1255262Y205325D01*
X1255332Y205323D01*
X1258578Y205323D01*
X1258648Y205325D01*
X1258718Y205331D01*
X1258788Y205340D01*
X1258857Y205353D01*
X1258925Y205370D01*
X1258992Y205391D01*
X1259058Y205415D01*
X1259123Y205443D01*
X1259186Y205474D01*
X1259247Y205509D01*
X1259306Y205547D01*
X1259364Y205588D01*
X1259418Y205632D01*
X1259471Y205679D01*
X1259520Y205728D01*
X1259567Y205781D01*
X1259611Y205835D01*
X1259652Y205893D01*
X1259690Y205952D01*
X1259725Y206013D01*
X1259756Y206076D01*
X1259784Y206141D01*
X1259808Y206207D01*
X1259829Y206274D01*
X1259846Y206342D01*
X1259859Y206411D01*
X1259868Y206481D01*
X1259874Y206551D01*
X1259876Y206621D01*
X1259876Y207919D01*
X1259876Y210292D02*
X1254034Y210292D01*
X1257280Y210292D02*
X1257280Y213538D01*
X1259876Y213538D02*
X1254034Y213538D01*
X1253385Y215951D02*
X1253385Y218547D01*
X1254034Y220770D02*
X1254034Y222393D01*
X1254036Y222473D01*
X1254042Y222552D01*
X1254052Y222631D01*
X1254065Y222710D01*
X1254083Y222787D01*
X1254104Y222864D01*
X1254129Y222940D01*
X1254158Y223014D01*
X1254190Y223087D01*
X1254226Y223158D01*
X1254265Y223227D01*
X1254308Y223295D01*
X1254353Y223360D01*
X1254402Y223423D01*
X1254454Y223483D01*
X1254509Y223541D01*
X1254567Y223596D01*
X1254627Y223648D01*
X1254690Y223697D01*
X1254755Y223742D01*
X1254823Y223785D01*
X1254892Y223824D01*
X1254963Y223860D01*
X1255036Y223892D01*
X1255110Y223921D01*
X1255186Y223946D01*
X1255263Y223967D01*
X1255340Y223985D01*
X1255419Y223998D01*
X1255498Y224008D01*
X1255577Y224014D01*
X1255657Y224016D01*
X1255737Y224014D01*
X1255816Y224008D01*
X1255895Y223998D01*
X1255974Y223985D01*
X1256051Y223967D01*
X1256128Y223946D01*
X1256204Y223921D01*
X1256278Y223892D01*
X1256351Y223860D01*
X1256422Y223824D01*
X1256491Y223785D01*
X1256559Y223742D01*
X1256624Y223697D01*
X1256687Y223648D01*
X1256747Y223596D01*
X1256805Y223541D01*
X1256860Y223483D01*
X1256912Y223423D01*
X1256961Y223360D01*
X1257006Y223295D01*
X1257049Y223227D01*
X1257088Y223158D01*
X1257124Y223087D01*
X1257156Y223014D01*
X1257185Y222940D01*
X1257210Y222864D01*
X1257231Y222787D01*
X1257249Y222710D01*
X1257262Y222631D01*
X1257272Y222552D01*
X1257278Y222473D01*
X1257280Y222393D01*
X1259876Y222717D02*
X1259876Y220770D01*
X1259876Y222717D02*
X1259874Y222787D01*
X1259868Y222857D01*
X1259859Y222927D01*
X1259846Y222996D01*
X1259829Y223064D01*
X1259808Y223131D01*
X1259784Y223197D01*
X1259756Y223262D01*
X1259725Y223325D01*
X1259690Y223386D01*
X1259652Y223445D01*
X1259611Y223503D01*
X1259567Y223557D01*
X1259520Y223610D01*
X1259471Y223659D01*
X1259418Y223706D01*
X1259364Y223750D01*
X1259306Y223791D01*
X1259247Y223829D01*
X1259186Y223864D01*
X1259123Y223895D01*
X1259058Y223923D01*
X1258992Y223947D01*
X1258925Y223968D01*
X1258857Y223985D01*
X1258788Y223998D01*
X1258718Y224007D01*
X1258648Y224013D01*
X1258578Y224015D01*
X1258508Y224013D01*
X1258438Y224007D01*
X1258368Y223998D01*
X1258299Y223985D01*
X1258231Y223968D01*
X1258164Y223947D01*
X1258098Y223923D01*
X1258033Y223895D01*
X1257970Y223864D01*
X1257909Y223829D01*
X1257850Y223791D01*
X1257792Y223750D01*
X1257738Y223706D01*
X1257685Y223659D01*
X1257636Y223610D01*
X1257589Y223557D01*
X1257545Y223503D01*
X1257504Y223445D01*
X1257466Y223386D01*
X1257431Y223325D01*
X1257400Y223262D01*
X1257372Y223197D01*
X1257348Y223131D01*
X1257327Y223064D01*
X1257310Y222996D01*
X1257297Y222927D01*
X1257288Y222857D01*
X1257282Y222787D01*
X1257280Y222717D01*
X1257280Y221419D01*
X1259876Y226760D02*
X1254034Y226760D01*
X1259876Y226760D02*
X1259876Y228383D01*
X1259874Y228463D01*
X1259868Y228542D01*
X1259858Y228621D01*
X1259845Y228700D01*
X1259827Y228777D01*
X1259806Y228854D01*
X1259781Y228930D01*
X1259752Y229004D01*
X1259720Y229077D01*
X1259684Y229148D01*
X1259645Y229217D01*
X1259602Y229285D01*
X1259557Y229350D01*
X1259508Y229413D01*
X1259456Y229473D01*
X1259401Y229531D01*
X1259343Y229586D01*
X1259283Y229638D01*
X1259220Y229687D01*
X1259155Y229732D01*
X1259087Y229775D01*
X1259018Y229814D01*
X1258947Y229850D01*
X1258874Y229882D01*
X1258800Y229911D01*
X1258724Y229936D01*
X1258647Y229957D01*
X1258570Y229975D01*
X1258491Y229988D01*
X1258412Y229998D01*
X1258333Y230004D01*
X1258253Y230006D01*
X1258173Y230004D01*
X1258094Y229998D01*
X1258015Y229988D01*
X1257936Y229975D01*
X1257859Y229957D01*
X1257782Y229936D01*
X1257706Y229911D01*
X1257632Y229882D01*
X1257559Y229850D01*
X1257488Y229814D01*
X1257419Y229775D01*
X1257351Y229732D01*
X1257286Y229687D01*
X1257223Y229638D01*
X1257163Y229586D01*
X1257105Y229531D01*
X1257050Y229473D01*
X1256998Y229413D01*
X1256949Y229350D01*
X1256904Y229285D01*
X1256861Y229217D01*
X1256822Y229148D01*
X1256786Y229077D01*
X1256754Y229004D01*
X1256725Y228930D01*
X1256700Y228854D01*
X1256679Y228777D01*
X1256661Y228700D01*
X1256648Y228621D01*
X1256638Y228542D01*
X1256632Y228463D01*
X1256630Y228383D01*
X1256630Y226760D01*
X1254034Y232680D02*
X1259876Y232680D01*
X1254034Y233329D02*
X1254034Y232030D01*
X1259876Y232030D02*
X1259876Y233329D01*
X1259876Y235819D02*
X1254034Y235819D01*
X1254034Y239065D02*
X1259876Y235819D01*
X1259876Y239065D02*
X1254034Y239065D01*
D10*
X948080Y298000D02*
X473080Y298000D01*
X948080Y298000D02*
X948080Y248000D01*
X948080Y98000D01*
X948080Y48000D01*
X473080Y48000D01*
X983080Y133000D02*
X983080Y213000D01*
X948080Y248000D01*
X983080Y133000D02*
X948080Y98000D01*
X673080Y98000D01*
X673080Y248000D01*
X948080Y248000D01*
D11*
X665272Y131008D02*
X653588Y133604D01*
X661377Y136201D01*
X653588Y138797D01*
X665272Y141394D01*
X661377Y145726D02*
X653588Y145726D01*
X664623Y145401D02*
X665272Y145401D01*
X665272Y146050D01*
X664623Y146050D01*
X664623Y145401D01*
X663325Y150995D02*
X653588Y150995D01*
X663325Y150995D02*
X663412Y150997D01*
X663500Y151003D01*
X663586Y151013D01*
X663673Y151026D01*
X663758Y151044D01*
X663843Y151065D01*
X663927Y151090D01*
X664009Y151119D01*
X664090Y151152D01*
X664170Y151188D01*
X664248Y151227D01*
X664324Y151271D01*
X664398Y151317D01*
X664469Y151367D01*
X664539Y151420D01*
X664606Y151476D01*
X664670Y151535D01*
X664732Y151596D01*
X664791Y151661D01*
X664847Y151728D01*
X664900Y151798D01*
X664950Y151869D01*
X664996Y151943D01*
X665040Y152019D01*
X665079Y152097D01*
X665115Y152177D01*
X665148Y152258D01*
X665177Y152340D01*
X665202Y152424D01*
X665223Y152509D01*
X665241Y152594D01*
X665254Y152681D01*
X665264Y152767D01*
X665270Y152855D01*
X665272Y152942D01*
X665272Y153591D01*
X661377Y153591D02*
X661377Y149697D01*
X661377Y156775D02*
X653588Y156775D01*
X664623Y156450D02*
X665272Y156450D01*
X665272Y157099D01*
X664623Y157099D01*
X664623Y156450D01*
X665272Y168030D02*
X653588Y168030D01*
X657483Y168030D02*
X661377Y173223D01*
X659105Y170302D02*
X653588Y173223D01*
X653588Y177349D02*
X661377Y177349D01*
X664623Y177024D02*
X665272Y177024D01*
X665272Y177673D01*
X664623Y177673D01*
X664623Y177024D01*
X661377Y181024D02*
X661377Y184919D01*
X665272Y182322D02*
X655535Y182322D01*
X655535Y182323D02*
X655448Y182325D01*
X655360Y182331D01*
X655274Y182341D01*
X655187Y182354D01*
X655102Y182372D01*
X655017Y182393D01*
X654933Y182418D01*
X654851Y182447D01*
X654770Y182480D01*
X654690Y182516D01*
X654612Y182555D01*
X654536Y182599D01*
X654462Y182645D01*
X654391Y182695D01*
X654321Y182748D01*
X654254Y182804D01*
X654190Y182863D01*
X654128Y182925D01*
X654069Y182989D01*
X654013Y183056D01*
X653960Y183126D01*
X653910Y183197D01*
X653864Y183271D01*
X653820Y183347D01*
X653781Y183425D01*
X653745Y183505D01*
X653712Y183586D01*
X653683Y183668D01*
X653658Y183752D01*
X653637Y183837D01*
X653619Y183922D01*
X653606Y184009D01*
X653596Y184095D01*
X653590Y184183D01*
X653588Y184270D01*
X653588Y184919D01*
X653588Y195439D02*
X653588Y198685D01*
X653590Y198798D01*
X653596Y198911D01*
X653606Y199024D01*
X653620Y199137D01*
X653637Y199249D01*
X653659Y199360D01*
X653684Y199470D01*
X653714Y199580D01*
X653747Y199688D01*
X653784Y199795D01*
X653824Y199901D01*
X653869Y200005D01*
X653917Y200108D01*
X653968Y200209D01*
X654023Y200308D01*
X654081Y200405D01*
X654143Y200500D01*
X654208Y200593D01*
X654276Y200683D01*
X654347Y200771D01*
X654422Y200857D01*
X654499Y200940D01*
X654579Y201020D01*
X654662Y201097D01*
X654748Y201172D01*
X654836Y201243D01*
X654926Y201311D01*
X655019Y201376D01*
X655114Y201438D01*
X655211Y201496D01*
X655310Y201551D01*
X655411Y201602D01*
X655514Y201650D01*
X655618Y201695D01*
X655724Y201735D01*
X655831Y201772D01*
X655939Y201805D01*
X656049Y201835D01*
X656159Y201860D01*
X656270Y201882D01*
X656382Y201899D01*
X656495Y201913D01*
X656608Y201923D01*
X656721Y201929D01*
X656834Y201931D01*
X656947Y201929D01*
X657060Y201923D01*
X657173Y201913D01*
X657286Y201899D01*
X657398Y201882D01*
X657509Y201860D01*
X657619Y201835D01*
X657729Y201805D01*
X657837Y201772D01*
X657944Y201735D01*
X658050Y201695D01*
X658154Y201650D01*
X658257Y201602D01*
X658358Y201551D01*
X658457Y201496D01*
X658554Y201438D01*
X658649Y201376D01*
X658742Y201311D01*
X658832Y201243D01*
X658920Y201172D01*
X659006Y201097D01*
X659089Y201020D01*
X659169Y200940D01*
X659246Y200857D01*
X659321Y200771D01*
X659392Y200683D01*
X659460Y200593D01*
X659525Y200500D01*
X659587Y200405D01*
X659645Y200308D01*
X659700Y200209D01*
X659751Y200108D01*
X659799Y200005D01*
X659844Y199901D01*
X659884Y199795D01*
X659921Y199688D01*
X659954Y199580D01*
X659984Y199470D01*
X660009Y199360D01*
X660031Y199249D01*
X660048Y199137D01*
X660062Y199024D01*
X660072Y198911D01*
X660078Y198798D01*
X660080Y198685D01*
X665272Y199334D02*
X665272Y195439D01*
X665272Y199334D02*
X665270Y199435D01*
X665264Y199535D01*
X665254Y199635D01*
X665241Y199735D01*
X665223Y199834D01*
X665202Y199933D01*
X665177Y200030D01*
X665148Y200127D01*
X665115Y200222D01*
X665079Y200316D01*
X665039Y200408D01*
X664996Y200499D01*
X664949Y200588D01*
X664899Y200675D01*
X664845Y200761D01*
X664788Y200844D01*
X664728Y200924D01*
X664665Y201003D01*
X664598Y201079D01*
X664529Y201152D01*
X664457Y201222D01*
X664383Y201290D01*
X664306Y201355D01*
X664226Y201416D01*
X664144Y201475D01*
X664060Y201530D01*
X663974Y201582D01*
X663886Y201631D01*
X663796Y201676D01*
X663704Y201718D01*
X663611Y201756D01*
X663516Y201790D01*
X663421Y201821D01*
X663324Y201848D01*
X663226Y201871D01*
X663127Y201891D01*
X663027Y201906D01*
X662927Y201918D01*
X662827Y201926D01*
X662726Y201930D01*
X662626Y201930D01*
X662525Y201926D01*
X662425Y201918D01*
X662325Y201906D01*
X662225Y201891D01*
X662126Y201871D01*
X662028Y201848D01*
X661931Y201821D01*
X661836Y201790D01*
X661741Y201756D01*
X661648Y201718D01*
X661556Y201676D01*
X661466Y201631D01*
X661378Y201582D01*
X661292Y201530D01*
X661208Y201475D01*
X661126Y201416D01*
X661046Y201355D01*
X660969Y201290D01*
X660895Y201222D01*
X660823Y201152D01*
X660754Y201079D01*
X660687Y201003D01*
X660624Y200924D01*
X660564Y200844D01*
X660507Y200761D01*
X660453Y200675D01*
X660403Y200588D01*
X660356Y200499D01*
X660313Y200408D01*
X660273Y200316D01*
X660237Y200222D01*
X660204Y200127D01*
X660175Y200030D01*
X660150Y199933D01*
X660129Y199834D01*
X660111Y199735D01*
X660098Y199635D01*
X660088Y199535D01*
X660082Y199435D01*
X660080Y199334D01*
X660079Y199334D02*
X660079Y196737D01*
X665272Y210439D02*
X665270Y210546D01*
X665264Y210652D01*
X665254Y210758D01*
X665241Y210864D01*
X665223Y210970D01*
X665202Y211074D01*
X665177Y211178D01*
X665148Y211281D01*
X665116Y211382D01*
X665079Y211482D01*
X665039Y211581D01*
X664996Y211679D01*
X664949Y211775D01*
X664898Y211869D01*
X664844Y211961D01*
X664787Y212051D01*
X664727Y212139D01*
X664663Y212224D01*
X664596Y212307D01*
X664526Y212388D01*
X664454Y212466D01*
X664378Y212542D01*
X664300Y212614D01*
X664219Y212684D01*
X664136Y212751D01*
X664051Y212815D01*
X663963Y212875D01*
X663873Y212932D01*
X663781Y212986D01*
X663687Y213037D01*
X663591Y213084D01*
X663493Y213127D01*
X663394Y213167D01*
X663294Y213204D01*
X663193Y213236D01*
X663090Y213265D01*
X662986Y213290D01*
X662882Y213311D01*
X662776Y213329D01*
X662670Y213342D01*
X662564Y213352D01*
X662458Y213358D01*
X662351Y213360D01*
X665272Y210439D02*
X665270Y210318D01*
X665264Y210197D01*
X665254Y210077D01*
X665241Y209956D01*
X665223Y209837D01*
X665202Y209717D01*
X665177Y209599D01*
X665148Y209482D01*
X665115Y209365D01*
X665079Y209250D01*
X665038Y209136D01*
X664995Y209023D01*
X664947Y208911D01*
X664896Y208802D01*
X664841Y208694D01*
X664783Y208587D01*
X664722Y208483D01*
X664657Y208381D01*
X664589Y208281D01*
X664518Y208183D01*
X664444Y208087D01*
X664367Y207994D01*
X664286Y207904D01*
X664203Y207816D01*
X664117Y207731D01*
X664028Y207648D01*
X663937Y207569D01*
X663843Y207492D01*
X663747Y207419D01*
X663649Y207349D01*
X663548Y207282D01*
X663445Y207218D01*
X663340Y207158D01*
X663233Y207101D01*
X663125Y207047D01*
X663015Y206997D01*
X662903Y206951D01*
X662790Y206908D01*
X662675Y206869D01*
X660079Y212387D02*
X660156Y212466D01*
X660237Y212542D01*
X660320Y212615D01*
X660405Y212685D01*
X660493Y212752D01*
X660583Y212816D01*
X660675Y212876D01*
X660770Y212933D01*
X660866Y212987D01*
X660964Y213038D01*
X661064Y213085D01*
X661166Y213129D01*
X661269Y213169D01*
X661373Y213205D01*
X661479Y213237D01*
X661585Y213266D01*
X661693Y213291D01*
X661801Y213313D01*
X661911Y213330D01*
X662020Y213344D01*
X662130Y213353D01*
X662241Y213359D01*
X662351Y213361D01*
X660079Y212387D02*
X653588Y206869D01*
X653588Y213360D01*
D10*
X473766Y47994D02*
X457929Y47994D01*
X457929Y297993D01*
X457955Y297955D02*
X474541Y297955D01*
X474541Y297917D01*
D13*
X1139650Y582700D02*
X1152350Y582700D01*
X1139650Y582700D02*
X1133300Y576350D01*
X1133300Y563650D01*
X1139650Y557300D01*
X1158700Y563650D02*
X1158700Y576350D01*
X1152350Y582700D01*
X1158700Y563650D02*
X1152350Y557300D01*
X1139650Y557300D01*
D10*
X1155017Y591463D02*
X1155017Y600353D01*
X1155017Y591463D02*
X1155019Y591363D01*
X1155025Y591264D01*
X1155035Y591164D01*
X1155048Y591066D01*
X1155066Y590967D01*
X1155087Y590870D01*
X1155112Y590774D01*
X1155141Y590678D01*
X1155174Y590584D01*
X1155210Y590491D01*
X1155250Y590400D01*
X1155294Y590310D01*
X1155341Y590222D01*
X1155391Y590136D01*
X1155445Y590052D01*
X1155502Y589970D01*
X1155562Y589891D01*
X1155626Y589813D01*
X1155692Y589739D01*
X1155761Y589667D01*
X1155833Y589598D01*
X1155907Y589532D01*
X1155985Y589468D01*
X1156064Y589408D01*
X1156146Y589351D01*
X1156230Y589297D01*
X1156316Y589247D01*
X1156404Y589200D01*
X1156494Y589156D01*
X1156585Y589116D01*
X1156678Y589080D01*
X1156772Y589047D01*
X1156868Y589018D01*
X1156964Y588993D01*
X1157061Y588972D01*
X1157160Y588954D01*
X1157258Y588941D01*
X1157358Y588931D01*
X1157457Y588925D01*
X1157557Y588923D01*
X1158827Y588923D01*
X1149037Y588923D02*
X1149037Y600353D01*
X1145862Y600353D01*
X1145751Y600351D01*
X1145641Y600345D01*
X1145530Y600336D01*
X1145420Y600322D01*
X1145311Y600305D01*
X1145202Y600284D01*
X1145094Y600259D01*
X1144987Y600230D01*
X1144881Y600198D01*
X1144776Y600162D01*
X1144673Y600122D01*
X1144571Y600079D01*
X1144470Y600032D01*
X1144371Y599981D01*
X1144275Y599928D01*
X1144180Y599871D01*
X1144087Y599810D01*
X1143996Y599747D01*
X1143907Y599680D01*
X1143821Y599610D01*
X1143738Y599537D01*
X1143656Y599462D01*
X1143578Y599384D01*
X1143503Y599302D01*
X1143430Y599219D01*
X1143360Y599133D01*
X1143293Y599044D01*
X1143230Y598953D01*
X1143169Y598860D01*
X1143112Y598766D01*
X1143059Y598669D01*
X1143008Y598570D01*
X1142961Y598469D01*
X1142918Y598367D01*
X1142878Y598264D01*
X1142842Y598159D01*
X1142810Y598053D01*
X1142781Y597946D01*
X1142756Y597838D01*
X1142735Y597729D01*
X1142718Y597620D01*
X1142704Y597510D01*
X1142695Y597399D01*
X1142689Y597289D01*
X1142687Y597178D01*
X1142689Y597067D01*
X1142695Y596957D01*
X1142704Y596846D01*
X1142718Y596736D01*
X1142735Y596627D01*
X1142756Y596518D01*
X1142781Y596410D01*
X1142810Y596303D01*
X1142842Y596197D01*
X1142878Y596092D01*
X1142918Y595989D01*
X1142961Y595887D01*
X1143008Y595786D01*
X1143059Y595687D01*
X1143112Y595591D01*
X1143169Y595496D01*
X1143230Y595403D01*
X1143293Y595312D01*
X1143360Y595223D01*
X1143430Y595137D01*
X1143503Y595054D01*
X1143578Y594972D01*
X1143656Y594894D01*
X1143738Y594819D01*
X1143821Y594746D01*
X1143907Y594676D01*
X1143996Y594609D01*
X1144087Y594546D01*
X1144180Y594485D01*
X1144275Y594428D01*
X1144371Y594375D01*
X1144470Y594324D01*
X1144571Y594277D01*
X1144673Y594234D01*
X1144776Y594194D01*
X1144881Y594158D01*
X1144987Y594126D01*
X1145094Y594097D01*
X1145202Y594072D01*
X1145311Y594051D01*
X1145420Y594034D01*
X1145530Y594020D01*
X1145641Y594011D01*
X1145751Y594005D01*
X1145862Y594003D01*
X1149037Y594003D01*
X1138178Y597813D02*
X1135003Y600353D01*
X1135003Y588923D01*
X1138178Y588923D02*
X1131828Y588923D01*
X513200Y413800D02*
X106800Y413800D01*
X106800Y566200D02*
X513200Y566200D01*
X106800Y566200D02*
X106800Y413800D01*
X119500Y439200D02*
X113150Y445550D01*
X119500Y439200D02*
X157600Y439200D01*
X163950Y445550D01*
X163950Y458250D01*
X157600Y464600D01*
X163950Y470950D01*
X163950Y483650D01*
X157600Y490000D01*
X163950Y496350D01*
X163950Y509050D01*
X157600Y515400D01*
X163950Y521750D01*
X163950Y534450D01*
X157600Y540800D01*
X144900Y540800D01*
X138550Y534450D01*
X132200Y540800D01*
X119500Y540800D01*
X113150Y534450D01*
X113150Y521750D01*
X119500Y515400D01*
X113150Y509050D01*
X113150Y496350D01*
X119500Y490000D01*
X113150Y483650D01*
X113150Y470950D01*
X119500Y464600D01*
X113150Y458250D01*
X113150Y445550D01*
X443350Y458250D02*
X506850Y458250D01*
X506850Y464600D01*
X506850Y515400D01*
X506850Y521750D01*
X443350Y521750D01*
X443350Y458250D01*
X506850Y464600D02*
X513200Y464600D01*
X538600Y464600D01*
X513200Y515400D02*
X506850Y515400D01*
X513200Y515400D02*
X538600Y515400D01*
X538600Y464600D02*
X538600Y458250D01*
X583050Y458250D01*
X583050Y464600D01*
X589400Y464600D01*
X589400Y515400D01*
X583050Y515400D01*
X583050Y521750D01*
X538600Y521750D01*
X538600Y515400D01*
X513200Y464600D02*
X513200Y413800D01*
X513200Y515400D02*
X513200Y566200D01*
D11*
X319857Y400592D02*
X319857Y388908D01*
X315962Y394101D02*
X319857Y400592D01*
X315962Y394101D02*
X312067Y400592D01*
X312067Y388908D01*
X306635Y397996D02*
X303389Y400592D01*
X303389Y388908D01*
X306635Y388908D02*
X300143Y388908D01*
D13*
X1112650Y582700D02*
X1125350Y582700D01*
X1112650Y582700D02*
X1106300Y576350D01*
X1106300Y563650D01*
X1112650Y557300D01*
X1131700Y563650D02*
X1131700Y576350D01*
X1125350Y582700D01*
X1131700Y563650D02*
X1125350Y557300D01*
X1112650Y557300D01*
D10*
X1128017Y591463D02*
X1128017Y600353D01*
X1128017Y591463D02*
X1128019Y591363D01*
X1128025Y591264D01*
X1128035Y591164D01*
X1128048Y591066D01*
X1128066Y590967D01*
X1128087Y590870D01*
X1128112Y590774D01*
X1128141Y590678D01*
X1128174Y590584D01*
X1128210Y590491D01*
X1128250Y590400D01*
X1128294Y590310D01*
X1128341Y590222D01*
X1128391Y590136D01*
X1128445Y590052D01*
X1128502Y589970D01*
X1128562Y589891D01*
X1128626Y589813D01*
X1128692Y589739D01*
X1128761Y589667D01*
X1128833Y589598D01*
X1128907Y589532D01*
X1128985Y589468D01*
X1129064Y589408D01*
X1129146Y589351D01*
X1129230Y589297D01*
X1129316Y589247D01*
X1129404Y589200D01*
X1129494Y589156D01*
X1129585Y589116D01*
X1129678Y589080D01*
X1129772Y589047D01*
X1129868Y589018D01*
X1129964Y588993D01*
X1130061Y588972D01*
X1130160Y588954D01*
X1130258Y588941D01*
X1130358Y588931D01*
X1130457Y588925D01*
X1130557Y588923D01*
X1131827Y588923D01*
X1122037Y588923D02*
X1122037Y600353D01*
X1118862Y600353D01*
X1118751Y600351D01*
X1118641Y600345D01*
X1118530Y600336D01*
X1118420Y600322D01*
X1118311Y600305D01*
X1118202Y600284D01*
X1118094Y600259D01*
X1117987Y600230D01*
X1117881Y600198D01*
X1117776Y600162D01*
X1117673Y600122D01*
X1117571Y600079D01*
X1117470Y600032D01*
X1117371Y599981D01*
X1117275Y599928D01*
X1117180Y599871D01*
X1117087Y599810D01*
X1116996Y599747D01*
X1116907Y599680D01*
X1116821Y599610D01*
X1116738Y599537D01*
X1116656Y599462D01*
X1116578Y599384D01*
X1116503Y599302D01*
X1116430Y599219D01*
X1116360Y599133D01*
X1116293Y599044D01*
X1116230Y598953D01*
X1116169Y598860D01*
X1116112Y598766D01*
X1116059Y598669D01*
X1116008Y598570D01*
X1115961Y598469D01*
X1115918Y598367D01*
X1115878Y598264D01*
X1115842Y598159D01*
X1115810Y598053D01*
X1115781Y597946D01*
X1115756Y597838D01*
X1115735Y597729D01*
X1115718Y597620D01*
X1115704Y597510D01*
X1115695Y597399D01*
X1115689Y597289D01*
X1115687Y597178D01*
X1115689Y597067D01*
X1115695Y596957D01*
X1115704Y596846D01*
X1115718Y596736D01*
X1115735Y596627D01*
X1115756Y596518D01*
X1115781Y596410D01*
X1115810Y596303D01*
X1115842Y596197D01*
X1115878Y596092D01*
X1115918Y595989D01*
X1115961Y595887D01*
X1116008Y595786D01*
X1116059Y595687D01*
X1116112Y595591D01*
X1116169Y595496D01*
X1116230Y595403D01*
X1116293Y595312D01*
X1116360Y595223D01*
X1116430Y595137D01*
X1116503Y595054D01*
X1116578Y594972D01*
X1116656Y594894D01*
X1116738Y594819D01*
X1116821Y594746D01*
X1116907Y594676D01*
X1116996Y594609D01*
X1117087Y594546D01*
X1117180Y594485D01*
X1117275Y594428D01*
X1117371Y594375D01*
X1117470Y594324D01*
X1117571Y594277D01*
X1117673Y594234D01*
X1117776Y594194D01*
X1117881Y594158D01*
X1117987Y594126D01*
X1118094Y594097D01*
X1118202Y594072D01*
X1118311Y594051D01*
X1118420Y594034D01*
X1118530Y594020D01*
X1118641Y594011D01*
X1118751Y594005D01*
X1118862Y594003D01*
X1122037Y594003D01*
X1107686Y600354D02*
X1107582Y600352D01*
X1107477Y600346D01*
X1107373Y600337D01*
X1107270Y600324D01*
X1107167Y600306D01*
X1107065Y600286D01*
X1106963Y600261D01*
X1106863Y600233D01*
X1106763Y600201D01*
X1106665Y600165D01*
X1106568Y600126D01*
X1106473Y600084D01*
X1106379Y600038D01*
X1106287Y599988D01*
X1106197Y599936D01*
X1106109Y599880D01*
X1106023Y599820D01*
X1105939Y599758D01*
X1105858Y599693D01*
X1105779Y599625D01*
X1105702Y599553D01*
X1105629Y599480D01*
X1105557Y599403D01*
X1105489Y599324D01*
X1105424Y599243D01*
X1105362Y599159D01*
X1105302Y599073D01*
X1105246Y598985D01*
X1105194Y598895D01*
X1105144Y598803D01*
X1105098Y598709D01*
X1105056Y598614D01*
X1105017Y598517D01*
X1104981Y598419D01*
X1104949Y598319D01*
X1104921Y598219D01*
X1104896Y598117D01*
X1104876Y598015D01*
X1104858Y597912D01*
X1104845Y597809D01*
X1104836Y597705D01*
X1104830Y597600D01*
X1104828Y597496D01*
X1107686Y600353D02*
X1107804Y600351D01*
X1107923Y600345D01*
X1108041Y600336D01*
X1108158Y600323D01*
X1108275Y600305D01*
X1108392Y600285D01*
X1108508Y600260D01*
X1108623Y600232D01*
X1108736Y600199D01*
X1108849Y600164D01*
X1108961Y600124D01*
X1109071Y600082D01*
X1109180Y600035D01*
X1109288Y599985D01*
X1109393Y599932D01*
X1109497Y599875D01*
X1109599Y599815D01*
X1109699Y599752D01*
X1109797Y599685D01*
X1109893Y599616D01*
X1109986Y599543D01*
X1110077Y599467D01*
X1110166Y599389D01*
X1110252Y599307D01*
X1110335Y599223D01*
X1110416Y599137D01*
X1110493Y599047D01*
X1110568Y598956D01*
X1110640Y598862D01*
X1110709Y598765D01*
X1110774Y598667D01*
X1110837Y598566D01*
X1110896Y598463D01*
X1110952Y598359D01*
X1111004Y598253D01*
X1111053Y598145D01*
X1111098Y598036D01*
X1111140Y597925D01*
X1111178Y597813D01*
X1105780Y595274D02*
X1105704Y595349D01*
X1105629Y595428D01*
X1105558Y595509D01*
X1105489Y595593D01*
X1105424Y595679D01*
X1105362Y595767D01*
X1105302Y595857D01*
X1105246Y595949D01*
X1105193Y596044D01*
X1105144Y596140D01*
X1105098Y596238D01*
X1105055Y596337D01*
X1105016Y596438D01*
X1104981Y596540D01*
X1104949Y596643D01*
X1104921Y596747D01*
X1104896Y596852D01*
X1104875Y596959D01*
X1104858Y597065D01*
X1104845Y597172D01*
X1104836Y597280D01*
X1104830Y597388D01*
X1104828Y597496D01*
X1105781Y595273D02*
X1111178Y588923D01*
X1104828Y588923D01*
D13*
X1098350Y582700D02*
X1085650Y582700D01*
X1079300Y576350D01*
X1079300Y563650D01*
X1085650Y557300D01*
X1104700Y563650D02*
X1104700Y576350D01*
X1098350Y582700D01*
X1104700Y563650D02*
X1098350Y557300D01*
X1085650Y557300D01*
D10*
X1101017Y591463D02*
X1101017Y600353D01*
X1101017Y591463D02*
X1101019Y591363D01*
X1101025Y591264D01*
X1101035Y591164D01*
X1101048Y591066D01*
X1101066Y590967D01*
X1101087Y590870D01*
X1101112Y590774D01*
X1101141Y590678D01*
X1101174Y590584D01*
X1101210Y590491D01*
X1101250Y590400D01*
X1101294Y590310D01*
X1101341Y590222D01*
X1101391Y590136D01*
X1101445Y590052D01*
X1101502Y589970D01*
X1101562Y589891D01*
X1101626Y589813D01*
X1101692Y589739D01*
X1101761Y589667D01*
X1101833Y589598D01*
X1101907Y589532D01*
X1101985Y589468D01*
X1102064Y589408D01*
X1102146Y589351D01*
X1102230Y589297D01*
X1102316Y589247D01*
X1102404Y589200D01*
X1102494Y589156D01*
X1102585Y589116D01*
X1102678Y589080D01*
X1102772Y589047D01*
X1102868Y589018D01*
X1102964Y588993D01*
X1103061Y588972D01*
X1103160Y588954D01*
X1103258Y588941D01*
X1103358Y588931D01*
X1103457Y588925D01*
X1103557Y588923D01*
X1104827Y588923D01*
X1095037Y588923D02*
X1095037Y600353D01*
X1091862Y600353D01*
X1091751Y600351D01*
X1091641Y600345D01*
X1091530Y600336D01*
X1091420Y600322D01*
X1091311Y600305D01*
X1091202Y600284D01*
X1091094Y600259D01*
X1090987Y600230D01*
X1090881Y600198D01*
X1090776Y600162D01*
X1090673Y600122D01*
X1090571Y600079D01*
X1090470Y600032D01*
X1090371Y599981D01*
X1090275Y599928D01*
X1090180Y599871D01*
X1090087Y599810D01*
X1089996Y599747D01*
X1089907Y599680D01*
X1089821Y599610D01*
X1089738Y599537D01*
X1089656Y599462D01*
X1089578Y599384D01*
X1089503Y599302D01*
X1089430Y599219D01*
X1089360Y599133D01*
X1089293Y599044D01*
X1089230Y598953D01*
X1089169Y598860D01*
X1089112Y598766D01*
X1089059Y598669D01*
X1089008Y598570D01*
X1088961Y598469D01*
X1088918Y598367D01*
X1088878Y598264D01*
X1088842Y598159D01*
X1088810Y598053D01*
X1088781Y597946D01*
X1088756Y597838D01*
X1088735Y597729D01*
X1088718Y597620D01*
X1088704Y597510D01*
X1088695Y597399D01*
X1088689Y597289D01*
X1088687Y597178D01*
X1088689Y597067D01*
X1088695Y596957D01*
X1088704Y596846D01*
X1088718Y596736D01*
X1088735Y596627D01*
X1088756Y596518D01*
X1088781Y596410D01*
X1088810Y596303D01*
X1088842Y596197D01*
X1088878Y596092D01*
X1088918Y595989D01*
X1088961Y595887D01*
X1089008Y595786D01*
X1089059Y595687D01*
X1089112Y595591D01*
X1089169Y595496D01*
X1089230Y595403D01*
X1089293Y595312D01*
X1089360Y595223D01*
X1089430Y595137D01*
X1089503Y595054D01*
X1089578Y594972D01*
X1089656Y594894D01*
X1089738Y594819D01*
X1089821Y594746D01*
X1089907Y594676D01*
X1089996Y594609D01*
X1090087Y594546D01*
X1090180Y594485D01*
X1090275Y594428D01*
X1090371Y594375D01*
X1090470Y594324D01*
X1090571Y594277D01*
X1090673Y594234D01*
X1090776Y594194D01*
X1090881Y594158D01*
X1090987Y594126D01*
X1091094Y594097D01*
X1091202Y594072D01*
X1091311Y594051D01*
X1091420Y594034D01*
X1091530Y594020D01*
X1091641Y594011D01*
X1091751Y594005D01*
X1091862Y594003D01*
X1095037Y594003D01*
X1084178Y588923D02*
X1081003Y588923D01*
X1080892Y588925D01*
X1080782Y588931D01*
X1080671Y588940D01*
X1080561Y588954D01*
X1080452Y588971D01*
X1080343Y588992D01*
X1080235Y589017D01*
X1080128Y589046D01*
X1080022Y589078D01*
X1079917Y589114D01*
X1079814Y589154D01*
X1079712Y589197D01*
X1079611Y589244D01*
X1079512Y589295D01*
X1079416Y589348D01*
X1079321Y589405D01*
X1079228Y589466D01*
X1079137Y589529D01*
X1079048Y589596D01*
X1078962Y589666D01*
X1078879Y589739D01*
X1078797Y589814D01*
X1078719Y589892D01*
X1078644Y589974D01*
X1078571Y590057D01*
X1078501Y590143D01*
X1078434Y590232D01*
X1078371Y590323D01*
X1078310Y590416D01*
X1078253Y590511D01*
X1078200Y590607D01*
X1078149Y590706D01*
X1078102Y590807D01*
X1078059Y590909D01*
X1078019Y591012D01*
X1077983Y591117D01*
X1077951Y591223D01*
X1077922Y591330D01*
X1077897Y591438D01*
X1077876Y591547D01*
X1077859Y591656D01*
X1077845Y591766D01*
X1077836Y591877D01*
X1077830Y591987D01*
X1077828Y592098D01*
X1077830Y592209D01*
X1077836Y592319D01*
X1077845Y592430D01*
X1077859Y592540D01*
X1077876Y592649D01*
X1077897Y592758D01*
X1077922Y592866D01*
X1077951Y592973D01*
X1077983Y593079D01*
X1078019Y593184D01*
X1078059Y593287D01*
X1078102Y593389D01*
X1078149Y593490D01*
X1078200Y593589D01*
X1078253Y593686D01*
X1078310Y593780D01*
X1078371Y593873D01*
X1078434Y593964D01*
X1078501Y594053D01*
X1078571Y594139D01*
X1078644Y594222D01*
X1078719Y594304D01*
X1078797Y594382D01*
X1078879Y594457D01*
X1078962Y594530D01*
X1079048Y594600D01*
X1079137Y594667D01*
X1079228Y594730D01*
X1079321Y594791D01*
X1079416Y594848D01*
X1079512Y594901D01*
X1079611Y594952D01*
X1079712Y594999D01*
X1079814Y595042D01*
X1079917Y595082D01*
X1080022Y595118D01*
X1080128Y595150D01*
X1080235Y595179D01*
X1080343Y595204D01*
X1080452Y595225D01*
X1080561Y595242D01*
X1080671Y595256D01*
X1080782Y595265D01*
X1080892Y595271D01*
X1081003Y595273D01*
X1080368Y600353D02*
X1084178Y600353D01*
X1080368Y600353D02*
X1080268Y600351D01*
X1080169Y600345D01*
X1080069Y600335D01*
X1079971Y600322D01*
X1079872Y600304D01*
X1079775Y600283D01*
X1079679Y600258D01*
X1079583Y600229D01*
X1079489Y600196D01*
X1079396Y600160D01*
X1079305Y600120D01*
X1079215Y600076D01*
X1079127Y600029D01*
X1079041Y599979D01*
X1078957Y599925D01*
X1078875Y599868D01*
X1078796Y599808D01*
X1078718Y599744D01*
X1078644Y599678D01*
X1078572Y599609D01*
X1078503Y599537D01*
X1078437Y599463D01*
X1078373Y599385D01*
X1078313Y599306D01*
X1078256Y599224D01*
X1078202Y599140D01*
X1078152Y599054D01*
X1078105Y598966D01*
X1078061Y598876D01*
X1078021Y598785D01*
X1077985Y598692D01*
X1077952Y598598D01*
X1077923Y598502D01*
X1077898Y598406D01*
X1077877Y598309D01*
X1077859Y598210D01*
X1077846Y598112D01*
X1077836Y598012D01*
X1077830Y597913D01*
X1077828Y597813D01*
X1077830Y597713D01*
X1077836Y597614D01*
X1077846Y597514D01*
X1077859Y597416D01*
X1077877Y597317D01*
X1077898Y597220D01*
X1077923Y597124D01*
X1077952Y597028D01*
X1077985Y596934D01*
X1078021Y596841D01*
X1078061Y596750D01*
X1078105Y596660D01*
X1078152Y596572D01*
X1078202Y596486D01*
X1078256Y596402D01*
X1078313Y596320D01*
X1078373Y596241D01*
X1078437Y596163D01*
X1078503Y596089D01*
X1078572Y596017D01*
X1078644Y595948D01*
X1078718Y595882D01*
X1078796Y595818D01*
X1078875Y595758D01*
X1078957Y595701D01*
X1079041Y595647D01*
X1079127Y595597D01*
X1079215Y595550D01*
X1079305Y595506D01*
X1079396Y595466D01*
X1079489Y595430D01*
X1079583Y595397D01*
X1079679Y595368D01*
X1079775Y595343D01*
X1079872Y595322D01*
X1079971Y595304D01*
X1080069Y595291D01*
X1080169Y595281D01*
X1080268Y595275D01*
X1080368Y595273D01*
X1082908Y595273D01*
D13*
X1193650Y582700D02*
X1206350Y582700D01*
X1193650Y582700D02*
X1187300Y576350D01*
X1187300Y563650D01*
X1193650Y557300D01*
X1212700Y563650D02*
X1212700Y576350D01*
X1206350Y582700D01*
X1212700Y563650D02*
X1206350Y557300D01*
X1193650Y557300D01*
D10*
X1209017Y591463D02*
X1209017Y600353D01*
X1209017Y591463D02*
X1209019Y591363D01*
X1209025Y591264D01*
X1209035Y591164D01*
X1209048Y591066D01*
X1209066Y590967D01*
X1209087Y590870D01*
X1209112Y590774D01*
X1209141Y590678D01*
X1209174Y590584D01*
X1209210Y590491D01*
X1209250Y590400D01*
X1209294Y590310D01*
X1209341Y590222D01*
X1209391Y590136D01*
X1209445Y590052D01*
X1209502Y589970D01*
X1209562Y589891D01*
X1209626Y589813D01*
X1209692Y589739D01*
X1209761Y589667D01*
X1209833Y589598D01*
X1209907Y589532D01*
X1209985Y589468D01*
X1210064Y589408D01*
X1210146Y589351D01*
X1210230Y589297D01*
X1210316Y589247D01*
X1210404Y589200D01*
X1210494Y589156D01*
X1210585Y589116D01*
X1210678Y589080D01*
X1210772Y589047D01*
X1210868Y589018D01*
X1210964Y588993D01*
X1211061Y588972D01*
X1211160Y588954D01*
X1211258Y588941D01*
X1211358Y588931D01*
X1211457Y588925D01*
X1211557Y588923D01*
X1212827Y588923D01*
X1203037Y588923D02*
X1203037Y600353D01*
X1199862Y600353D01*
X1199751Y600351D01*
X1199641Y600345D01*
X1199530Y600336D01*
X1199420Y600322D01*
X1199311Y600305D01*
X1199202Y600284D01*
X1199094Y600259D01*
X1198987Y600230D01*
X1198881Y600198D01*
X1198776Y600162D01*
X1198673Y600122D01*
X1198571Y600079D01*
X1198470Y600032D01*
X1198371Y599981D01*
X1198275Y599928D01*
X1198180Y599871D01*
X1198087Y599810D01*
X1197996Y599747D01*
X1197907Y599680D01*
X1197821Y599610D01*
X1197738Y599537D01*
X1197656Y599462D01*
X1197578Y599384D01*
X1197503Y599302D01*
X1197430Y599219D01*
X1197360Y599133D01*
X1197293Y599044D01*
X1197230Y598953D01*
X1197169Y598860D01*
X1197112Y598766D01*
X1197059Y598669D01*
X1197008Y598570D01*
X1196961Y598469D01*
X1196918Y598367D01*
X1196878Y598264D01*
X1196842Y598159D01*
X1196810Y598053D01*
X1196781Y597946D01*
X1196756Y597838D01*
X1196735Y597729D01*
X1196718Y597620D01*
X1196704Y597510D01*
X1196695Y597399D01*
X1196689Y597289D01*
X1196687Y597178D01*
X1196689Y597067D01*
X1196695Y596957D01*
X1196704Y596846D01*
X1196718Y596736D01*
X1196735Y596627D01*
X1196756Y596518D01*
X1196781Y596410D01*
X1196810Y596303D01*
X1196842Y596197D01*
X1196878Y596092D01*
X1196918Y595989D01*
X1196961Y595887D01*
X1197008Y595786D01*
X1197059Y595687D01*
X1197112Y595591D01*
X1197169Y595496D01*
X1197230Y595403D01*
X1197293Y595312D01*
X1197360Y595223D01*
X1197430Y595137D01*
X1197503Y595054D01*
X1197578Y594972D01*
X1197656Y594894D01*
X1197738Y594819D01*
X1197821Y594746D01*
X1197907Y594676D01*
X1197996Y594609D01*
X1198087Y594546D01*
X1198180Y594485D01*
X1198275Y594428D01*
X1198371Y594375D01*
X1198470Y594324D01*
X1198571Y594277D01*
X1198673Y594234D01*
X1198776Y594194D01*
X1198881Y594158D01*
X1198987Y594126D01*
X1199094Y594097D01*
X1199202Y594072D01*
X1199311Y594051D01*
X1199420Y594034D01*
X1199530Y594020D01*
X1199641Y594011D01*
X1199751Y594005D01*
X1199862Y594003D01*
X1203037Y594003D01*
X1192178Y591463D02*
X1189638Y600353D01*
X1192178Y591463D02*
X1185828Y591463D01*
X1187733Y594003D02*
X1187733Y588923D01*
D13*
X1179350Y582700D02*
X1166650Y582700D01*
X1160300Y576350D01*
X1160300Y563650D01*
X1166650Y557300D01*
X1185700Y563650D02*
X1185700Y576350D01*
X1179350Y582700D01*
X1185700Y563650D02*
X1179350Y557300D01*
X1166650Y557300D01*
D10*
X1182017Y591463D02*
X1182017Y600353D01*
X1182017Y591463D02*
X1182019Y591363D01*
X1182025Y591264D01*
X1182035Y591164D01*
X1182048Y591066D01*
X1182066Y590967D01*
X1182087Y590870D01*
X1182112Y590774D01*
X1182141Y590678D01*
X1182174Y590584D01*
X1182210Y590491D01*
X1182250Y590400D01*
X1182294Y590310D01*
X1182341Y590222D01*
X1182391Y590136D01*
X1182445Y590052D01*
X1182502Y589970D01*
X1182562Y589891D01*
X1182626Y589813D01*
X1182692Y589739D01*
X1182761Y589667D01*
X1182833Y589598D01*
X1182907Y589532D01*
X1182985Y589468D01*
X1183064Y589408D01*
X1183146Y589351D01*
X1183230Y589297D01*
X1183316Y589247D01*
X1183404Y589200D01*
X1183494Y589156D01*
X1183585Y589116D01*
X1183678Y589080D01*
X1183772Y589047D01*
X1183868Y589018D01*
X1183964Y588993D01*
X1184061Y588972D01*
X1184160Y588954D01*
X1184258Y588941D01*
X1184358Y588931D01*
X1184457Y588925D01*
X1184557Y588923D01*
X1185827Y588923D01*
X1176037Y588923D02*
X1176037Y600353D01*
X1172862Y600353D01*
X1172751Y600351D01*
X1172641Y600345D01*
X1172530Y600336D01*
X1172420Y600322D01*
X1172311Y600305D01*
X1172202Y600284D01*
X1172094Y600259D01*
X1171987Y600230D01*
X1171881Y600198D01*
X1171776Y600162D01*
X1171673Y600122D01*
X1171571Y600079D01*
X1171470Y600032D01*
X1171371Y599981D01*
X1171275Y599928D01*
X1171180Y599871D01*
X1171087Y599810D01*
X1170996Y599747D01*
X1170907Y599680D01*
X1170821Y599610D01*
X1170738Y599537D01*
X1170656Y599462D01*
X1170578Y599384D01*
X1170503Y599302D01*
X1170430Y599219D01*
X1170360Y599133D01*
X1170293Y599044D01*
X1170230Y598953D01*
X1170169Y598860D01*
X1170112Y598766D01*
X1170059Y598669D01*
X1170008Y598570D01*
X1169961Y598469D01*
X1169918Y598367D01*
X1169878Y598264D01*
X1169842Y598159D01*
X1169810Y598053D01*
X1169781Y597946D01*
X1169756Y597838D01*
X1169735Y597729D01*
X1169718Y597620D01*
X1169704Y597510D01*
X1169695Y597399D01*
X1169689Y597289D01*
X1169687Y597178D01*
X1169689Y597067D01*
X1169695Y596957D01*
X1169704Y596846D01*
X1169718Y596736D01*
X1169735Y596627D01*
X1169756Y596518D01*
X1169781Y596410D01*
X1169810Y596303D01*
X1169842Y596197D01*
X1169878Y596092D01*
X1169918Y595989D01*
X1169961Y595887D01*
X1170008Y595786D01*
X1170059Y595687D01*
X1170112Y595591D01*
X1170169Y595496D01*
X1170230Y595403D01*
X1170293Y595312D01*
X1170360Y595223D01*
X1170430Y595137D01*
X1170503Y595054D01*
X1170578Y594972D01*
X1170656Y594894D01*
X1170738Y594819D01*
X1170821Y594746D01*
X1170907Y594676D01*
X1170996Y594609D01*
X1171087Y594546D01*
X1171180Y594485D01*
X1171275Y594428D01*
X1171371Y594375D01*
X1171470Y594324D01*
X1171571Y594277D01*
X1171673Y594234D01*
X1171776Y594194D01*
X1171881Y594158D01*
X1171987Y594126D01*
X1172094Y594097D01*
X1172202Y594072D01*
X1172311Y594051D01*
X1172420Y594034D01*
X1172530Y594020D01*
X1172641Y594011D01*
X1172751Y594005D01*
X1172862Y594003D01*
X1176037Y594003D01*
X1165178Y588923D02*
X1161368Y588923D01*
X1161268Y588925D01*
X1161169Y588931D01*
X1161069Y588941D01*
X1160971Y588954D01*
X1160872Y588972D01*
X1160775Y588993D01*
X1160679Y589018D01*
X1160583Y589047D01*
X1160489Y589080D01*
X1160396Y589116D01*
X1160305Y589156D01*
X1160215Y589200D01*
X1160127Y589247D01*
X1160041Y589297D01*
X1159957Y589351D01*
X1159875Y589408D01*
X1159796Y589468D01*
X1159718Y589532D01*
X1159644Y589598D01*
X1159572Y589667D01*
X1159503Y589739D01*
X1159437Y589813D01*
X1159373Y589891D01*
X1159313Y589970D01*
X1159256Y590052D01*
X1159202Y590136D01*
X1159152Y590222D01*
X1159105Y590310D01*
X1159061Y590400D01*
X1159021Y590491D01*
X1158985Y590584D01*
X1158952Y590678D01*
X1158923Y590774D01*
X1158898Y590870D01*
X1158877Y590967D01*
X1158859Y591066D01*
X1158846Y591164D01*
X1158836Y591264D01*
X1158830Y591363D01*
X1158828Y591463D01*
X1158828Y592733D01*
X1158830Y592833D01*
X1158836Y592932D01*
X1158846Y593032D01*
X1158859Y593130D01*
X1158877Y593229D01*
X1158898Y593326D01*
X1158923Y593422D01*
X1158952Y593518D01*
X1158985Y593612D01*
X1159021Y593705D01*
X1159061Y593796D01*
X1159105Y593886D01*
X1159152Y593974D01*
X1159202Y594060D01*
X1159256Y594144D01*
X1159313Y594226D01*
X1159373Y594305D01*
X1159437Y594383D01*
X1159503Y594457D01*
X1159572Y594529D01*
X1159644Y594598D01*
X1159718Y594664D01*
X1159796Y594728D01*
X1159875Y594788D01*
X1159957Y594845D01*
X1160041Y594899D01*
X1160127Y594949D01*
X1160215Y594996D01*
X1160305Y595040D01*
X1160396Y595080D01*
X1160489Y595116D01*
X1160583Y595149D01*
X1160679Y595178D01*
X1160775Y595203D01*
X1160872Y595224D01*
X1160971Y595242D01*
X1161069Y595255D01*
X1161169Y595265D01*
X1161268Y595271D01*
X1161368Y595273D01*
X1165178Y595273D01*
X1165178Y600353D01*
X1158828Y600353D01*
X1199600Y370100D02*
X1250400Y370100D01*
X1250400Y352320D01*
X1250400Y337080D01*
X1250400Y326920D02*
X1250400Y311680D01*
X1250400Y293900D01*
X1199600Y293900D01*
X1199600Y370100D01*
X1245320Y352320D02*
X1250400Y352320D01*
X1250400Y337080D02*
X1245320Y337080D01*
X1250400Y337080D02*
X1250400Y326920D01*
X1245320Y326920D01*
X1245320Y311680D02*
X1250400Y311680D01*
X1245320Y337080D02*
X1245320Y352320D01*
X1245320Y326920D02*
X1245320Y311680D01*
D12*
X1196806Y308806D02*
X1192460Y308806D01*
X1192390Y308804D01*
X1192321Y308798D01*
X1192252Y308788D01*
X1192184Y308775D01*
X1192116Y308757D01*
X1192050Y308736D01*
X1191985Y308711D01*
X1191921Y308683D01*
X1191859Y308651D01*
X1191799Y308616D01*
X1191741Y308577D01*
X1191686Y308535D01*
X1191632Y308490D01*
X1191582Y308442D01*
X1191534Y308392D01*
X1191489Y308338D01*
X1191447Y308283D01*
X1191408Y308225D01*
X1191373Y308165D01*
X1191341Y308103D01*
X1191313Y308039D01*
X1191288Y307974D01*
X1191267Y307908D01*
X1191249Y307840D01*
X1191236Y307772D01*
X1191226Y307703D01*
X1191220Y307634D01*
X1191218Y307564D01*
X1191218Y306943D01*
X1191218Y313028D02*
X1191220Y313098D01*
X1191226Y313167D01*
X1191236Y313236D01*
X1191249Y313304D01*
X1191267Y313372D01*
X1191288Y313438D01*
X1191313Y313503D01*
X1191341Y313567D01*
X1191373Y313629D01*
X1191408Y313689D01*
X1191447Y313747D01*
X1191489Y313802D01*
X1191534Y313856D01*
X1191582Y313906D01*
X1191632Y313954D01*
X1191686Y313999D01*
X1191741Y314041D01*
X1191799Y314080D01*
X1191859Y314115D01*
X1191921Y314147D01*
X1191985Y314175D01*
X1192050Y314200D01*
X1192116Y314221D01*
X1192184Y314239D01*
X1192252Y314252D01*
X1192321Y314262D01*
X1192390Y314268D01*
X1192460Y314270D01*
X1191218Y313028D02*
X1191220Y312929D01*
X1191225Y312831D01*
X1191235Y312733D01*
X1191248Y312635D01*
X1191264Y312538D01*
X1191284Y312441D01*
X1191308Y312346D01*
X1191336Y312251D01*
X1191367Y312157D01*
X1191401Y312065D01*
X1191439Y311974D01*
X1191480Y311884D01*
X1191525Y311796D01*
X1191573Y311710D01*
X1191624Y311626D01*
X1191678Y311544D01*
X1191736Y311463D01*
X1191796Y311385D01*
X1191859Y311310D01*
X1191925Y311236D01*
X1191994Y311166D01*
X1195564Y311320D02*
X1195634Y311322D01*
X1195703Y311328D01*
X1195772Y311338D01*
X1195840Y311351D01*
X1195908Y311369D01*
X1195974Y311390D01*
X1196039Y311415D01*
X1196103Y311443D01*
X1196165Y311475D01*
X1196225Y311510D01*
X1196283Y311549D01*
X1196338Y311591D01*
X1196392Y311636D01*
X1196442Y311684D01*
X1196490Y311734D01*
X1196535Y311788D01*
X1196577Y311843D01*
X1196616Y311901D01*
X1196651Y311961D01*
X1196683Y312023D01*
X1196711Y312087D01*
X1196736Y312152D01*
X1196757Y312218D01*
X1196775Y312286D01*
X1196788Y312354D01*
X1196798Y312423D01*
X1196804Y312492D01*
X1196806Y312562D01*
X1196804Y312656D01*
X1196798Y312749D01*
X1196789Y312842D01*
X1196776Y312935D01*
X1196759Y313027D01*
X1196739Y313118D01*
X1196714Y313209D01*
X1196687Y313298D01*
X1196655Y313386D01*
X1196620Y313473D01*
X1196582Y313559D01*
X1196540Y313642D01*
X1196495Y313724D01*
X1196447Y313805D01*
X1196395Y313883D01*
X1196340Y313959D01*
X1194478Y311941D02*
X1194514Y311882D01*
X1194554Y311826D01*
X1194597Y311772D01*
X1194642Y311720D01*
X1194691Y311671D01*
X1194742Y311625D01*
X1194795Y311582D01*
X1194851Y311541D01*
X1194909Y311504D01*
X1194969Y311469D01*
X1195030Y311439D01*
X1195093Y311411D01*
X1195158Y311387D01*
X1195224Y311367D01*
X1195291Y311350D01*
X1195358Y311337D01*
X1195426Y311328D01*
X1195495Y311322D01*
X1195564Y311320D01*
X1193546Y313648D02*
X1193510Y313707D01*
X1193470Y313763D01*
X1193427Y313817D01*
X1193382Y313869D01*
X1193333Y313918D01*
X1193282Y313964D01*
X1193229Y314007D01*
X1193173Y314048D01*
X1193115Y314085D01*
X1193055Y314120D01*
X1192994Y314150D01*
X1192931Y314178D01*
X1192866Y314202D01*
X1192800Y314222D01*
X1192733Y314239D01*
X1192666Y314252D01*
X1192598Y314261D01*
X1192529Y314267D01*
X1192460Y314269D01*
X1193546Y313648D02*
X1194478Y311941D01*
X1196806Y317655D02*
X1191218Y317655D01*
X1196806Y316103D02*
X1196806Y319207D01*
X1196806Y325857D02*
X1196804Y325930D01*
X1196798Y326003D01*
X1196789Y326076D01*
X1196775Y326147D01*
X1196758Y326219D01*
X1196738Y326289D01*
X1196713Y326358D01*
X1196685Y326425D01*
X1196654Y326491D01*
X1196619Y326556D01*
X1196581Y326618D01*
X1196539Y326678D01*
X1196495Y326736D01*
X1196447Y326792D01*
X1196397Y326845D01*
X1196344Y326895D01*
X1196288Y326943D01*
X1196230Y326987D01*
X1196170Y327029D01*
X1196108Y327067D01*
X1196043Y327102D01*
X1195977Y327133D01*
X1195910Y327161D01*
X1195841Y327186D01*
X1195771Y327206D01*
X1195699Y327223D01*
X1195628Y327237D01*
X1195555Y327246D01*
X1195482Y327252D01*
X1195409Y327254D01*
X1196806Y325857D02*
X1196804Y325773D01*
X1196798Y325690D01*
X1196789Y325607D01*
X1196775Y325525D01*
X1196758Y325443D01*
X1196736Y325362D01*
X1196711Y325282D01*
X1196683Y325204D01*
X1196651Y325126D01*
X1196615Y325051D01*
X1196576Y324977D01*
X1196533Y324905D01*
X1196487Y324835D01*
X1196438Y324768D01*
X1196385Y324702D01*
X1196330Y324640D01*
X1196272Y324580D01*
X1196211Y324522D01*
X1196148Y324468D01*
X1196082Y324416D01*
X1196014Y324368D01*
X1195943Y324323D01*
X1195871Y324281D01*
X1195796Y324243D01*
X1195720Y324208D01*
X1195643Y324177D01*
X1195564Y324149D01*
X1194323Y326787D02*
X1194376Y326841D01*
X1194433Y326892D01*
X1194492Y326940D01*
X1194553Y326985D01*
X1194616Y327026D01*
X1194682Y327065D01*
X1194749Y327100D01*
X1194818Y327132D01*
X1194889Y327160D01*
X1194960Y327184D01*
X1195033Y327205D01*
X1195107Y327222D01*
X1195182Y327236D01*
X1195257Y327245D01*
X1195333Y327251D01*
X1195409Y327253D01*
X1194322Y326788D02*
X1191218Y324149D01*
X1191218Y327254D01*
X1191218Y329387D02*
X1191528Y329387D01*
X1191528Y329697D01*
X1191218Y329697D01*
X1191218Y329387D01*
X1191218Y331830D02*
X1191218Y333693D01*
X1191220Y333763D01*
X1191226Y333832D01*
X1191236Y333901D01*
X1191249Y333969D01*
X1191267Y334037D01*
X1191288Y334103D01*
X1191313Y334168D01*
X1191341Y334232D01*
X1191373Y334294D01*
X1191408Y334354D01*
X1191447Y334412D01*
X1191489Y334467D01*
X1191534Y334521D01*
X1191582Y334571D01*
X1191632Y334619D01*
X1191686Y334664D01*
X1191741Y334706D01*
X1191799Y334745D01*
X1191859Y334780D01*
X1191921Y334812D01*
X1191985Y334840D01*
X1192050Y334865D01*
X1192116Y334886D01*
X1192184Y334904D01*
X1192252Y334917D01*
X1192321Y334927D01*
X1192390Y334933D01*
X1192460Y334935D01*
X1193081Y334935D01*
X1193151Y334933D01*
X1193220Y334927D01*
X1193289Y334917D01*
X1193357Y334904D01*
X1193425Y334886D01*
X1193491Y334865D01*
X1193556Y334840D01*
X1193620Y334812D01*
X1193682Y334780D01*
X1193742Y334745D01*
X1193800Y334706D01*
X1193855Y334664D01*
X1193909Y334619D01*
X1193959Y334571D01*
X1194007Y334521D01*
X1194052Y334467D01*
X1194094Y334412D01*
X1194133Y334354D01*
X1194168Y334294D01*
X1194200Y334232D01*
X1194228Y334168D01*
X1194253Y334103D01*
X1194274Y334037D01*
X1194292Y333969D01*
X1194305Y333901D01*
X1194315Y333832D01*
X1194321Y333763D01*
X1194323Y333693D01*
X1194322Y333693D02*
X1194322Y331830D01*
X1196806Y331830D01*
X1196806Y334935D01*
X1196806Y338558D02*
X1192460Y337317D01*
X1192460Y340421D01*
X1193702Y339490D02*
X1191218Y339490D01*
X1191218Y342493D02*
X1196806Y346218D01*
X1196806Y342493D02*
X1191218Y346218D01*
X1195409Y351394D02*
X1195482Y351392D01*
X1195555Y351386D01*
X1195628Y351377D01*
X1195699Y351363D01*
X1195771Y351346D01*
X1195841Y351326D01*
X1195910Y351301D01*
X1195977Y351273D01*
X1196043Y351242D01*
X1196108Y351207D01*
X1196170Y351169D01*
X1196230Y351127D01*
X1196288Y351083D01*
X1196344Y351035D01*
X1196397Y350985D01*
X1196447Y350932D01*
X1196495Y350876D01*
X1196539Y350818D01*
X1196581Y350758D01*
X1196619Y350696D01*
X1196654Y350631D01*
X1196685Y350565D01*
X1196713Y350498D01*
X1196738Y350429D01*
X1196758Y350359D01*
X1196775Y350287D01*
X1196789Y350216D01*
X1196798Y350143D01*
X1196804Y350070D01*
X1196806Y349997D01*
X1196804Y349913D01*
X1196798Y349830D01*
X1196789Y349747D01*
X1196775Y349665D01*
X1196758Y349583D01*
X1196736Y349502D01*
X1196711Y349422D01*
X1196683Y349344D01*
X1196651Y349266D01*
X1196615Y349191D01*
X1196576Y349117D01*
X1196533Y349045D01*
X1196487Y348975D01*
X1196438Y348908D01*
X1196385Y348842D01*
X1196330Y348780D01*
X1196272Y348720D01*
X1196211Y348662D01*
X1196148Y348608D01*
X1196082Y348556D01*
X1196014Y348508D01*
X1195943Y348463D01*
X1195871Y348421D01*
X1195796Y348383D01*
X1195720Y348348D01*
X1195643Y348317D01*
X1195564Y348289D01*
X1194323Y350927D02*
X1194376Y350981D01*
X1194433Y351032D01*
X1194492Y351080D01*
X1194553Y351125D01*
X1194616Y351166D01*
X1194682Y351205D01*
X1194749Y351240D01*
X1194818Y351272D01*
X1194889Y351300D01*
X1194960Y351324D01*
X1195033Y351345D01*
X1195107Y351362D01*
X1195182Y351376D01*
X1195257Y351385D01*
X1195333Y351391D01*
X1195409Y351393D01*
X1194322Y350928D02*
X1191218Y348289D01*
X1191218Y351394D01*
X1191218Y354042D02*
X1196806Y354042D01*
X1196806Y355594D01*
X1196804Y355671D01*
X1196798Y355749D01*
X1196789Y355825D01*
X1196775Y355902D01*
X1196758Y355977D01*
X1196737Y356051D01*
X1196712Y356125D01*
X1196684Y356197D01*
X1196652Y356267D01*
X1196617Y356336D01*
X1196578Y356403D01*
X1196536Y356468D01*
X1196491Y356531D01*
X1196443Y356592D01*
X1196392Y356650D01*
X1196338Y356705D01*
X1196281Y356758D01*
X1196222Y356807D01*
X1196160Y356854D01*
X1196096Y356898D01*
X1196030Y356938D01*
X1195962Y356975D01*
X1195892Y357009D01*
X1195821Y357039D01*
X1195748Y357065D01*
X1195674Y357088D01*
X1195599Y357107D01*
X1195524Y357122D01*
X1195447Y357134D01*
X1195370Y357142D01*
X1195293Y357146D01*
X1195215Y357146D01*
X1195138Y357142D01*
X1195061Y357134D01*
X1194984Y357122D01*
X1194909Y357107D01*
X1194834Y357088D01*
X1194760Y357065D01*
X1194687Y357039D01*
X1194616Y357009D01*
X1194546Y356975D01*
X1194478Y356938D01*
X1194412Y356898D01*
X1194348Y356854D01*
X1194286Y356807D01*
X1194227Y356758D01*
X1194170Y356705D01*
X1194116Y356650D01*
X1194065Y356592D01*
X1194017Y356531D01*
X1193972Y356468D01*
X1193930Y356403D01*
X1193891Y356336D01*
X1193856Y356267D01*
X1193824Y356197D01*
X1193796Y356125D01*
X1193771Y356051D01*
X1193750Y355977D01*
X1193733Y355902D01*
X1193719Y355825D01*
X1193710Y355749D01*
X1193704Y355671D01*
X1193702Y355594D01*
X1193702Y354042D01*
D13*
X331430Y190790D02*
X331428Y190690D01*
X331422Y190591D01*
X331412Y190491D01*
X331399Y190393D01*
X331381Y190294D01*
X331360Y190197D01*
X331335Y190101D01*
X331306Y190005D01*
X331273Y189911D01*
X331237Y189818D01*
X331197Y189727D01*
X331153Y189637D01*
X331106Y189549D01*
X331056Y189463D01*
X331002Y189379D01*
X330945Y189297D01*
X330885Y189218D01*
X330821Y189140D01*
X330755Y189066D01*
X330686Y188994D01*
X330614Y188925D01*
X330540Y188859D01*
X330462Y188795D01*
X330383Y188735D01*
X330301Y188678D01*
X330217Y188624D01*
X330131Y188574D01*
X330043Y188527D01*
X329953Y188483D01*
X329862Y188443D01*
X329769Y188407D01*
X329675Y188374D01*
X329579Y188345D01*
X329483Y188320D01*
X329386Y188299D01*
X329287Y188281D01*
X329189Y188268D01*
X329089Y188258D01*
X328990Y188252D01*
X328890Y188250D01*
X311110Y188250D02*
X311010Y188252D01*
X310911Y188258D01*
X310811Y188268D01*
X310713Y188281D01*
X310614Y188299D01*
X310517Y188320D01*
X310421Y188345D01*
X310325Y188374D01*
X310231Y188407D01*
X310138Y188443D01*
X310047Y188483D01*
X309957Y188527D01*
X309869Y188574D01*
X309783Y188624D01*
X309699Y188678D01*
X309617Y188735D01*
X309538Y188795D01*
X309460Y188859D01*
X309386Y188925D01*
X309314Y188994D01*
X309245Y189066D01*
X309179Y189140D01*
X309115Y189218D01*
X309055Y189297D01*
X308998Y189379D01*
X308944Y189463D01*
X308894Y189549D01*
X308847Y189637D01*
X308803Y189727D01*
X308763Y189818D01*
X308727Y189911D01*
X308694Y190005D01*
X308665Y190101D01*
X308640Y190197D01*
X308619Y190294D01*
X308601Y190393D01*
X308588Y190491D01*
X308578Y190591D01*
X308572Y190690D01*
X308570Y190790D01*
X308570Y249210D02*
X308572Y249310D01*
X308578Y249409D01*
X308588Y249509D01*
X308601Y249607D01*
X308619Y249706D01*
X308640Y249803D01*
X308665Y249899D01*
X308694Y249995D01*
X308727Y250089D01*
X308763Y250182D01*
X308803Y250273D01*
X308847Y250363D01*
X308894Y250451D01*
X308944Y250537D01*
X308998Y250621D01*
X309055Y250703D01*
X309115Y250782D01*
X309179Y250860D01*
X309245Y250934D01*
X309314Y251006D01*
X309386Y251075D01*
X309460Y251141D01*
X309538Y251205D01*
X309617Y251265D01*
X309699Y251322D01*
X309783Y251376D01*
X309869Y251426D01*
X309957Y251473D01*
X310047Y251517D01*
X310138Y251557D01*
X310231Y251593D01*
X310325Y251626D01*
X310421Y251655D01*
X310517Y251680D01*
X310614Y251701D01*
X310713Y251719D01*
X310811Y251732D01*
X310911Y251742D01*
X311010Y251748D01*
X311110Y251750D01*
X328890Y251750D02*
X328990Y251748D01*
X329089Y251742D01*
X329189Y251732D01*
X329287Y251719D01*
X329386Y251701D01*
X329483Y251680D01*
X329579Y251655D01*
X329675Y251626D01*
X329769Y251593D01*
X329862Y251557D01*
X329953Y251517D01*
X330043Y251473D01*
X330131Y251426D01*
X330217Y251376D01*
X330301Y251322D01*
X330383Y251265D01*
X330462Y251205D01*
X330540Y251141D01*
X330614Y251075D01*
X330686Y251006D01*
X330755Y250934D01*
X330821Y250860D01*
X330885Y250782D01*
X330945Y250703D01*
X331002Y250621D01*
X331056Y250537D01*
X331106Y250451D01*
X331153Y250363D01*
X331197Y250273D01*
X331237Y250182D01*
X331273Y250089D01*
X331306Y249995D01*
X331335Y249899D01*
X331360Y249803D01*
X331381Y249706D01*
X331399Y249607D01*
X331412Y249509D01*
X331422Y249409D01*
X331428Y249310D01*
X331430Y249210D01*
X328890Y188250D02*
X311110Y188250D01*
X331430Y190790D02*
X331430Y194600D01*
X330160Y195870D01*
X308570Y194600D02*
X308570Y190790D01*
X308570Y194600D02*
X309840Y195870D01*
X330160Y244130D02*
X331430Y245400D01*
X330160Y244130D02*
X330160Y195870D01*
X309840Y244130D02*
X308570Y245400D01*
X309840Y244130D02*
X309840Y195870D01*
X331430Y245400D02*
X331430Y249210D01*
X308570Y249210D02*
X308570Y245400D01*
X311110Y251750D02*
X328890Y251750D01*
D14*
X320000Y256068D03*
X320000Y183932D03*
D10*
X335875Y190155D02*
X347305Y190155D01*
X347305Y193330D01*
X347303Y193441D01*
X347297Y193551D01*
X347288Y193662D01*
X347274Y193772D01*
X347257Y193881D01*
X347236Y193990D01*
X347211Y194098D01*
X347182Y194205D01*
X347150Y194311D01*
X347114Y194416D01*
X347074Y194519D01*
X347031Y194621D01*
X346984Y194722D01*
X346933Y194821D01*
X346880Y194918D01*
X346823Y195012D01*
X346762Y195105D01*
X346699Y195196D01*
X346632Y195285D01*
X346562Y195371D01*
X346489Y195454D01*
X346414Y195536D01*
X346336Y195614D01*
X346254Y195689D01*
X346171Y195762D01*
X346085Y195832D01*
X345996Y195899D01*
X345905Y195962D01*
X345812Y196023D01*
X345718Y196080D01*
X345621Y196133D01*
X345522Y196184D01*
X345421Y196231D01*
X345319Y196274D01*
X345216Y196314D01*
X345111Y196350D01*
X345005Y196382D01*
X344898Y196411D01*
X344790Y196436D01*
X344681Y196457D01*
X344572Y196474D01*
X344462Y196488D01*
X344351Y196497D01*
X344241Y196503D01*
X344130Y196505D01*
X344019Y196503D01*
X343909Y196497D01*
X343798Y196488D01*
X343688Y196474D01*
X343579Y196457D01*
X343470Y196436D01*
X343362Y196411D01*
X343255Y196382D01*
X343149Y196350D01*
X343044Y196314D01*
X342941Y196274D01*
X342839Y196231D01*
X342738Y196184D01*
X342639Y196133D01*
X342543Y196080D01*
X342448Y196023D01*
X342355Y195962D01*
X342264Y195899D01*
X342175Y195832D01*
X342089Y195762D01*
X342006Y195689D01*
X341924Y195614D01*
X341846Y195536D01*
X341771Y195454D01*
X341698Y195371D01*
X341628Y195285D01*
X341561Y195196D01*
X341498Y195105D01*
X341437Y195012D01*
X341380Y194918D01*
X341327Y194821D01*
X341276Y194722D01*
X341229Y194621D01*
X341186Y194519D01*
X341146Y194416D01*
X341110Y194311D01*
X341078Y194205D01*
X341049Y194098D01*
X341024Y193990D01*
X341003Y193881D01*
X340986Y193772D01*
X340972Y193662D01*
X340963Y193551D01*
X340957Y193441D01*
X340955Y193330D01*
X340955Y190155D01*
X340955Y193965D02*
X335875Y196505D01*
X344765Y201502D02*
X347305Y204677D01*
X335875Y204677D01*
X335875Y201502D02*
X335875Y207852D01*
D13*
X291430Y190790D02*
X291428Y190690D01*
X291422Y190591D01*
X291412Y190491D01*
X291399Y190393D01*
X291381Y190294D01*
X291360Y190197D01*
X291335Y190101D01*
X291306Y190005D01*
X291273Y189911D01*
X291237Y189818D01*
X291197Y189727D01*
X291153Y189637D01*
X291106Y189549D01*
X291056Y189463D01*
X291002Y189379D01*
X290945Y189297D01*
X290885Y189218D01*
X290821Y189140D01*
X290755Y189066D01*
X290686Y188994D01*
X290614Y188925D01*
X290540Y188859D01*
X290462Y188795D01*
X290383Y188735D01*
X290301Y188678D01*
X290217Y188624D01*
X290131Y188574D01*
X290043Y188527D01*
X289953Y188483D01*
X289862Y188443D01*
X289769Y188407D01*
X289675Y188374D01*
X289579Y188345D01*
X289483Y188320D01*
X289386Y188299D01*
X289287Y188281D01*
X289189Y188268D01*
X289089Y188258D01*
X288990Y188252D01*
X288890Y188250D01*
X271110Y188250D02*
X271010Y188252D01*
X270911Y188258D01*
X270811Y188268D01*
X270713Y188281D01*
X270614Y188299D01*
X270517Y188320D01*
X270421Y188345D01*
X270325Y188374D01*
X270231Y188407D01*
X270138Y188443D01*
X270047Y188483D01*
X269957Y188527D01*
X269869Y188574D01*
X269783Y188624D01*
X269699Y188678D01*
X269617Y188735D01*
X269538Y188795D01*
X269460Y188859D01*
X269386Y188925D01*
X269314Y188994D01*
X269245Y189066D01*
X269179Y189140D01*
X269115Y189218D01*
X269055Y189297D01*
X268998Y189379D01*
X268944Y189463D01*
X268894Y189549D01*
X268847Y189637D01*
X268803Y189727D01*
X268763Y189818D01*
X268727Y189911D01*
X268694Y190005D01*
X268665Y190101D01*
X268640Y190197D01*
X268619Y190294D01*
X268601Y190393D01*
X268588Y190491D01*
X268578Y190591D01*
X268572Y190690D01*
X268570Y190790D01*
X268570Y249210D02*
X268572Y249310D01*
X268578Y249409D01*
X268588Y249509D01*
X268601Y249607D01*
X268619Y249706D01*
X268640Y249803D01*
X268665Y249899D01*
X268694Y249995D01*
X268727Y250089D01*
X268763Y250182D01*
X268803Y250273D01*
X268847Y250363D01*
X268894Y250451D01*
X268944Y250537D01*
X268998Y250621D01*
X269055Y250703D01*
X269115Y250782D01*
X269179Y250860D01*
X269245Y250934D01*
X269314Y251006D01*
X269386Y251075D01*
X269460Y251141D01*
X269538Y251205D01*
X269617Y251265D01*
X269699Y251322D01*
X269783Y251376D01*
X269869Y251426D01*
X269957Y251473D01*
X270047Y251517D01*
X270138Y251557D01*
X270231Y251593D01*
X270325Y251626D01*
X270421Y251655D01*
X270517Y251680D01*
X270614Y251701D01*
X270713Y251719D01*
X270811Y251732D01*
X270911Y251742D01*
X271010Y251748D01*
X271110Y251750D01*
X288890Y251750D02*
X288990Y251748D01*
X289089Y251742D01*
X289189Y251732D01*
X289287Y251719D01*
X289386Y251701D01*
X289483Y251680D01*
X289579Y251655D01*
X289675Y251626D01*
X289769Y251593D01*
X289862Y251557D01*
X289953Y251517D01*
X290043Y251473D01*
X290131Y251426D01*
X290217Y251376D01*
X290301Y251322D01*
X290383Y251265D01*
X290462Y251205D01*
X290540Y251141D01*
X290614Y251075D01*
X290686Y251006D01*
X290755Y250934D01*
X290821Y250860D01*
X290885Y250782D01*
X290945Y250703D01*
X291002Y250621D01*
X291056Y250537D01*
X291106Y250451D01*
X291153Y250363D01*
X291197Y250273D01*
X291237Y250182D01*
X291273Y250089D01*
X291306Y249995D01*
X291335Y249899D01*
X291360Y249803D01*
X291381Y249706D01*
X291399Y249607D01*
X291412Y249509D01*
X291422Y249409D01*
X291428Y249310D01*
X291430Y249210D01*
X288890Y188250D02*
X271110Y188250D01*
X291430Y190790D02*
X291430Y194600D01*
X290160Y195870D01*
X268570Y194600D02*
X268570Y190790D01*
X268570Y194600D02*
X269840Y195870D01*
X290160Y244130D02*
X291430Y245400D01*
X290160Y244130D02*
X290160Y195870D01*
X269840Y244130D02*
X268570Y245400D01*
X269840Y244130D02*
X269840Y195870D01*
X291430Y245400D02*
X291430Y249210D01*
X268570Y249210D02*
X268570Y245400D01*
X271110Y251750D02*
X288890Y251750D01*
D14*
X280000Y256068D03*
X280000Y183932D03*
D10*
X295875Y190155D02*
X307305Y190155D01*
X307305Y193330D01*
X307303Y193441D01*
X307297Y193551D01*
X307288Y193662D01*
X307274Y193772D01*
X307257Y193881D01*
X307236Y193990D01*
X307211Y194098D01*
X307182Y194205D01*
X307150Y194311D01*
X307114Y194416D01*
X307074Y194519D01*
X307031Y194621D01*
X306984Y194722D01*
X306933Y194821D01*
X306880Y194918D01*
X306823Y195012D01*
X306762Y195105D01*
X306699Y195196D01*
X306632Y195285D01*
X306562Y195371D01*
X306489Y195454D01*
X306414Y195536D01*
X306336Y195614D01*
X306254Y195689D01*
X306171Y195762D01*
X306085Y195832D01*
X305996Y195899D01*
X305905Y195962D01*
X305812Y196023D01*
X305718Y196080D01*
X305621Y196133D01*
X305522Y196184D01*
X305421Y196231D01*
X305319Y196274D01*
X305216Y196314D01*
X305111Y196350D01*
X305005Y196382D01*
X304898Y196411D01*
X304790Y196436D01*
X304681Y196457D01*
X304572Y196474D01*
X304462Y196488D01*
X304351Y196497D01*
X304241Y196503D01*
X304130Y196505D01*
X304019Y196503D01*
X303909Y196497D01*
X303798Y196488D01*
X303688Y196474D01*
X303579Y196457D01*
X303470Y196436D01*
X303362Y196411D01*
X303255Y196382D01*
X303149Y196350D01*
X303044Y196314D01*
X302941Y196274D01*
X302839Y196231D01*
X302738Y196184D01*
X302639Y196133D01*
X302543Y196080D01*
X302448Y196023D01*
X302355Y195962D01*
X302264Y195899D01*
X302175Y195832D01*
X302089Y195762D01*
X302006Y195689D01*
X301924Y195614D01*
X301846Y195536D01*
X301771Y195454D01*
X301698Y195371D01*
X301628Y195285D01*
X301561Y195196D01*
X301498Y195105D01*
X301437Y195012D01*
X301380Y194918D01*
X301327Y194821D01*
X301276Y194722D01*
X301229Y194621D01*
X301186Y194519D01*
X301146Y194416D01*
X301110Y194311D01*
X301078Y194205D01*
X301049Y194098D01*
X301024Y193990D01*
X301003Y193881D01*
X300986Y193772D01*
X300972Y193662D01*
X300963Y193551D01*
X300957Y193441D01*
X300955Y193330D01*
X300955Y190155D01*
X300955Y193965D02*
X295875Y196505D01*
X304448Y207853D02*
X304552Y207851D01*
X304657Y207845D01*
X304761Y207836D01*
X304864Y207823D01*
X304967Y207805D01*
X305069Y207785D01*
X305171Y207760D01*
X305271Y207732D01*
X305371Y207700D01*
X305469Y207664D01*
X305566Y207625D01*
X305661Y207583D01*
X305755Y207537D01*
X305847Y207487D01*
X305937Y207435D01*
X306025Y207379D01*
X306111Y207319D01*
X306195Y207257D01*
X306276Y207192D01*
X306355Y207124D01*
X306432Y207052D01*
X306505Y206979D01*
X306577Y206902D01*
X306645Y206823D01*
X306710Y206742D01*
X306772Y206658D01*
X306832Y206572D01*
X306888Y206484D01*
X306940Y206394D01*
X306990Y206302D01*
X307036Y206208D01*
X307078Y206113D01*
X307117Y206016D01*
X307153Y205918D01*
X307185Y205818D01*
X307213Y205718D01*
X307238Y205616D01*
X307258Y205514D01*
X307276Y205411D01*
X307289Y205308D01*
X307298Y205204D01*
X307304Y205099D01*
X307306Y204995D01*
X307305Y204995D02*
X307303Y204877D01*
X307297Y204758D01*
X307288Y204640D01*
X307275Y204523D01*
X307257Y204406D01*
X307237Y204289D01*
X307212Y204173D01*
X307184Y204058D01*
X307151Y203945D01*
X307116Y203832D01*
X307076Y203720D01*
X307034Y203610D01*
X306987Y203501D01*
X306937Y203393D01*
X306884Y203288D01*
X306827Y203184D01*
X306767Y203082D01*
X306704Y202982D01*
X306637Y202884D01*
X306568Y202788D01*
X306495Y202695D01*
X306419Y202604D01*
X306341Y202515D01*
X306259Y202429D01*
X306175Y202346D01*
X306089Y202265D01*
X305999Y202188D01*
X305908Y202113D01*
X305814Y202041D01*
X305717Y201972D01*
X305619Y201907D01*
X305518Y201844D01*
X305415Y201785D01*
X305311Y201729D01*
X305205Y201677D01*
X305097Y201628D01*
X304988Y201583D01*
X304877Y201541D01*
X304765Y201503D01*
X302226Y206900D02*
X302301Y206976D01*
X302380Y207051D01*
X302461Y207122D01*
X302545Y207191D01*
X302631Y207256D01*
X302719Y207318D01*
X302809Y207378D01*
X302901Y207434D01*
X302996Y207487D01*
X303092Y207536D01*
X303190Y207582D01*
X303289Y207625D01*
X303390Y207664D01*
X303492Y207699D01*
X303595Y207731D01*
X303699Y207759D01*
X303804Y207784D01*
X303911Y207805D01*
X304017Y207822D01*
X304124Y207835D01*
X304232Y207844D01*
X304340Y207850D01*
X304448Y207852D01*
X302225Y206900D02*
X295875Y201502D01*
X295875Y207852D01*
M02*
