G04 EAGLE Gerber RS-274X export*
G75*
%MOMM*%
%FSLAX34Y34*%
%LPD*%
%INSilkscreen Top*%
%IPPOS*%
%AMOC8*
5,1,8,0,0,1.08239X$1,22.5*%
G01*
%ADD10C,0.127000*%
%ADD11C,0.101600*%


D10*
X1006300Y203600D02*
X1006300Y53600D01*
X1116300Y53600D01*
X1116300Y203600D01*
X1006300Y203600D01*
D11*
X1064071Y99051D02*
X1064071Y95805D01*
X1064070Y99051D02*
X1064072Y99164D01*
X1064078Y99277D01*
X1064088Y99390D01*
X1064102Y99503D01*
X1064119Y99615D01*
X1064141Y99726D01*
X1064166Y99836D01*
X1064196Y99946D01*
X1064229Y100054D01*
X1064266Y100161D01*
X1064306Y100267D01*
X1064351Y100371D01*
X1064399Y100474D01*
X1064450Y100575D01*
X1064505Y100674D01*
X1064563Y100771D01*
X1064625Y100866D01*
X1064690Y100959D01*
X1064758Y101049D01*
X1064829Y101137D01*
X1064904Y101223D01*
X1064981Y101306D01*
X1065061Y101386D01*
X1065144Y101463D01*
X1065230Y101538D01*
X1065318Y101609D01*
X1065408Y101677D01*
X1065501Y101742D01*
X1065596Y101804D01*
X1065693Y101862D01*
X1065792Y101917D01*
X1065893Y101968D01*
X1065996Y102016D01*
X1066100Y102061D01*
X1066206Y102101D01*
X1066313Y102138D01*
X1066421Y102171D01*
X1066531Y102201D01*
X1066641Y102226D01*
X1066752Y102248D01*
X1066864Y102265D01*
X1066977Y102279D01*
X1067090Y102289D01*
X1067203Y102295D01*
X1067316Y102297D01*
X1067429Y102295D01*
X1067542Y102289D01*
X1067655Y102279D01*
X1067768Y102265D01*
X1067880Y102248D01*
X1067991Y102226D01*
X1068101Y102201D01*
X1068211Y102171D01*
X1068319Y102138D01*
X1068426Y102101D01*
X1068532Y102061D01*
X1068636Y102016D01*
X1068739Y101968D01*
X1068840Y101917D01*
X1068939Y101862D01*
X1069036Y101804D01*
X1069131Y101742D01*
X1069224Y101677D01*
X1069314Y101609D01*
X1069402Y101538D01*
X1069488Y101463D01*
X1069571Y101386D01*
X1069651Y101306D01*
X1069728Y101223D01*
X1069803Y101137D01*
X1069874Y101049D01*
X1069942Y100959D01*
X1070007Y100866D01*
X1070069Y100771D01*
X1070127Y100674D01*
X1070182Y100575D01*
X1070233Y100474D01*
X1070281Y100371D01*
X1070326Y100267D01*
X1070366Y100161D01*
X1070403Y100054D01*
X1070436Y99946D01*
X1070466Y99836D01*
X1070491Y99726D01*
X1070513Y99615D01*
X1070530Y99503D01*
X1070544Y99390D01*
X1070554Y99277D01*
X1070560Y99164D01*
X1070562Y99051D01*
X1070562Y95805D01*
X1058878Y95805D01*
X1058878Y99051D01*
X1058880Y99152D01*
X1058886Y99252D01*
X1058896Y99352D01*
X1058909Y99452D01*
X1058927Y99551D01*
X1058948Y99650D01*
X1058973Y99747D01*
X1059002Y99844D01*
X1059035Y99939D01*
X1059071Y100033D01*
X1059111Y100125D01*
X1059154Y100216D01*
X1059201Y100305D01*
X1059251Y100392D01*
X1059305Y100478D01*
X1059362Y100561D01*
X1059422Y100641D01*
X1059485Y100720D01*
X1059552Y100796D01*
X1059621Y100869D01*
X1059693Y100939D01*
X1059767Y101007D01*
X1059844Y101072D01*
X1059924Y101133D01*
X1060006Y101192D01*
X1060090Y101247D01*
X1060176Y101299D01*
X1060264Y101348D01*
X1060354Y101393D01*
X1060446Y101435D01*
X1060539Y101473D01*
X1060634Y101507D01*
X1060729Y101538D01*
X1060826Y101565D01*
X1060924Y101588D01*
X1061023Y101608D01*
X1061123Y101623D01*
X1061223Y101635D01*
X1061323Y101643D01*
X1061424Y101647D01*
X1061524Y101647D01*
X1061625Y101643D01*
X1061725Y101635D01*
X1061825Y101623D01*
X1061925Y101608D01*
X1062024Y101588D01*
X1062122Y101565D01*
X1062219Y101538D01*
X1062314Y101507D01*
X1062409Y101473D01*
X1062502Y101435D01*
X1062594Y101393D01*
X1062684Y101348D01*
X1062772Y101299D01*
X1062858Y101247D01*
X1062942Y101192D01*
X1063024Y101133D01*
X1063104Y101072D01*
X1063181Y101007D01*
X1063255Y100939D01*
X1063327Y100869D01*
X1063396Y100796D01*
X1063463Y100720D01*
X1063526Y100641D01*
X1063586Y100561D01*
X1063643Y100478D01*
X1063697Y100392D01*
X1063747Y100305D01*
X1063794Y100216D01*
X1063837Y100125D01*
X1063877Y100033D01*
X1063913Y99939D01*
X1063946Y99844D01*
X1063975Y99747D01*
X1064000Y99650D01*
X1064021Y99551D01*
X1064039Y99452D01*
X1064052Y99352D01*
X1064062Y99252D01*
X1064068Y99152D01*
X1064070Y99051D01*
X1058878Y107179D02*
X1070562Y107179D01*
X1065369Y111074D02*
X1058878Y107179D01*
X1065369Y111074D02*
X1058878Y114968D01*
X1070562Y114968D01*
X1070562Y120951D02*
X1058878Y120951D01*
X1058878Y124197D01*
X1058880Y124310D01*
X1058886Y124423D01*
X1058896Y124536D01*
X1058910Y124649D01*
X1058927Y124761D01*
X1058949Y124872D01*
X1058974Y124982D01*
X1059004Y125092D01*
X1059037Y125200D01*
X1059074Y125307D01*
X1059114Y125413D01*
X1059159Y125517D01*
X1059207Y125620D01*
X1059258Y125721D01*
X1059313Y125820D01*
X1059371Y125917D01*
X1059433Y126012D01*
X1059498Y126105D01*
X1059566Y126195D01*
X1059637Y126283D01*
X1059712Y126369D01*
X1059789Y126452D01*
X1059869Y126532D01*
X1059952Y126609D01*
X1060038Y126684D01*
X1060126Y126755D01*
X1060216Y126823D01*
X1060309Y126888D01*
X1060404Y126950D01*
X1060501Y127008D01*
X1060600Y127063D01*
X1060701Y127114D01*
X1060804Y127162D01*
X1060908Y127207D01*
X1061014Y127247D01*
X1061121Y127284D01*
X1061229Y127317D01*
X1061339Y127347D01*
X1061449Y127372D01*
X1061560Y127394D01*
X1061672Y127411D01*
X1061785Y127425D01*
X1061898Y127435D01*
X1062011Y127441D01*
X1062124Y127443D01*
X1062237Y127441D01*
X1062350Y127435D01*
X1062463Y127425D01*
X1062576Y127411D01*
X1062688Y127394D01*
X1062799Y127372D01*
X1062909Y127347D01*
X1063019Y127317D01*
X1063127Y127284D01*
X1063234Y127247D01*
X1063340Y127207D01*
X1063444Y127162D01*
X1063547Y127114D01*
X1063648Y127063D01*
X1063747Y127008D01*
X1063844Y126950D01*
X1063939Y126888D01*
X1064032Y126823D01*
X1064122Y126755D01*
X1064210Y126684D01*
X1064296Y126609D01*
X1064379Y126532D01*
X1064459Y126452D01*
X1064536Y126369D01*
X1064611Y126283D01*
X1064682Y126195D01*
X1064750Y126105D01*
X1064815Y126012D01*
X1064877Y125917D01*
X1064935Y125820D01*
X1064990Y125721D01*
X1065041Y125620D01*
X1065089Y125517D01*
X1065134Y125413D01*
X1065174Y125307D01*
X1065211Y125200D01*
X1065244Y125092D01*
X1065274Y124982D01*
X1065299Y124872D01*
X1065321Y124761D01*
X1065338Y124649D01*
X1065352Y124536D01*
X1065362Y124423D01*
X1065368Y124310D01*
X1065370Y124197D01*
X1065369Y124197D02*
X1065369Y120951D01*
X1058878Y135401D02*
X1058880Y135508D01*
X1058886Y135614D01*
X1058896Y135720D01*
X1058909Y135826D01*
X1058927Y135932D01*
X1058948Y136036D01*
X1058973Y136140D01*
X1059002Y136243D01*
X1059034Y136344D01*
X1059071Y136444D01*
X1059111Y136543D01*
X1059154Y136641D01*
X1059201Y136737D01*
X1059252Y136831D01*
X1059306Y136923D01*
X1059363Y137013D01*
X1059423Y137101D01*
X1059487Y137186D01*
X1059554Y137269D01*
X1059624Y137350D01*
X1059696Y137428D01*
X1059772Y137504D01*
X1059850Y137576D01*
X1059931Y137646D01*
X1060014Y137713D01*
X1060099Y137777D01*
X1060187Y137837D01*
X1060277Y137894D01*
X1060369Y137948D01*
X1060463Y137999D01*
X1060559Y138046D01*
X1060657Y138089D01*
X1060756Y138129D01*
X1060856Y138166D01*
X1060957Y138198D01*
X1061060Y138227D01*
X1061164Y138252D01*
X1061268Y138273D01*
X1061374Y138291D01*
X1061480Y138304D01*
X1061586Y138314D01*
X1061692Y138320D01*
X1061799Y138322D01*
X1058878Y135401D02*
X1058880Y135280D01*
X1058886Y135159D01*
X1058896Y135039D01*
X1058909Y134918D01*
X1058927Y134799D01*
X1058948Y134679D01*
X1058973Y134561D01*
X1059002Y134444D01*
X1059035Y134327D01*
X1059071Y134212D01*
X1059112Y134098D01*
X1059155Y133985D01*
X1059203Y133873D01*
X1059254Y133764D01*
X1059309Y133656D01*
X1059367Y133549D01*
X1059428Y133445D01*
X1059493Y133343D01*
X1059561Y133243D01*
X1059632Y133145D01*
X1059706Y133049D01*
X1059783Y132956D01*
X1059864Y132866D01*
X1059947Y132778D01*
X1060033Y132693D01*
X1060122Y132610D01*
X1060213Y132531D01*
X1060307Y132454D01*
X1060403Y132381D01*
X1060501Y132311D01*
X1060602Y132244D01*
X1060705Y132180D01*
X1060810Y132120D01*
X1060917Y132062D01*
X1061025Y132009D01*
X1061135Y131959D01*
X1061247Y131913D01*
X1061360Y131870D01*
X1061475Y131831D01*
X1064071Y137348D02*
X1063993Y137427D01*
X1063913Y137503D01*
X1063830Y137576D01*
X1063744Y137646D01*
X1063657Y137713D01*
X1063566Y137777D01*
X1063474Y137837D01*
X1063380Y137895D01*
X1063283Y137949D01*
X1063185Y137999D01*
X1063085Y138046D01*
X1062984Y138090D01*
X1062881Y138130D01*
X1062776Y138166D01*
X1062671Y138198D01*
X1062564Y138227D01*
X1062457Y138252D01*
X1062348Y138274D01*
X1062239Y138291D01*
X1062130Y138305D01*
X1062020Y138314D01*
X1061909Y138320D01*
X1061799Y138322D01*
X1064071Y137348D02*
X1070562Y131831D01*
X1070562Y138322D01*
X1067316Y143260D02*
X1067203Y143262D01*
X1067090Y143268D01*
X1066977Y143278D01*
X1066864Y143292D01*
X1066752Y143309D01*
X1066641Y143331D01*
X1066531Y143356D01*
X1066421Y143386D01*
X1066313Y143419D01*
X1066206Y143456D01*
X1066100Y143496D01*
X1065996Y143541D01*
X1065893Y143589D01*
X1065792Y143640D01*
X1065693Y143695D01*
X1065596Y143753D01*
X1065501Y143815D01*
X1065408Y143880D01*
X1065318Y143948D01*
X1065230Y144019D01*
X1065144Y144094D01*
X1065061Y144171D01*
X1064981Y144251D01*
X1064904Y144334D01*
X1064829Y144420D01*
X1064758Y144508D01*
X1064690Y144598D01*
X1064625Y144691D01*
X1064563Y144786D01*
X1064505Y144883D01*
X1064450Y144982D01*
X1064399Y145083D01*
X1064351Y145186D01*
X1064306Y145290D01*
X1064266Y145396D01*
X1064229Y145503D01*
X1064196Y145611D01*
X1064166Y145721D01*
X1064141Y145831D01*
X1064119Y145942D01*
X1064102Y146054D01*
X1064088Y146167D01*
X1064078Y146280D01*
X1064072Y146393D01*
X1064070Y146506D01*
X1064072Y146619D01*
X1064078Y146732D01*
X1064088Y146845D01*
X1064102Y146958D01*
X1064119Y147070D01*
X1064141Y147181D01*
X1064166Y147291D01*
X1064196Y147401D01*
X1064229Y147509D01*
X1064266Y147616D01*
X1064306Y147722D01*
X1064351Y147826D01*
X1064399Y147929D01*
X1064450Y148030D01*
X1064505Y148129D01*
X1064563Y148226D01*
X1064625Y148321D01*
X1064690Y148414D01*
X1064758Y148504D01*
X1064829Y148592D01*
X1064904Y148678D01*
X1064981Y148761D01*
X1065061Y148841D01*
X1065144Y148918D01*
X1065230Y148993D01*
X1065318Y149064D01*
X1065408Y149132D01*
X1065501Y149197D01*
X1065596Y149259D01*
X1065693Y149317D01*
X1065792Y149372D01*
X1065893Y149423D01*
X1065996Y149471D01*
X1066100Y149516D01*
X1066206Y149556D01*
X1066313Y149593D01*
X1066421Y149626D01*
X1066531Y149656D01*
X1066641Y149681D01*
X1066752Y149703D01*
X1066864Y149720D01*
X1066977Y149734D01*
X1067090Y149744D01*
X1067203Y149750D01*
X1067316Y149752D01*
X1067429Y149750D01*
X1067542Y149744D01*
X1067655Y149734D01*
X1067768Y149720D01*
X1067880Y149703D01*
X1067991Y149681D01*
X1068101Y149656D01*
X1068211Y149626D01*
X1068319Y149593D01*
X1068426Y149556D01*
X1068532Y149516D01*
X1068636Y149471D01*
X1068739Y149423D01*
X1068840Y149372D01*
X1068939Y149317D01*
X1069036Y149259D01*
X1069131Y149197D01*
X1069224Y149132D01*
X1069314Y149064D01*
X1069402Y148993D01*
X1069488Y148918D01*
X1069571Y148841D01*
X1069651Y148761D01*
X1069728Y148678D01*
X1069803Y148592D01*
X1069874Y148504D01*
X1069942Y148414D01*
X1070007Y148321D01*
X1070069Y148226D01*
X1070127Y148129D01*
X1070182Y148030D01*
X1070233Y147929D01*
X1070281Y147826D01*
X1070326Y147722D01*
X1070366Y147616D01*
X1070403Y147509D01*
X1070436Y147401D01*
X1070466Y147291D01*
X1070491Y147181D01*
X1070513Y147070D01*
X1070530Y146958D01*
X1070544Y146845D01*
X1070554Y146732D01*
X1070560Y146619D01*
X1070562Y146506D01*
X1070560Y146393D01*
X1070554Y146280D01*
X1070544Y146167D01*
X1070530Y146054D01*
X1070513Y145942D01*
X1070491Y145831D01*
X1070466Y145721D01*
X1070436Y145611D01*
X1070403Y145503D01*
X1070366Y145396D01*
X1070326Y145290D01*
X1070281Y145186D01*
X1070233Y145083D01*
X1070182Y144982D01*
X1070127Y144883D01*
X1070069Y144786D01*
X1070007Y144691D01*
X1069942Y144598D01*
X1069874Y144508D01*
X1069803Y144420D01*
X1069728Y144334D01*
X1069651Y144251D01*
X1069571Y144171D01*
X1069488Y144094D01*
X1069402Y144019D01*
X1069314Y143948D01*
X1069224Y143880D01*
X1069131Y143815D01*
X1069036Y143753D01*
X1068939Y143695D01*
X1068840Y143640D01*
X1068739Y143589D01*
X1068636Y143541D01*
X1068532Y143496D01*
X1068426Y143456D01*
X1068319Y143419D01*
X1068211Y143386D01*
X1068101Y143356D01*
X1067991Y143331D01*
X1067880Y143309D01*
X1067768Y143292D01*
X1067655Y143278D01*
X1067542Y143268D01*
X1067429Y143262D01*
X1067316Y143260D01*
X1061474Y143910D02*
X1061373Y143912D01*
X1061273Y143918D01*
X1061173Y143928D01*
X1061073Y143941D01*
X1060974Y143959D01*
X1060875Y143980D01*
X1060778Y144005D01*
X1060681Y144034D01*
X1060586Y144067D01*
X1060492Y144103D01*
X1060400Y144143D01*
X1060309Y144186D01*
X1060220Y144233D01*
X1060133Y144283D01*
X1060047Y144337D01*
X1059964Y144394D01*
X1059884Y144454D01*
X1059805Y144517D01*
X1059729Y144584D01*
X1059656Y144653D01*
X1059586Y144725D01*
X1059518Y144799D01*
X1059453Y144876D01*
X1059392Y144956D01*
X1059333Y145038D01*
X1059278Y145122D01*
X1059226Y145208D01*
X1059177Y145296D01*
X1059132Y145386D01*
X1059090Y145478D01*
X1059052Y145571D01*
X1059018Y145666D01*
X1058987Y145761D01*
X1058960Y145858D01*
X1058937Y145956D01*
X1058917Y146055D01*
X1058902Y146155D01*
X1058890Y146255D01*
X1058882Y146355D01*
X1058878Y146456D01*
X1058878Y146556D01*
X1058882Y146657D01*
X1058890Y146757D01*
X1058902Y146857D01*
X1058917Y146957D01*
X1058937Y147056D01*
X1058960Y147154D01*
X1058987Y147251D01*
X1059018Y147346D01*
X1059052Y147441D01*
X1059090Y147534D01*
X1059132Y147626D01*
X1059177Y147716D01*
X1059226Y147804D01*
X1059278Y147890D01*
X1059333Y147974D01*
X1059392Y148056D01*
X1059453Y148136D01*
X1059518Y148213D01*
X1059586Y148287D01*
X1059656Y148359D01*
X1059729Y148428D01*
X1059805Y148495D01*
X1059884Y148558D01*
X1059964Y148618D01*
X1060047Y148675D01*
X1060133Y148729D01*
X1060220Y148779D01*
X1060309Y148826D01*
X1060400Y148869D01*
X1060492Y148909D01*
X1060586Y148945D01*
X1060681Y148978D01*
X1060778Y149007D01*
X1060875Y149032D01*
X1060974Y149053D01*
X1061073Y149071D01*
X1061173Y149084D01*
X1061273Y149094D01*
X1061373Y149100D01*
X1061474Y149102D01*
X1061575Y149100D01*
X1061675Y149094D01*
X1061775Y149084D01*
X1061875Y149071D01*
X1061974Y149053D01*
X1062073Y149032D01*
X1062170Y149007D01*
X1062267Y148978D01*
X1062362Y148945D01*
X1062456Y148909D01*
X1062548Y148869D01*
X1062639Y148826D01*
X1062728Y148779D01*
X1062815Y148729D01*
X1062901Y148675D01*
X1062984Y148618D01*
X1063064Y148558D01*
X1063143Y148495D01*
X1063219Y148428D01*
X1063292Y148359D01*
X1063362Y148287D01*
X1063430Y148213D01*
X1063495Y148136D01*
X1063556Y148056D01*
X1063615Y147974D01*
X1063670Y147890D01*
X1063722Y147804D01*
X1063771Y147716D01*
X1063816Y147626D01*
X1063858Y147534D01*
X1063896Y147441D01*
X1063930Y147346D01*
X1063961Y147251D01*
X1063988Y147154D01*
X1064011Y147056D01*
X1064031Y146957D01*
X1064046Y146857D01*
X1064058Y146757D01*
X1064066Y146657D01*
X1064070Y146556D01*
X1064070Y146456D01*
X1064066Y146355D01*
X1064058Y146255D01*
X1064046Y146155D01*
X1064031Y146055D01*
X1064011Y145956D01*
X1063988Y145858D01*
X1063961Y145761D01*
X1063930Y145666D01*
X1063896Y145571D01*
X1063858Y145478D01*
X1063816Y145386D01*
X1063771Y145296D01*
X1063722Y145208D01*
X1063670Y145122D01*
X1063615Y145038D01*
X1063556Y144956D01*
X1063495Y144876D01*
X1063430Y144799D01*
X1063362Y144725D01*
X1063292Y144653D01*
X1063219Y144584D01*
X1063143Y144517D01*
X1063064Y144454D01*
X1062984Y144394D01*
X1062901Y144337D01*
X1062815Y144283D01*
X1062728Y144233D01*
X1062639Y144186D01*
X1062548Y144143D01*
X1062456Y144103D01*
X1062362Y144067D01*
X1062267Y144034D01*
X1062170Y144005D01*
X1062073Y143980D01*
X1061974Y143959D01*
X1061875Y143941D01*
X1061775Y143928D01*
X1061675Y143918D01*
X1061575Y143912D01*
X1061474Y143910D01*
X1064720Y154691D02*
X1064490Y154694D01*
X1064260Y154702D01*
X1064031Y154716D01*
X1063802Y154735D01*
X1063573Y154760D01*
X1063345Y154790D01*
X1063118Y154825D01*
X1062892Y154866D01*
X1062667Y154912D01*
X1062443Y154964D01*
X1062220Y155021D01*
X1061999Y155083D01*
X1061779Y155151D01*
X1061561Y155224D01*
X1061345Y155302D01*
X1061131Y155385D01*
X1060919Y155473D01*
X1060708Y155566D01*
X1060501Y155665D01*
X1060501Y155664D02*
X1060411Y155697D01*
X1060322Y155733D01*
X1060234Y155773D01*
X1060149Y155817D01*
X1060065Y155864D01*
X1059983Y155914D01*
X1059903Y155968D01*
X1059826Y156024D01*
X1059750Y156084D01*
X1059677Y156147D01*
X1059607Y156212D01*
X1059539Y156281D01*
X1059475Y156352D01*
X1059413Y156425D01*
X1059354Y156501D01*
X1059298Y156579D01*
X1059245Y156660D01*
X1059196Y156742D01*
X1059150Y156826D01*
X1059107Y156913D01*
X1059068Y157000D01*
X1059032Y157090D01*
X1059000Y157180D01*
X1058972Y157272D01*
X1058947Y157365D01*
X1058926Y157459D01*
X1058909Y157553D01*
X1058895Y157648D01*
X1058886Y157744D01*
X1058880Y157840D01*
X1058878Y157936D01*
X1058880Y158032D01*
X1058886Y158128D01*
X1058895Y158224D01*
X1058909Y158319D01*
X1058926Y158413D01*
X1058947Y158507D01*
X1058972Y158600D01*
X1059000Y158692D01*
X1059032Y158782D01*
X1059068Y158872D01*
X1059107Y158960D01*
X1059150Y159046D01*
X1059196Y159130D01*
X1059245Y159212D01*
X1059298Y159293D01*
X1059354Y159371D01*
X1059413Y159447D01*
X1059475Y159520D01*
X1059539Y159591D01*
X1059607Y159660D01*
X1059677Y159725D01*
X1059750Y159788D01*
X1059826Y159848D01*
X1059903Y159904D01*
X1059983Y159958D01*
X1060065Y160008D01*
X1060149Y160055D01*
X1060234Y160099D01*
X1060322Y160139D01*
X1060411Y160175D01*
X1060501Y160208D01*
X1060708Y160307D01*
X1060919Y160400D01*
X1061131Y160488D01*
X1061345Y160571D01*
X1061561Y160649D01*
X1061779Y160722D01*
X1061999Y160790D01*
X1062220Y160852D01*
X1062443Y160909D01*
X1062667Y160961D01*
X1062892Y161007D01*
X1063118Y161048D01*
X1063345Y161083D01*
X1063573Y161113D01*
X1063802Y161138D01*
X1064031Y161157D01*
X1064260Y161171D01*
X1064490Y161179D01*
X1064720Y161182D01*
X1064720Y154691D02*
X1064950Y154694D01*
X1065180Y154702D01*
X1065409Y154716D01*
X1065638Y154735D01*
X1065867Y154760D01*
X1066095Y154790D01*
X1066322Y154825D01*
X1066548Y154866D01*
X1066773Y154912D01*
X1066997Y154964D01*
X1067220Y155021D01*
X1067441Y155083D01*
X1067661Y155151D01*
X1067879Y155224D01*
X1068095Y155302D01*
X1068309Y155385D01*
X1068521Y155473D01*
X1068732Y155566D01*
X1068939Y155665D01*
X1068939Y155664D02*
X1069029Y155697D01*
X1069118Y155733D01*
X1069206Y155774D01*
X1069291Y155817D01*
X1069375Y155864D01*
X1069457Y155914D01*
X1069537Y155968D01*
X1069614Y156024D01*
X1069690Y156084D01*
X1069763Y156147D01*
X1069833Y156212D01*
X1069901Y156281D01*
X1069965Y156352D01*
X1070027Y156425D01*
X1070086Y156501D01*
X1070142Y156579D01*
X1070195Y156660D01*
X1070244Y156742D01*
X1070290Y156826D01*
X1070333Y156913D01*
X1070372Y157000D01*
X1070408Y157090D01*
X1070440Y157180D01*
X1070468Y157272D01*
X1070493Y157365D01*
X1070514Y157459D01*
X1070531Y157553D01*
X1070545Y157648D01*
X1070554Y157744D01*
X1070560Y157840D01*
X1070562Y157936D01*
X1068939Y160208D02*
X1068732Y160307D01*
X1068521Y160400D01*
X1068309Y160488D01*
X1068095Y160571D01*
X1067879Y160649D01*
X1067661Y160722D01*
X1067441Y160790D01*
X1067220Y160852D01*
X1066997Y160909D01*
X1066773Y160961D01*
X1066548Y161007D01*
X1066322Y161048D01*
X1066095Y161083D01*
X1065867Y161113D01*
X1065638Y161138D01*
X1065409Y161157D01*
X1065180Y161171D01*
X1064950Y161179D01*
X1064720Y161182D01*
X1068939Y160208D02*
X1069029Y160175D01*
X1069118Y160139D01*
X1069206Y160099D01*
X1069291Y160055D01*
X1069375Y160008D01*
X1069457Y159958D01*
X1069537Y159904D01*
X1069614Y159848D01*
X1069690Y159788D01*
X1069763Y159725D01*
X1069833Y159660D01*
X1069901Y159591D01*
X1069965Y159520D01*
X1070027Y159447D01*
X1070086Y159371D01*
X1070142Y159293D01*
X1070195Y159212D01*
X1070244Y159130D01*
X1070290Y159046D01*
X1070333Y158959D01*
X1070372Y158872D01*
X1070408Y158782D01*
X1070440Y158692D01*
X1070468Y158600D01*
X1070493Y158507D01*
X1070514Y158413D01*
X1070531Y158319D01*
X1070545Y158224D01*
X1070554Y158128D01*
X1070560Y158032D01*
X1070562Y157936D01*
X1067966Y155340D02*
X1061474Y160533D01*
M02*
