G04 EAGLE Gerber RS-274X export*
G75*
%MOMM*%
%FSLAX34Y34*%
%LPD*%
%INSoldermask Bottom*%
%IPPOS*%
%AMOC8*
5,1,8,0,0,1.08239X$1,22.5*%
G01*
%ADD10C,2.903200*%
%ADD11C,1.602200*%
%ADD12C,2.153200*%
%ADD13C,1.611200*%
%ADD14C,1.711200*%
%ADD15C,2.108200*%
%ADD16P,1.869504X8X202.500000*%
%ADD17R,1.711200X1.711200*%
%ADD18P,1.649562X8X112.500000*%
%ADD19C,0.959600*%


D10*
X30000Y-10000D03*
X30000Y590000D03*
X1260000Y-10000D03*
X1260000Y590000D03*
D11*
X1021300Y192145D03*
X1021300Y166745D03*
X1021300Y141345D03*
X1021300Y115945D03*
X1021300Y90545D03*
X1021300Y65145D03*
D12*
X408520Y236510D03*
X408520Y210310D03*
X408520Y184110D03*
X408520Y157910D03*
X408520Y131710D03*
X408520Y105510D03*
D11*
X1019155Y237555D03*
X1019155Y263555D03*
X1019155Y289555D03*
X1019155Y315555D03*
X1019155Y341555D03*
X1019155Y367555D03*
X1019155Y393555D03*
X1019155Y419555D03*
D13*
X1224600Y103800D03*
X1224600Y78400D03*
D14*
X1222820Y181000D03*
X1222820Y211000D03*
X1222820Y241000D03*
D15*
X1223000Y151000D03*
X1223000Y271000D03*
D14*
X934800Y59050D03*
X908400Y59050D03*
X882000Y59050D03*
X855600Y59050D03*
X829200Y59050D03*
X802800Y59050D03*
X776400Y59050D03*
X750000Y59050D03*
X723600Y59050D03*
X697200Y59050D03*
X670800Y59050D03*
X644400Y59050D03*
X618000Y59050D03*
X591600Y59050D03*
X565200Y59050D03*
X538800Y59050D03*
X512400Y59050D03*
X486000Y59050D03*
X934800Y286380D03*
X908400Y286380D03*
X882000Y286380D03*
X855600Y286380D03*
X829200Y286380D03*
X802800Y286380D03*
X776400Y286380D03*
X750000Y286380D03*
X723600Y286380D03*
X697200Y286380D03*
X670800Y286380D03*
X644400Y286380D03*
X618000Y286380D03*
X591600Y286380D03*
X565200Y286380D03*
X538800Y286380D03*
X512400Y286380D03*
X486000Y286380D03*
D16*
X1146000Y570000D03*
D17*
X125850Y451900D03*
D14*
X151250Y528100D03*
X151250Y502700D03*
X151250Y477300D03*
X151250Y451900D03*
X125850Y477300D03*
X125850Y502700D03*
X125850Y528100D03*
D16*
X1119000Y570000D03*
X1092000Y570000D03*
X1200000Y570000D03*
X1173000Y570000D03*
D13*
X1225000Y344700D03*
X1225000Y319300D03*
D18*
X320000Y169200D03*
X320000Y270800D03*
X280000Y169200D03*
X280000Y270800D03*
D19*
X348840Y329840D03*
X220000Y330000D03*
X340000Y350000D03*
X205000Y503000D03*
X180000Y530000D03*
X180000Y250000D03*
X120000Y400000D03*
X460000Y180000D03*
X460000Y250000D03*
X331649Y370160D03*
X260000Y370000D03*
X150000Y309840D03*
X150000Y400000D03*
X820000Y30000D03*
X900000Y30000D03*
X90000Y309840D03*
X90000Y400000D03*
M02*
