G04 EAGLE Gerber RS-274X export*
G75*
%MOMM*%
%FSLAX34Y34*%
%LPD*%
%INTop Copper*%
%IPPOS*%
%AMOC8*
5,1,8,0,0,1.08239X$1,22.5*%
G01*
%ADD10C,1.399000*%
%ADD11C,1.950000*%
%ADD12C,1.408000*%
%ADD13C,1.508000*%
%ADD14C,1.905000*%
%ADD15P,1.649562X8X202.500000*%
%ADD16R,1.508000X1.508000*%
%ADD17P,1.429621X8X112.500000*%
%ADD18C,0.756400*%
%ADD19C,1.000000*%

G36*
X1243849Y-29066D02*
X1243849Y-29066D01*
X1243921Y-29064D01*
X1243970Y-29046D01*
X1244021Y-29038D01*
X1244084Y-29004D01*
X1244152Y-28979D01*
X1244192Y-28947D01*
X1244238Y-28922D01*
X1244288Y-28870D01*
X1244344Y-28826D01*
X1244372Y-28782D01*
X1244408Y-28744D01*
X1244438Y-28679D01*
X1244477Y-28619D01*
X1244489Y-28568D01*
X1244511Y-28521D01*
X1244519Y-28450D01*
X1244537Y-28380D01*
X1244533Y-28328D01*
X1244538Y-28277D01*
X1244523Y-28206D01*
X1244518Y-28135D01*
X1244497Y-28087D01*
X1244486Y-28036D01*
X1244449Y-27975D01*
X1244421Y-27909D01*
X1244376Y-27853D01*
X1244360Y-27825D01*
X1244342Y-27810D01*
X1244316Y-27778D01*
X1239941Y-23403D01*
X1236339Y-14706D01*
X1236339Y-5294D01*
X1239941Y3403D01*
X1246597Y10059D01*
X1255294Y13661D01*
X1264706Y13661D01*
X1273403Y10059D01*
X1277778Y5684D01*
X1277836Y5642D01*
X1277888Y5592D01*
X1277935Y5570D01*
X1277977Y5540D01*
X1278046Y5519D01*
X1278111Y5489D01*
X1278163Y5483D01*
X1278213Y5468D01*
X1278284Y5470D01*
X1278355Y5462D01*
X1278406Y5473D01*
X1278458Y5474D01*
X1278526Y5499D01*
X1278596Y5514D01*
X1278641Y5541D01*
X1278689Y5558D01*
X1278745Y5603D01*
X1278807Y5640D01*
X1278841Y5680D01*
X1278881Y5712D01*
X1278920Y5772D01*
X1278967Y5827D01*
X1278986Y5875D01*
X1279014Y5919D01*
X1279032Y5989D01*
X1279059Y6055D01*
X1279067Y6126D01*
X1279075Y6158D01*
X1279073Y6181D01*
X1279077Y6222D01*
X1279077Y573778D01*
X1279066Y573849D01*
X1279064Y573921D01*
X1279046Y573970D01*
X1279038Y574021D01*
X1279004Y574084D01*
X1278979Y574152D01*
X1278947Y574192D01*
X1278922Y574238D01*
X1278870Y574288D01*
X1278826Y574344D01*
X1278782Y574372D01*
X1278744Y574408D01*
X1278679Y574438D01*
X1278619Y574477D01*
X1278568Y574489D01*
X1278521Y574511D01*
X1278450Y574519D01*
X1278380Y574537D01*
X1278328Y574533D01*
X1278277Y574538D01*
X1278206Y574523D01*
X1278135Y574518D01*
X1278087Y574497D01*
X1278036Y574486D01*
X1277975Y574449D01*
X1277909Y574421D01*
X1277853Y574376D01*
X1277825Y574360D01*
X1277810Y574342D01*
X1277778Y574316D01*
X1273403Y569941D01*
X1264706Y566339D01*
X1255294Y566339D01*
X1246597Y569941D01*
X1239941Y576597D01*
X1236339Y585294D01*
X1236339Y594706D01*
X1239941Y603403D01*
X1244316Y607778D01*
X1244358Y607836D01*
X1244408Y607888D01*
X1244430Y607935D01*
X1244460Y607977D01*
X1244481Y608046D01*
X1244511Y608111D01*
X1244517Y608163D01*
X1244532Y608213D01*
X1244530Y608284D01*
X1244538Y608355D01*
X1244527Y608406D01*
X1244526Y608458D01*
X1244501Y608526D01*
X1244486Y608596D01*
X1244459Y608641D01*
X1244442Y608689D01*
X1244397Y608745D01*
X1244360Y608807D01*
X1244320Y608841D01*
X1244288Y608881D01*
X1244228Y608920D01*
X1244173Y608967D01*
X1244125Y608986D01*
X1244081Y609014D01*
X1244011Y609032D01*
X1243945Y609059D01*
X1243874Y609067D01*
X1243842Y609075D01*
X1243819Y609073D01*
X1243778Y609077D01*
X46222Y609077D01*
X46151Y609066D01*
X46079Y609064D01*
X46030Y609046D01*
X45979Y609038D01*
X45916Y609004D01*
X45848Y608979D01*
X45808Y608947D01*
X45762Y608922D01*
X45712Y608870D01*
X45656Y608826D01*
X45628Y608782D01*
X45592Y608744D01*
X45562Y608679D01*
X45523Y608619D01*
X45511Y608568D01*
X45489Y608521D01*
X45481Y608450D01*
X45463Y608380D01*
X45467Y608328D01*
X45462Y608277D01*
X45477Y608206D01*
X45482Y608135D01*
X45503Y608087D01*
X45514Y608036D01*
X45551Y607975D01*
X45579Y607909D01*
X45624Y607853D01*
X45640Y607825D01*
X45658Y607810D01*
X45684Y607778D01*
X50059Y603403D01*
X53661Y594706D01*
X53661Y585294D01*
X50059Y576597D01*
X43403Y569941D01*
X34706Y566339D01*
X25294Y566339D01*
X16597Y569941D01*
X12222Y574316D01*
X12164Y574358D01*
X12112Y574408D01*
X12065Y574430D01*
X12023Y574460D01*
X11954Y574481D01*
X11889Y574511D01*
X11837Y574517D01*
X11787Y574532D01*
X11716Y574530D01*
X11645Y574538D01*
X11594Y574527D01*
X11542Y574526D01*
X11474Y574501D01*
X11404Y574486D01*
X11359Y574459D01*
X11311Y574442D01*
X11255Y574397D01*
X11193Y574360D01*
X11159Y574320D01*
X11119Y574288D01*
X11080Y574228D01*
X11033Y574173D01*
X11014Y574125D01*
X10986Y574081D01*
X10968Y574011D01*
X10941Y573945D01*
X10933Y573874D01*
X10925Y573842D01*
X10927Y573819D01*
X10923Y573778D01*
X10923Y6222D01*
X10934Y6151D01*
X10936Y6079D01*
X10954Y6030D01*
X10962Y5979D01*
X10996Y5916D01*
X11021Y5848D01*
X11053Y5808D01*
X11078Y5762D01*
X11130Y5712D01*
X11174Y5656D01*
X11218Y5628D01*
X11256Y5592D01*
X11321Y5562D01*
X11381Y5523D01*
X11432Y5511D01*
X11479Y5489D01*
X11550Y5481D01*
X11620Y5463D01*
X11672Y5467D01*
X11723Y5462D01*
X11794Y5477D01*
X11865Y5482D01*
X11913Y5503D01*
X11964Y5514D01*
X12025Y5551D01*
X12091Y5579D01*
X12147Y5624D01*
X12175Y5640D01*
X12190Y5658D01*
X12222Y5684D01*
X16597Y10059D01*
X25294Y13661D01*
X34706Y13661D01*
X43403Y10059D01*
X50059Y3403D01*
X53661Y-5294D01*
X53661Y-14706D01*
X50059Y-23403D01*
X45684Y-27778D01*
X45642Y-27836D01*
X45592Y-27888D01*
X45570Y-27935D01*
X45540Y-27977D01*
X45519Y-28046D01*
X45489Y-28111D01*
X45483Y-28163D01*
X45468Y-28213D01*
X45470Y-28284D01*
X45462Y-28355D01*
X45473Y-28406D01*
X45474Y-28458D01*
X45499Y-28526D01*
X45514Y-28596D01*
X45541Y-28641D01*
X45558Y-28689D01*
X45603Y-28745D01*
X45640Y-28807D01*
X45680Y-28841D01*
X45712Y-28881D01*
X45772Y-28920D01*
X45827Y-28967D01*
X45875Y-28986D01*
X45919Y-29014D01*
X45989Y-29032D01*
X46055Y-29059D01*
X46126Y-29067D01*
X46158Y-29075D01*
X46181Y-29073D01*
X46222Y-29077D01*
X1243778Y-29077D01*
X1243849Y-29066D01*
G37*
%LPC*%
G36*
X228794Y314519D02*
X228794Y314519D01*
X228161Y314781D01*
X228097Y314796D01*
X228037Y314821D01*
X227954Y314830D01*
X227922Y314837D01*
X227902Y314836D01*
X227870Y314839D01*
X216984Y314839D01*
X211412Y317147D01*
X207147Y321412D01*
X204839Y326984D01*
X204839Y333016D01*
X207147Y338588D01*
X211412Y342853D01*
X216984Y345161D01*
X221561Y345161D01*
X221632Y345172D01*
X221703Y345174D01*
X221752Y345192D01*
X221804Y345200D01*
X221867Y345234D01*
X221934Y345259D01*
X221975Y345291D01*
X222021Y345316D01*
X222070Y345368D01*
X222126Y345412D01*
X222155Y345456D01*
X222190Y345494D01*
X222221Y345559D01*
X222259Y345619D01*
X222272Y345670D01*
X222294Y345717D01*
X222302Y345788D01*
X222319Y345858D01*
X222315Y345910D01*
X222321Y345961D01*
X222306Y346032D01*
X222300Y346103D01*
X222280Y346151D01*
X222269Y346202D01*
X222232Y346263D01*
X222204Y346329D01*
X222159Y346385D01*
X222143Y346413D01*
X222125Y346428D01*
X222099Y346460D01*
X221519Y347040D01*
X217147Y351412D01*
X214839Y356984D01*
X214839Y485405D01*
X214825Y485495D01*
X214817Y485586D01*
X214805Y485616D01*
X214800Y485648D01*
X214757Y485728D01*
X214721Y485812D01*
X214695Y485844D01*
X214684Y485865D01*
X214661Y485887D01*
X214616Y485943D01*
X212943Y487616D01*
X212869Y487669D01*
X212800Y487729D01*
X212770Y487741D01*
X212743Y487760D01*
X212656Y487787D01*
X212572Y487821D01*
X212531Y487825D01*
X212508Y487832D01*
X212476Y487831D01*
X212405Y487839D01*
X201984Y487839D01*
X196412Y490147D01*
X192147Y494412D01*
X189839Y499984D01*
X189839Y506016D01*
X192147Y511588D01*
X196412Y515853D01*
X201984Y518161D01*
X222016Y518161D01*
X227588Y515853D01*
X242853Y500588D01*
X245161Y495016D01*
X245161Y377619D01*
X245176Y377523D01*
X245186Y377426D01*
X245196Y377402D01*
X245200Y377376D01*
X245246Y377290D01*
X245286Y377201D01*
X245303Y377182D01*
X245316Y377159D01*
X245386Y377092D01*
X245452Y377020D01*
X245475Y377007D01*
X245494Y376989D01*
X245582Y376948D01*
X245668Y376901D01*
X245693Y376897D01*
X245717Y376886D01*
X245814Y376875D01*
X245910Y376858D01*
X245936Y376861D01*
X245961Y376859D01*
X246057Y376879D01*
X246153Y376893D01*
X246176Y376905D01*
X246202Y376911D01*
X246285Y376961D01*
X246372Y377005D01*
X246391Y377024D01*
X246413Y377037D01*
X246476Y377111D01*
X246544Y377181D01*
X246560Y377209D01*
X246573Y377224D01*
X246585Y377255D01*
X246625Y377327D01*
X247147Y378588D01*
X251572Y383013D01*
X257144Y385321D01*
X334665Y385321D01*
X340237Y383013D01*
X344502Y378748D01*
X346810Y373176D01*
X346810Y367144D01*
X345844Y364813D01*
X345840Y364794D01*
X345830Y364776D01*
X345812Y364674D01*
X345788Y364573D01*
X345790Y364554D01*
X345787Y364534D01*
X345802Y364432D01*
X345811Y364329D01*
X345819Y364310D01*
X345822Y364291D01*
X345869Y364198D01*
X345911Y364104D01*
X345925Y364089D01*
X345934Y364071D01*
X346008Y363999D01*
X346078Y363923D01*
X346095Y363913D01*
X346109Y363899D01*
X346256Y363818D01*
X348588Y362853D01*
X352853Y358588D01*
X355161Y353016D01*
X355161Y346984D01*
X354267Y344826D01*
X354262Y344807D01*
X354253Y344789D01*
X354234Y344687D01*
X354211Y344587D01*
X354212Y344567D01*
X354209Y344547D01*
X354224Y344445D01*
X354234Y344342D01*
X354242Y344323D01*
X354245Y344304D01*
X354292Y344211D01*
X354334Y344117D01*
X354347Y344102D01*
X354356Y344084D01*
X354430Y344012D01*
X354500Y343936D01*
X354518Y343926D01*
X354532Y343912D01*
X354679Y343831D01*
X357428Y342693D01*
X361693Y338428D01*
X364001Y332856D01*
X364001Y326824D01*
X361693Y321252D01*
X357428Y316987D01*
X351856Y314679D01*
X280254Y314679D01*
X280190Y314669D01*
X280124Y314668D01*
X280044Y314645D01*
X280012Y314640D01*
X279994Y314630D01*
X279963Y314621D01*
X279717Y314519D01*
X228794Y314519D01*
G37*
%LPD*%
%LPC*%
G36*
X816984Y14839D02*
X816984Y14839D01*
X811412Y17147D01*
X807147Y21412D01*
X804839Y26984D01*
X804839Y33016D01*
X807147Y38588D01*
X811412Y42853D01*
X816984Y45161D01*
X826134Y45161D01*
X826230Y45176D01*
X826327Y45186D01*
X826351Y45196D01*
X826377Y45200D01*
X826463Y45246D01*
X826552Y45286D01*
X826571Y45303D01*
X826594Y45316D01*
X826661Y45386D01*
X826733Y45452D01*
X826746Y45475D01*
X826764Y45494D01*
X826805Y45582D01*
X826852Y45668D01*
X826856Y45693D01*
X826867Y45717D01*
X826878Y45814D01*
X826895Y45910D01*
X826891Y45936D01*
X826894Y45961D01*
X826874Y46057D01*
X826860Y46153D01*
X826848Y46176D01*
X826842Y46202D01*
X826792Y46285D01*
X826748Y46372D01*
X826729Y46391D01*
X826716Y46413D01*
X826642Y46476D01*
X826572Y46544D01*
X826544Y46560D01*
X826529Y46573D01*
X826498Y46585D01*
X826425Y46625D01*
X822096Y48418D01*
X818568Y51946D01*
X816703Y56449D01*
X816665Y56510D01*
X816636Y56576D01*
X816601Y56614D01*
X816574Y56658D01*
X816518Y56704D01*
X816470Y56757D01*
X816424Y56782D01*
X816384Y56815D01*
X816317Y56841D01*
X816254Y56875D01*
X816203Y56885D01*
X816155Y56903D01*
X816083Y56906D01*
X816012Y56919D01*
X815961Y56911D01*
X815909Y56914D01*
X815840Y56894D01*
X815769Y56883D01*
X815723Y56860D01*
X815673Y56845D01*
X815614Y56804D01*
X815550Y56772D01*
X815513Y56735D01*
X815471Y56705D01*
X815428Y56647D01*
X815378Y56596D01*
X815343Y56533D01*
X815324Y56508D01*
X815317Y56485D01*
X815297Y56449D01*
X813432Y51946D01*
X809904Y48418D01*
X805295Y46509D01*
X800305Y46509D01*
X795696Y48418D01*
X792168Y51946D01*
X790303Y56449D01*
X790266Y56510D01*
X790236Y56576D01*
X790201Y56614D01*
X790174Y56658D01*
X790119Y56704D01*
X790070Y56757D01*
X790024Y56782D01*
X789984Y56815D01*
X789917Y56841D01*
X789854Y56875D01*
X789803Y56885D01*
X789755Y56903D01*
X789683Y56906D01*
X789612Y56919D01*
X789561Y56911D01*
X789509Y56914D01*
X789440Y56894D01*
X789369Y56883D01*
X789323Y56860D01*
X789273Y56845D01*
X789214Y56804D01*
X789150Y56772D01*
X789113Y56735D01*
X789071Y56705D01*
X789028Y56647D01*
X788978Y56596D01*
X788943Y56533D01*
X788924Y56507D01*
X788917Y56485D01*
X788897Y56449D01*
X787032Y51946D01*
X783504Y48418D01*
X778895Y46509D01*
X773905Y46509D01*
X769296Y48418D01*
X765768Y51946D01*
X763903Y56449D01*
X763866Y56510D01*
X763836Y56576D01*
X763801Y56614D01*
X763774Y56658D01*
X763719Y56704D01*
X763670Y56757D01*
X763624Y56782D01*
X763584Y56815D01*
X763517Y56841D01*
X763454Y56875D01*
X763403Y56885D01*
X763355Y56903D01*
X763283Y56906D01*
X763212Y56919D01*
X763161Y56911D01*
X763109Y56914D01*
X763040Y56894D01*
X762969Y56883D01*
X762923Y56860D01*
X762873Y56845D01*
X762814Y56804D01*
X762750Y56772D01*
X762713Y56735D01*
X762671Y56705D01*
X762628Y56647D01*
X762578Y56596D01*
X762543Y56533D01*
X762524Y56507D01*
X762517Y56485D01*
X762497Y56449D01*
X760632Y51946D01*
X757104Y48418D01*
X752495Y46509D01*
X747505Y46509D01*
X742896Y48418D01*
X739368Y51946D01*
X737503Y56449D01*
X737466Y56510D01*
X737436Y56576D01*
X737401Y56614D01*
X737374Y56658D01*
X737319Y56704D01*
X737270Y56757D01*
X737224Y56782D01*
X737184Y56815D01*
X737117Y56841D01*
X737054Y56875D01*
X737003Y56885D01*
X736955Y56903D01*
X736883Y56906D01*
X736812Y56919D01*
X736761Y56911D01*
X736709Y56914D01*
X736640Y56894D01*
X736569Y56883D01*
X736523Y56860D01*
X736473Y56845D01*
X736414Y56804D01*
X736350Y56772D01*
X736313Y56735D01*
X736271Y56705D01*
X736228Y56647D01*
X736178Y56596D01*
X736143Y56533D01*
X736124Y56507D01*
X736117Y56485D01*
X736097Y56449D01*
X734232Y51946D01*
X730704Y48418D01*
X726095Y46509D01*
X721105Y46509D01*
X716496Y48418D01*
X712968Y51946D01*
X711103Y56449D01*
X711066Y56510D01*
X711036Y56576D01*
X711001Y56614D01*
X710974Y56658D01*
X710919Y56704D01*
X710870Y56757D01*
X710824Y56782D01*
X710784Y56815D01*
X710717Y56841D01*
X710654Y56875D01*
X710603Y56885D01*
X710555Y56903D01*
X710483Y56906D01*
X710412Y56919D01*
X710361Y56911D01*
X710309Y56914D01*
X710240Y56894D01*
X710169Y56883D01*
X710123Y56860D01*
X710073Y56845D01*
X710014Y56804D01*
X709950Y56772D01*
X709913Y56735D01*
X709871Y56705D01*
X709828Y56647D01*
X709778Y56596D01*
X709743Y56533D01*
X709724Y56507D01*
X709717Y56485D01*
X709697Y56449D01*
X707832Y51946D01*
X704304Y48418D01*
X699695Y46509D01*
X694705Y46509D01*
X690096Y48418D01*
X686568Y51946D01*
X684703Y56449D01*
X684666Y56510D01*
X684636Y56576D01*
X684601Y56614D01*
X684574Y56658D01*
X684519Y56704D01*
X684470Y56757D01*
X684424Y56782D01*
X684384Y56815D01*
X684317Y56841D01*
X684254Y56875D01*
X684203Y56885D01*
X684155Y56903D01*
X684083Y56906D01*
X684012Y56919D01*
X683961Y56911D01*
X683909Y56914D01*
X683840Y56894D01*
X683769Y56883D01*
X683723Y56860D01*
X683673Y56845D01*
X683614Y56804D01*
X683550Y56772D01*
X683513Y56735D01*
X683471Y56705D01*
X683428Y56647D01*
X683378Y56596D01*
X683343Y56533D01*
X683324Y56507D01*
X683317Y56485D01*
X683297Y56449D01*
X681432Y51946D01*
X677904Y48418D01*
X673295Y46509D01*
X668305Y46509D01*
X663696Y48418D01*
X660168Y51946D01*
X658303Y56449D01*
X658266Y56510D01*
X658236Y56576D01*
X658201Y56614D01*
X658174Y56658D01*
X658119Y56704D01*
X658070Y56757D01*
X658024Y56782D01*
X657984Y56815D01*
X657917Y56841D01*
X657854Y56875D01*
X657803Y56885D01*
X657755Y56903D01*
X657683Y56906D01*
X657612Y56919D01*
X657561Y56911D01*
X657509Y56914D01*
X657440Y56894D01*
X657369Y56883D01*
X657323Y56860D01*
X657273Y56845D01*
X657214Y56804D01*
X657150Y56772D01*
X657113Y56735D01*
X657071Y56705D01*
X657028Y56647D01*
X656978Y56596D01*
X656943Y56533D01*
X656924Y56507D01*
X656917Y56485D01*
X656897Y56449D01*
X655032Y51946D01*
X651504Y48418D01*
X646895Y46509D01*
X641905Y46509D01*
X637296Y48418D01*
X633768Y51946D01*
X631903Y56449D01*
X631866Y56510D01*
X631836Y56576D01*
X631801Y56614D01*
X631774Y56658D01*
X631719Y56704D01*
X631670Y56757D01*
X631624Y56782D01*
X631584Y56815D01*
X631517Y56841D01*
X631454Y56875D01*
X631403Y56885D01*
X631355Y56903D01*
X631283Y56906D01*
X631212Y56919D01*
X631161Y56911D01*
X631109Y56914D01*
X631040Y56894D01*
X630969Y56883D01*
X630923Y56860D01*
X630873Y56845D01*
X630814Y56804D01*
X630750Y56772D01*
X630713Y56735D01*
X630671Y56705D01*
X630628Y56647D01*
X630578Y56596D01*
X630543Y56533D01*
X630524Y56507D01*
X630517Y56485D01*
X630497Y56449D01*
X628632Y51946D01*
X625104Y48418D01*
X620495Y46509D01*
X615505Y46509D01*
X610896Y48418D01*
X607368Y51946D01*
X605503Y56449D01*
X605466Y56510D01*
X605436Y56576D01*
X605401Y56614D01*
X605374Y56658D01*
X605319Y56704D01*
X605270Y56757D01*
X605224Y56782D01*
X605184Y56815D01*
X605117Y56841D01*
X605054Y56875D01*
X605003Y56885D01*
X604955Y56903D01*
X604883Y56906D01*
X604812Y56919D01*
X604761Y56911D01*
X604709Y56914D01*
X604640Y56894D01*
X604569Y56883D01*
X604523Y56860D01*
X604473Y56845D01*
X604414Y56804D01*
X604350Y56772D01*
X604313Y56735D01*
X604271Y56705D01*
X604228Y56647D01*
X604178Y56596D01*
X604143Y56533D01*
X604124Y56507D01*
X604117Y56485D01*
X604097Y56449D01*
X602232Y51946D01*
X598704Y48418D01*
X594095Y46509D01*
X589105Y46509D01*
X584496Y48418D01*
X580968Y51946D01*
X579103Y56449D01*
X579066Y56510D01*
X579036Y56576D01*
X579001Y56614D01*
X578974Y56658D01*
X578919Y56704D01*
X578870Y56757D01*
X578824Y56782D01*
X578784Y56815D01*
X578717Y56841D01*
X578654Y56875D01*
X578603Y56885D01*
X578555Y56903D01*
X578483Y56906D01*
X578412Y56919D01*
X578361Y56911D01*
X578309Y56914D01*
X578240Y56894D01*
X578169Y56883D01*
X578123Y56860D01*
X578073Y56845D01*
X578014Y56804D01*
X577950Y56772D01*
X577913Y56735D01*
X577871Y56705D01*
X577828Y56647D01*
X577778Y56596D01*
X577743Y56533D01*
X577724Y56507D01*
X577717Y56485D01*
X577697Y56449D01*
X575832Y51946D01*
X572304Y48418D01*
X567695Y46509D01*
X562705Y46509D01*
X558096Y48418D01*
X554568Y51946D01*
X552703Y56449D01*
X552666Y56510D01*
X552636Y56576D01*
X552601Y56614D01*
X552574Y56658D01*
X552519Y56704D01*
X552470Y56757D01*
X552424Y56782D01*
X552384Y56815D01*
X552317Y56841D01*
X552254Y56875D01*
X552203Y56885D01*
X552155Y56903D01*
X552083Y56906D01*
X552012Y56919D01*
X551961Y56911D01*
X551909Y56914D01*
X551840Y56894D01*
X551769Y56883D01*
X551723Y56860D01*
X551673Y56845D01*
X551614Y56804D01*
X551550Y56772D01*
X551513Y56735D01*
X551471Y56705D01*
X551428Y56647D01*
X551378Y56596D01*
X551343Y56533D01*
X551324Y56507D01*
X551317Y56485D01*
X551297Y56449D01*
X549432Y51946D01*
X545904Y48418D01*
X541295Y46509D01*
X536305Y46509D01*
X531696Y48418D01*
X528168Y51946D01*
X526303Y56449D01*
X526266Y56510D01*
X526236Y56576D01*
X526201Y56614D01*
X526174Y56658D01*
X526119Y56704D01*
X526070Y56757D01*
X526024Y56782D01*
X525984Y56815D01*
X525917Y56841D01*
X525854Y56875D01*
X525803Y56885D01*
X525755Y56903D01*
X525683Y56906D01*
X525612Y56919D01*
X525561Y56911D01*
X525509Y56914D01*
X525440Y56894D01*
X525369Y56883D01*
X525323Y56860D01*
X525273Y56845D01*
X525214Y56804D01*
X525150Y56772D01*
X525113Y56735D01*
X525071Y56705D01*
X525028Y56647D01*
X524978Y56596D01*
X524943Y56533D01*
X524924Y56507D01*
X524917Y56485D01*
X524897Y56449D01*
X523032Y51946D01*
X519504Y48418D01*
X514895Y46509D01*
X509905Y46509D01*
X505296Y48418D01*
X501768Y51946D01*
X499859Y56555D01*
X499859Y61545D01*
X501768Y66154D01*
X505296Y69682D01*
X509905Y71591D01*
X514895Y71591D01*
X519504Y69682D01*
X523032Y66154D01*
X524897Y61651D01*
X524935Y61590D01*
X524964Y61524D01*
X524999Y61486D01*
X525026Y61442D01*
X525082Y61396D01*
X525130Y61343D01*
X525176Y61318D01*
X525216Y61285D01*
X525283Y61259D01*
X525346Y61225D01*
X525397Y61215D01*
X525445Y61197D01*
X525517Y61194D01*
X525588Y61181D01*
X525639Y61189D01*
X525691Y61186D01*
X525760Y61206D01*
X525831Y61217D01*
X525877Y61240D01*
X525927Y61255D01*
X525986Y61296D01*
X526050Y61328D01*
X526087Y61365D01*
X526129Y61395D01*
X526172Y61453D01*
X526222Y61504D01*
X526257Y61567D01*
X526276Y61593D01*
X526283Y61615D01*
X526303Y61651D01*
X528168Y66154D01*
X531696Y69682D01*
X536305Y71591D01*
X541295Y71591D01*
X545904Y69682D01*
X549432Y66154D01*
X551297Y61651D01*
X551335Y61590D01*
X551364Y61524D01*
X551399Y61486D01*
X551426Y61442D01*
X551482Y61396D01*
X551530Y61343D01*
X551576Y61318D01*
X551616Y61285D01*
X551683Y61259D01*
X551746Y61225D01*
X551797Y61215D01*
X551845Y61197D01*
X551917Y61194D01*
X551988Y61181D01*
X552039Y61189D01*
X552091Y61186D01*
X552160Y61206D01*
X552231Y61217D01*
X552277Y61240D01*
X552327Y61255D01*
X552386Y61296D01*
X552450Y61328D01*
X552487Y61365D01*
X552529Y61395D01*
X552572Y61453D01*
X552622Y61504D01*
X552657Y61567D01*
X552676Y61593D01*
X552683Y61615D01*
X552703Y61651D01*
X554568Y66154D01*
X558096Y69682D01*
X562705Y71591D01*
X567695Y71591D01*
X572304Y69682D01*
X575832Y66154D01*
X577697Y61651D01*
X577735Y61590D01*
X577764Y61524D01*
X577799Y61486D01*
X577826Y61442D01*
X577882Y61396D01*
X577930Y61343D01*
X577976Y61318D01*
X578016Y61285D01*
X578083Y61259D01*
X578146Y61225D01*
X578197Y61215D01*
X578245Y61197D01*
X578317Y61194D01*
X578388Y61181D01*
X578439Y61189D01*
X578491Y61186D01*
X578560Y61206D01*
X578631Y61217D01*
X578677Y61240D01*
X578727Y61255D01*
X578786Y61296D01*
X578850Y61328D01*
X578887Y61365D01*
X578929Y61395D01*
X578972Y61453D01*
X579022Y61504D01*
X579057Y61567D01*
X579076Y61593D01*
X579083Y61615D01*
X579103Y61651D01*
X580968Y66154D01*
X584496Y69682D01*
X589105Y71591D01*
X594095Y71591D01*
X598704Y69682D01*
X602232Y66154D01*
X604097Y61651D01*
X604135Y61590D01*
X604164Y61524D01*
X604199Y61486D01*
X604226Y61442D01*
X604282Y61396D01*
X604330Y61343D01*
X604376Y61318D01*
X604416Y61285D01*
X604483Y61259D01*
X604546Y61225D01*
X604597Y61215D01*
X604645Y61197D01*
X604717Y61194D01*
X604788Y61181D01*
X604839Y61189D01*
X604891Y61186D01*
X604960Y61206D01*
X605031Y61217D01*
X605077Y61240D01*
X605127Y61255D01*
X605186Y61296D01*
X605250Y61328D01*
X605287Y61365D01*
X605329Y61395D01*
X605372Y61453D01*
X605422Y61504D01*
X605457Y61567D01*
X605476Y61593D01*
X605483Y61615D01*
X605503Y61651D01*
X607368Y66154D01*
X610896Y69682D01*
X615505Y71591D01*
X620495Y71591D01*
X625104Y69682D01*
X628632Y66154D01*
X630497Y61651D01*
X630535Y61590D01*
X630564Y61524D01*
X630599Y61486D01*
X630626Y61442D01*
X630682Y61396D01*
X630730Y61343D01*
X630776Y61318D01*
X630816Y61285D01*
X630883Y61259D01*
X630946Y61225D01*
X630997Y61215D01*
X631045Y61197D01*
X631117Y61194D01*
X631188Y61181D01*
X631239Y61189D01*
X631291Y61186D01*
X631360Y61206D01*
X631431Y61217D01*
X631477Y61240D01*
X631527Y61255D01*
X631586Y61296D01*
X631650Y61328D01*
X631687Y61365D01*
X631729Y61395D01*
X631772Y61453D01*
X631822Y61504D01*
X631857Y61567D01*
X631876Y61593D01*
X631883Y61615D01*
X631903Y61651D01*
X633768Y66154D01*
X637296Y69682D01*
X641905Y71591D01*
X646895Y71591D01*
X651504Y69682D01*
X655032Y66154D01*
X656897Y61651D01*
X656935Y61590D01*
X656964Y61524D01*
X656999Y61486D01*
X657026Y61442D01*
X657082Y61396D01*
X657130Y61343D01*
X657176Y61318D01*
X657216Y61285D01*
X657283Y61259D01*
X657346Y61225D01*
X657397Y61215D01*
X657445Y61197D01*
X657517Y61194D01*
X657588Y61181D01*
X657639Y61189D01*
X657691Y61186D01*
X657760Y61206D01*
X657831Y61217D01*
X657877Y61240D01*
X657927Y61255D01*
X657986Y61296D01*
X658050Y61328D01*
X658087Y61365D01*
X658129Y61395D01*
X658172Y61453D01*
X658222Y61504D01*
X658257Y61567D01*
X658276Y61593D01*
X658283Y61615D01*
X658303Y61651D01*
X660168Y66154D01*
X663696Y69682D01*
X668305Y71591D01*
X673295Y71591D01*
X677904Y69682D01*
X681432Y66154D01*
X683297Y61651D01*
X683335Y61590D01*
X683364Y61524D01*
X683399Y61486D01*
X683426Y61442D01*
X683482Y61396D01*
X683530Y61343D01*
X683576Y61318D01*
X683616Y61285D01*
X683683Y61259D01*
X683746Y61225D01*
X683797Y61215D01*
X683845Y61197D01*
X683917Y61194D01*
X683988Y61181D01*
X684039Y61189D01*
X684091Y61186D01*
X684160Y61206D01*
X684231Y61217D01*
X684277Y61240D01*
X684327Y61255D01*
X684386Y61296D01*
X684450Y61328D01*
X684487Y61365D01*
X684529Y61395D01*
X684572Y61453D01*
X684622Y61504D01*
X684657Y61567D01*
X684676Y61593D01*
X684683Y61615D01*
X684703Y61651D01*
X686568Y66154D01*
X690096Y69682D01*
X694705Y71591D01*
X699695Y71591D01*
X704304Y69682D01*
X707832Y66154D01*
X709697Y61651D01*
X709735Y61590D01*
X709764Y61524D01*
X709799Y61486D01*
X709826Y61442D01*
X709882Y61396D01*
X709930Y61343D01*
X709976Y61318D01*
X710016Y61285D01*
X710083Y61259D01*
X710146Y61225D01*
X710197Y61215D01*
X710245Y61197D01*
X710317Y61194D01*
X710388Y61181D01*
X710439Y61189D01*
X710491Y61186D01*
X710560Y61206D01*
X710631Y61217D01*
X710677Y61240D01*
X710727Y61255D01*
X710786Y61296D01*
X710850Y61328D01*
X710887Y61365D01*
X710929Y61395D01*
X710972Y61453D01*
X711022Y61504D01*
X711057Y61567D01*
X711076Y61593D01*
X711083Y61615D01*
X711103Y61651D01*
X712968Y66154D01*
X716496Y69682D01*
X721105Y71591D01*
X726095Y71591D01*
X730704Y69682D01*
X734232Y66154D01*
X736097Y61651D01*
X736135Y61590D01*
X736164Y61524D01*
X736199Y61486D01*
X736226Y61442D01*
X736282Y61396D01*
X736330Y61343D01*
X736376Y61318D01*
X736416Y61285D01*
X736483Y61259D01*
X736546Y61225D01*
X736597Y61215D01*
X736645Y61197D01*
X736717Y61194D01*
X736788Y61181D01*
X736839Y61189D01*
X736891Y61186D01*
X736960Y61206D01*
X737031Y61217D01*
X737077Y61240D01*
X737127Y61255D01*
X737186Y61296D01*
X737250Y61328D01*
X737287Y61365D01*
X737329Y61395D01*
X737372Y61453D01*
X737422Y61504D01*
X737457Y61567D01*
X737476Y61593D01*
X737483Y61615D01*
X737503Y61651D01*
X739368Y66154D01*
X742896Y69682D01*
X747505Y71591D01*
X752495Y71591D01*
X757104Y69682D01*
X760632Y66154D01*
X762497Y61651D01*
X762535Y61590D01*
X762564Y61524D01*
X762599Y61486D01*
X762626Y61442D01*
X762682Y61396D01*
X762730Y61343D01*
X762776Y61318D01*
X762816Y61285D01*
X762883Y61259D01*
X762946Y61225D01*
X762997Y61215D01*
X763045Y61197D01*
X763117Y61194D01*
X763188Y61181D01*
X763239Y61189D01*
X763291Y61186D01*
X763360Y61206D01*
X763431Y61217D01*
X763477Y61240D01*
X763527Y61255D01*
X763586Y61296D01*
X763650Y61328D01*
X763687Y61365D01*
X763729Y61395D01*
X763772Y61453D01*
X763822Y61504D01*
X763857Y61567D01*
X763876Y61593D01*
X763883Y61615D01*
X763903Y61651D01*
X765768Y66154D01*
X769296Y69682D01*
X773905Y71591D01*
X778895Y71591D01*
X783504Y69682D01*
X787032Y66154D01*
X788897Y61651D01*
X788935Y61590D01*
X788964Y61524D01*
X788999Y61486D01*
X789026Y61442D01*
X789082Y61396D01*
X789130Y61343D01*
X789176Y61318D01*
X789216Y61285D01*
X789283Y61259D01*
X789346Y61225D01*
X789397Y61215D01*
X789445Y61197D01*
X789517Y61194D01*
X789588Y61181D01*
X789639Y61189D01*
X789691Y61186D01*
X789760Y61206D01*
X789831Y61217D01*
X789877Y61240D01*
X789927Y61255D01*
X789986Y61296D01*
X790050Y61328D01*
X790087Y61365D01*
X790129Y61395D01*
X790172Y61453D01*
X790222Y61504D01*
X790257Y61567D01*
X790276Y61593D01*
X790283Y61615D01*
X790303Y61651D01*
X792168Y66154D01*
X795696Y69682D01*
X800305Y71591D01*
X805295Y71591D01*
X809904Y69682D01*
X813432Y66154D01*
X815297Y61651D01*
X815335Y61590D01*
X815364Y61524D01*
X815399Y61486D01*
X815426Y61442D01*
X815482Y61396D01*
X815530Y61343D01*
X815576Y61318D01*
X815616Y61285D01*
X815683Y61259D01*
X815746Y61225D01*
X815797Y61215D01*
X815845Y61197D01*
X815917Y61194D01*
X815988Y61181D01*
X816039Y61189D01*
X816091Y61186D01*
X816160Y61206D01*
X816231Y61217D01*
X816277Y61240D01*
X816327Y61255D01*
X816386Y61296D01*
X816450Y61328D01*
X816487Y61365D01*
X816529Y61395D01*
X816572Y61453D01*
X816622Y61504D01*
X816657Y61567D01*
X816676Y61592D01*
X816683Y61615D01*
X816703Y61651D01*
X818568Y66154D01*
X822096Y69682D01*
X826705Y71591D01*
X831695Y71591D01*
X836304Y69682D01*
X839832Y66154D01*
X841697Y61651D01*
X841735Y61590D01*
X841764Y61524D01*
X841799Y61486D01*
X841826Y61442D01*
X841882Y61396D01*
X841930Y61343D01*
X841976Y61318D01*
X842016Y61285D01*
X842083Y61259D01*
X842146Y61225D01*
X842197Y61215D01*
X842245Y61197D01*
X842317Y61194D01*
X842388Y61181D01*
X842439Y61189D01*
X842491Y61186D01*
X842560Y61206D01*
X842631Y61217D01*
X842677Y61240D01*
X842727Y61255D01*
X842786Y61296D01*
X842850Y61328D01*
X842887Y61365D01*
X842929Y61395D01*
X842972Y61453D01*
X843022Y61504D01*
X843057Y61567D01*
X843076Y61592D01*
X843083Y61615D01*
X843103Y61651D01*
X844968Y66154D01*
X848496Y69682D01*
X853105Y71591D01*
X858095Y71591D01*
X862704Y69682D01*
X866232Y66154D01*
X868097Y61651D01*
X868135Y61590D01*
X868164Y61524D01*
X868199Y61486D01*
X868226Y61442D01*
X868282Y61396D01*
X868330Y61343D01*
X868376Y61318D01*
X868416Y61285D01*
X868483Y61259D01*
X868546Y61225D01*
X868597Y61215D01*
X868645Y61197D01*
X868717Y61194D01*
X868788Y61181D01*
X868839Y61189D01*
X868891Y61186D01*
X868960Y61206D01*
X869031Y61217D01*
X869077Y61240D01*
X869127Y61255D01*
X869186Y61296D01*
X869250Y61328D01*
X869287Y61365D01*
X869329Y61395D01*
X869372Y61453D01*
X869422Y61504D01*
X869457Y61567D01*
X869476Y61592D01*
X869483Y61615D01*
X869503Y61651D01*
X871368Y66154D01*
X874896Y69682D01*
X879505Y71591D01*
X884495Y71591D01*
X889104Y69682D01*
X892632Y66154D01*
X894497Y61651D01*
X894535Y61590D01*
X894564Y61524D01*
X894599Y61486D01*
X894626Y61442D01*
X894682Y61396D01*
X894730Y61343D01*
X894776Y61318D01*
X894816Y61285D01*
X894883Y61259D01*
X894946Y61225D01*
X894997Y61215D01*
X895045Y61197D01*
X895117Y61194D01*
X895188Y61181D01*
X895239Y61189D01*
X895291Y61186D01*
X895360Y61206D01*
X895431Y61217D01*
X895477Y61240D01*
X895527Y61255D01*
X895586Y61296D01*
X895650Y61328D01*
X895687Y61365D01*
X895729Y61395D01*
X895772Y61453D01*
X895822Y61504D01*
X895857Y61567D01*
X895876Y61592D01*
X895883Y61615D01*
X895903Y61651D01*
X897768Y66154D01*
X901296Y69682D01*
X905905Y71591D01*
X910895Y71591D01*
X915504Y69682D01*
X919032Y66154D01*
X920897Y61651D01*
X920935Y61590D01*
X920964Y61524D01*
X920999Y61486D01*
X921026Y61442D01*
X921082Y61396D01*
X921130Y61343D01*
X921176Y61318D01*
X921216Y61285D01*
X921283Y61259D01*
X921346Y61225D01*
X921397Y61215D01*
X921445Y61197D01*
X921517Y61194D01*
X921588Y61181D01*
X921639Y61189D01*
X921691Y61186D01*
X921760Y61206D01*
X921831Y61217D01*
X921877Y61240D01*
X921927Y61255D01*
X921986Y61296D01*
X922050Y61328D01*
X922087Y61365D01*
X922129Y61395D01*
X922172Y61453D01*
X922222Y61504D01*
X922257Y61567D01*
X922276Y61592D01*
X922283Y61615D01*
X922303Y61651D01*
X924168Y66154D01*
X927696Y69682D01*
X932305Y71591D01*
X937295Y71591D01*
X941904Y69682D01*
X945432Y66154D01*
X947341Y61545D01*
X947341Y56555D01*
X945432Y51946D01*
X941904Y48418D01*
X937295Y46509D01*
X932305Y46509D01*
X927696Y48418D01*
X924168Y51946D01*
X922303Y56449D01*
X922265Y56510D01*
X922236Y56576D01*
X922201Y56614D01*
X922174Y56658D01*
X922118Y56704D01*
X922070Y56757D01*
X922024Y56782D01*
X921984Y56815D01*
X921917Y56841D01*
X921854Y56875D01*
X921803Y56885D01*
X921755Y56903D01*
X921683Y56906D01*
X921612Y56919D01*
X921561Y56911D01*
X921509Y56914D01*
X921440Y56894D01*
X921369Y56883D01*
X921323Y56860D01*
X921273Y56845D01*
X921214Y56804D01*
X921150Y56772D01*
X921113Y56735D01*
X921071Y56705D01*
X921028Y56647D01*
X920978Y56596D01*
X920943Y56533D01*
X920924Y56508D01*
X920917Y56485D01*
X920897Y56449D01*
X919032Y51946D01*
X915504Y48418D01*
X910895Y46509D01*
X905905Y46509D01*
X901296Y48418D01*
X897768Y51946D01*
X895903Y56449D01*
X895865Y56510D01*
X895836Y56576D01*
X895801Y56614D01*
X895774Y56658D01*
X895718Y56704D01*
X895670Y56757D01*
X895624Y56782D01*
X895584Y56815D01*
X895517Y56841D01*
X895454Y56875D01*
X895403Y56885D01*
X895355Y56903D01*
X895283Y56906D01*
X895212Y56919D01*
X895161Y56911D01*
X895109Y56914D01*
X895040Y56894D01*
X894969Y56883D01*
X894923Y56860D01*
X894873Y56845D01*
X894814Y56804D01*
X894750Y56772D01*
X894713Y56735D01*
X894671Y56705D01*
X894628Y56647D01*
X894578Y56596D01*
X894543Y56533D01*
X894524Y56508D01*
X894517Y56485D01*
X894497Y56449D01*
X892632Y51946D01*
X889104Y48418D01*
X884775Y46625D01*
X884692Y46574D01*
X884606Y46528D01*
X884588Y46510D01*
X884565Y46496D01*
X884503Y46420D01*
X884436Y46350D01*
X884425Y46326D01*
X884409Y46306D01*
X884374Y46215D01*
X884333Y46127D01*
X884330Y46101D01*
X884320Y46077D01*
X884316Y45979D01*
X884306Y45883D01*
X884311Y45857D01*
X884310Y45831D01*
X884337Y45737D01*
X884358Y45642D01*
X884371Y45620D01*
X884379Y45595D01*
X884434Y45515D01*
X884484Y45431D01*
X884504Y45414D01*
X884519Y45393D01*
X884597Y45334D01*
X884671Y45271D01*
X884695Y45261D01*
X884716Y45246D01*
X884809Y45216D01*
X884899Y45179D01*
X884932Y45176D01*
X884950Y45170D01*
X884983Y45170D01*
X885066Y45161D01*
X903016Y45161D01*
X908588Y42853D01*
X912853Y38588D01*
X915161Y33016D01*
X915161Y26984D01*
X912853Y21412D01*
X908588Y17147D01*
X903016Y14839D01*
X816984Y14839D01*
G37*
%LPD*%
%LPC*%
G36*
X509905Y273839D02*
X509905Y273839D01*
X505296Y275748D01*
X501768Y279276D01*
X499859Y283885D01*
X499859Y288875D01*
X501768Y293484D01*
X505296Y297012D01*
X509905Y298921D01*
X514895Y298921D01*
X519504Y297012D01*
X523032Y293484D01*
X524897Y288981D01*
X524935Y288920D01*
X524964Y288854D01*
X524999Y288816D01*
X525026Y288772D01*
X525082Y288726D01*
X525130Y288673D01*
X525176Y288648D01*
X525216Y288615D01*
X525283Y288589D01*
X525346Y288555D01*
X525397Y288545D01*
X525445Y288527D01*
X525517Y288524D01*
X525588Y288511D01*
X525639Y288519D01*
X525691Y288516D01*
X525760Y288536D01*
X525831Y288547D01*
X525877Y288570D01*
X525927Y288585D01*
X525986Y288626D01*
X526050Y288658D01*
X526087Y288695D01*
X526129Y288725D01*
X526172Y288783D01*
X526222Y288834D01*
X526257Y288897D01*
X526276Y288922D01*
X526283Y288945D01*
X526303Y288981D01*
X528168Y293484D01*
X531696Y297012D01*
X536305Y298921D01*
X541295Y298921D01*
X545904Y297012D01*
X549432Y293484D01*
X551297Y288981D01*
X551335Y288920D01*
X551364Y288854D01*
X551399Y288816D01*
X551426Y288772D01*
X551482Y288726D01*
X551530Y288673D01*
X551576Y288648D01*
X551616Y288615D01*
X551683Y288589D01*
X551746Y288555D01*
X551797Y288545D01*
X551845Y288527D01*
X551917Y288524D01*
X551988Y288511D01*
X552039Y288519D01*
X552091Y288516D01*
X552160Y288536D01*
X552231Y288547D01*
X552277Y288570D01*
X552327Y288585D01*
X552386Y288626D01*
X552450Y288658D01*
X552487Y288695D01*
X552529Y288725D01*
X552572Y288783D01*
X552622Y288834D01*
X552657Y288897D01*
X552676Y288922D01*
X552683Y288945D01*
X552703Y288981D01*
X554568Y293484D01*
X558096Y297012D01*
X562705Y298921D01*
X567695Y298921D01*
X572304Y297012D01*
X575832Y293484D01*
X577697Y288981D01*
X577735Y288920D01*
X577764Y288854D01*
X577799Y288816D01*
X577826Y288772D01*
X577882Y288726D01*
X577930Y288673D01*
X577976Y288648D01*
X578016Y288615D01*
X578083Y288589D01*
X578146Y288555D01*
X578197Y288545D01*
X578245Y288527D01*
X578317Y288524D01*
X578388Y288511D01*
X578439Y288519D01*
X578491Y288516D01*
X578560Y288536D01*
X578631Y288547D01*
X578677Y288570D01*
X578727Y288585D01*
X578786Y288626D01*
X578850Y288658D01*
X578887Y288695D01*
X578929Y288725D01*
X578972Y288783D01*
X579022Y288834D01*
X579057Y288897D01*
X579076Y288922D01*
X579083Y288945D01*
X579103Y288981D01*
X580968Y293484D01*
X584496Y297012D01*
X589105Y298921D01*
X594095Y298921D01*
X598704Y297012D01*
X602232Y293484D01*
X604097Y288981D01*
X604135Y288920D01*
X604164Y288854D01*
X604199Y288816D01*
X604226Y288772D01*
X604282Y288726D01*
X604330Y288673D01*
X604376Y288648D01*
X604416Y288615D01*
X604483Y288589D01*
X604546Y288555D01*
X604597Y288545D01*
X604645Y288527D01*
X604717Y288524D01*
X604788Y288511D01*
X604839Y288519D01*
X604891Y288516D01*
X604960Y288536D01*
X605031Y288547D01*
X605077Y288570D01*
X605127Y288585D01*
X605186Y288626D01*
X605250Y288658D01*
X605287Y288695D01*
X605329Y288725D01*
X605372Y288783D01*
X605422Y288834D01*
X605457Y288897D01*
X605476Y288922D01*
X605483Y288945D01*
X605503Y288981D01*
X607368Y293484D01*
X610896Y297012D01*
X615505Y298921D01*
X620495Y298921D01*
X625104Y297012D01*
X628632Y293484D01*
X630497Y288981D01*
X630535Y288920D01*
X630564Y288854D01*
X630599Y288816D01*
X630626Y288772D01*
X630682Y288726D01*
X630730Y288673D01*
X630776Y288648D01*
X630816Y288615D01*
X630883Y288589D01*
X630946Y288555D01*
X630997Y288545D01*
X631045Y288527D01*
X631117Y288524D01*
X631188Y288511D01*
X631239Y288519D01*
X631291Y288516D01*
X631360Y288536D01*
X631431Y288547D01*
X631477Y288570D01*
X631527Y288585D01*
X631586Y288626D01*
X631650Y288658D01*
X631687Y288695D01*
X631729Y288725D01*
X631772Y288783D01*
X631822Y288834D01*
X631857Y288897D01*
X631876Y288922D01*
X631883Y288945D01*
X631903Y288981D01*
X633768Y293484D01*
X637296Y297012D01*
X641905Y298921D01*
X646895Y298921D01*
X651504Y297012D01*
X655032Y293484D01*
X656897Y288981D01*
X656935Y288920D01*
X656964Y288854D01*
X656999Y288816D01*
X657026Y288772D01*
X657082Y288726D01*
X657130Y288673D01*
X657176Y288648D01*
X657216Y288615D01*
X657283Y288589D01*
X657346Y288555D01*
X657397Y288545D01*
X657445Y288527D01*
X657517Y288524D01*
X657588Y288511D01*
X657639Y288519D01*
X657691Y288516D01*
X657760Y288536D01*
X657831Y288547D01*
X657877Y288570D01*
X657927Y288585D01*
X657986Y288626D01*
X658050Y288658D01*
X658087Y288695D01*
X658129Y288725D01*
X658172Y288783D01*
X658222Y288834D01*
X658257Y288897D01*
X658276Y288922D01*
X658283Y288945D01*
X658303Y288981D01*
X660168Y293484D01*
X663696Y297012D01*
X668305Y298921D01*
X673295Y298921D01*
X677904Y297012D01*
X681432Y293484D01*
X683297Y288981D01*
X683335Y288920D01*
X683364Y288854D01*
X683399Y288816D01*
X683426Y288772D01*
X683482Y288726D01*
X683530Y288673D01*
X683576Y288648D01*
X683616Y288615D01*
X683683Y288589D01*
X683746Y288555D01*
X683797Y288545D01*
X683845Y288527D01*
X683917Y288524D01*
X683988Y288511D01*
X684039Y288519D01*
X684091Y288516D01*
X684160Y288536D01*
X684231Y288547D01*
X684277Y288570D01*
X684327Y288585D01*
X684386Y288626D01*
X684450Y288658D01*
X684487Y288695D01*
X684529Y288725D01*
X684572Y288783D01*
X684622Y288834D01*
X684657Y288897D01*
X684676Y288922D01*
X684683Y288945D01*
X684703Y288981D01*
X686568Y293484D01*
X690096Y297012D01*
X694705Y298921D01*
X699695Y298921D01*
X704304Y297012D01*
X707832Y293484D01*
X709697Y288981D01*
X709735Y288920D01*
X709764Y288854D01*
X709799Y288816D01*
X709826Y288772D01*
X709882Y288726D01*
X709930Y288673D01*
X709976Y288648D01*
X710016Y288615D01*
X710083Y288589D01*
X710146Y288555D01*
X710197Y288545D01*
X710245Y288527D01*
X710317Y288524D01*
X710388Y288511D01*
X710439Y288519D01*
X710491Y288516D01*
X710560Y288536D01*
X710631Y288547D01*
X710677Y288570D01*
X710727Y288585D01*
X710786Y288626D01*
X710850Y288658D01*
X710887Y288695D01*
X710929Y288725D01*
X710972Y288783D01*
X711022Y288834D01*
X711057Y288897D01*
X711076Y288922D01*
X711083Y288945D01*
X711103Y288981D01*
X712968Y293484D01*
X716496Y297012D01*
X721105Y298921D01*
X726095Y298921D01*
X730704Y297012D01*
X734232Y293484D01*
X736097Y288981D01*
X736135Y288920D01*
X736164Y288854D01*
X736199Y288816D01*
X736226Y288772D01*
X736282Y288726D01*
X736330Y288673D01*
X736376Y288648D01*
X736416Y288615D01*
X736483Y288589D01*
X736546Y288555D01*
X736597Y288545D01*
X736645Y288527D01*
X736717Y288524D01*
X736788Y288511D01*
X736839Y288519D01*
X736891Y288516D01*
X736960Y288536D01*
X737031Y288547D01*
X737077Y288570D01*
X737127Y288585D01*
X737186Y288626D01*
X737250Y288658D01*
X737287Y288695D01*
X737329Y288725D01*
X737372Y288783D01*
X737422Y288834D01*
X737457Y288897D01*
X737476Y288922D01*
X737483Y288945D01*
X737503Y288981D01*
X739368Y293484D01*
X742896Y297012D01*
X747505Y298921D01*
X752495Y298921D01*
X757104Y297012D01*
X760632Y293484D01*
X762497Y288981D01*
X762535Y288920D01*
X762564Y288854D01*
X762599Y288816D01*
X762626Y288772D01*
X762682Y288726D01*
X762730Y288673D01*
X762776Y288648D01*
X762816Y288615D01*
X762883Y288589D01*
X762946Y288555D01*
X762997Y288545D01*
X763045Y288527D01*
X763117Y288524D01*
X763188Y288511D01*
X763239Y288519D01*
X763291Y288516D01*
X763360Y288536D01*
X763431Y288547D01*
X763477Y288570D01*
X763527Y288585D01*
X763586Y288626D01*
X763650Y288658D01*
X763687Y288695D01*
X763729Y288725D01*
X763772Y288783D01*
X763822Y288834D01*
X763857Y288897D01*
X763876Y288922D01*
X763883Y288945D01*
X763903Y288981D01*
X765768Y293484D01*
X769296Y297012D01*
X773905Y298921D01*
X778895Y298921D01*
X783504Y297012D01*
X787032Y293484D01*
X788897Y288981D01*
X788934Y288920D01*
X788964Y288854D01*
X788999Y288816D01*
X789026Y288772D01*
X789081Y288726D01*
X789130Y288673D01*
X789176Y288648D01*
X789216Y288615D01*
X789283Y288589D01*
X789346Y288555D01*
X789397Y288545D01*
X789445Y288527D01*
X789517Y288524D01*
X789588Y288511D01*
X789639Y288519D01*
X789691Y288516D01*
X789760Y288536D01*
X789831Y288547D01*
X789877Y288570D01*
X789927Y288585D01*
X789986Y288626D01*
X790050Y288658D01*
X790087Y288695D01*
X790129Y288725D01*
X790172Y288783D01*
X790222Y288834D01*
X790257Y288897D01*
X790276Y288923D01*
X790283Y288945D01*
X790303Y288981D01*
X792168Y293484D01*
X795696Y297012D01*
X800305Y298921D01*
X805295Y298921D01*
X809904Y297012D01*
X813432Y293484D01*
X815297Y288981D01*
X815335Y288920D01*
X815364Y288854D01*
X815399Y288816D01*
X815426Y288772D01*
X815482Y288726D01*
X815530Y288673D01*
X815576Y288648D01*
X815616Y288615D01*
X815683Y288589D01*
X815746Y288555D01*
X815797Y288545D01*
X815845Y288527D01*
X815917Y288524D01*
X815988Y288511D01*
X816039Y288519D01*
X816091Y288516D01*
X816160Y288536D01*
X816231Y288547D01*
X816277Y288570D01*
X816327Y288585D01*
X816386Y288626D01*
X816450Y288658D01*
X816487Y288695D01*
X816529Y288725D01*
X816572Y288783D01*
X816622Y288834D01*
X816657Y288897D01*
X816676Y288923D01*
X816683Y288945D01*
X816703Y288981D01*
X818568Y293484D01*
X822096Y297012D01*
X826705Y298921D01*
X831695Y298921D01*
X836304Y297012D01*
X839832Y293484D01*
X841697Y288981D01*
X841735Y288920D01*
X841764Y288854D01*
X841799Y288816D01*
X841826Y288772D01*
X841882Y288726D01*
X841930Y288673D01*
X841976Y288648D01*
X842016Y288615D01*
X842083Y288589D01*
X842146Y288555D01*
X842197Y288545D01*
X842245Y288527D01*
X842317Y288524D01*
X842388Y288511D01*
X842439Y288519D01*
X842491Y288516D01*
X842560Y288536D01*
X842631Y288547D01*
X842677Y288570D01*
X842727Y288585D01*
X842786Y288626D01*
X842850Y288658D01*
X842887Y288695D01*
X842929Y288725D01*
X842972Y288783D01*
X843022Y288834D01*
X843057Y288897D01*
X843076Y288923D01*
X843083Y288945D01*
X843103Y288981D01*
X844968Y293484D01*
X848496Y297012D01*
X853105Y298921D01*
X858095Y298921D01*
X862704Y297012D01*
X866232Y293484D01*
X868097Y288981D01*
X868135Y288920D01*
X868164Y288854D01*
X868199Y288816D01*
X868226Y288772D01*
X868282Y288726D01*
X868330Y288673D01*
X868376Y288648D01*
X868416Y288615D01*
X868483Y288589D01*
X868546Y288555D01*
X868597Y288545D01*
X868645Y288527D01*
X868717Y288524D01*
X868788Y288511D01*
X868839Y288519D01*
X868891Y288516D01*
X868960Y288536D01*
X869031Y288547D01*
X869077Y288570D01*
X869127Y288585D01*
X869186Y288626D01*
X869250Y288658D01*
X869287Y288695D01*
X869329Y288725D01*
X869372Y288783D01*
X869422Y288834D01*
X869457Y288897D01*
X869476Y288923D01*
X869483Y288945D01*
X869503Y288981D01*
X871368Y293484D01*
X874896Y297012D01*
X879505Y298921D01*
X884495Y298921D01*
X889104Y297012D01*
X892632Y293484D01*
X894497Y288981D01*
X894535Y288920D01*
X894564Y288854D01*
X894599Y288816D01*
X894626Y288772D01*
X894682Y288726D01*
X894730Y288673D01*
X894776Y288648D01*
X894816Y288615D01*
X894883Y288589D01*
X894946Y288555D01*
X894997Y288545D01*
X895045Y288527D01*
X895117Y288524D01*
X895188Y288511D01*
X895239Y288519D01*
X895291Y288516D01*
X895360Y288536D01*
X895431Y288547D01*
X895477Y288570D01*
X895527Y288585D01*
X895586Y288626D01*
X895650Y288658D01*
X895687Y288695D01*
X895729Y288725D01*
X895772Y288783D01*
X895822Y288834D01*
X895857Y288897D01*
X895876Y288923D01*
X895883Y288945D01*
X895903Y288981D01*
X897768Y293484D01*
X901296Y297012D01*
X905905Y298921D01*
X910895Y298921D01*
X915504Y297012D01*
X919032Y293484D01*
X920897Y288981D01*
X920935Y288920D01*
X920964Y288854D01*
X920999Y288816D01*
X921026Y288772D01*
X921082Y288726D01*
X921130Y288673D01*
X921176Y288648D01*
X921216Y288615D01*
X921283Y288589D01*
X921346Y288555D01*
X921397Y288545D01*
X921445Y288527D01*
X921517Y288524D01*
X921588Y288511D01*
X921639Y288519D01*
X921691Y288516D01*
X921760Y288536D01*
X921831Y288547D01*
X921877Y288570D01*
X921927Y288585D01*
X921986Y288626D01*
X922050Y288658D01*
X922087Y288695D01*
X922129Y288725D01*
X922172Y288783D01*
X922222Y288834D01*
X922257Y288897D01*
X922276Y288923D01*
X922283Y288945D01*
X922303Y288981D01*
X924168Y293484D01*
X927696Y297012D01*
X932305Y298921D01*
X937295Y298921D01*
X941904Y297012D01*
X945432Y293484D01*
X947341Y288875D01*
X947341Y283885D01*
X945432Y279276D01*
X941904Y275748D01*
X937295Y273839D01*
X932305Y273839D01*
X927696Y275748D01*
X924168Y279276D01*
X922303Y283779D01*
X922266Y283840D01*
X922236Y283906D01*
X922201Y283944D01*
X922174Y283988D01*
X922119Y284034D01*
X922070Y284087D01*
X922024Y284112D01*
X921984Y284145D01*
X921917Y284171D01*
X921854Y284205D01*
X921803Y284215D01*
X921755Y284233D01*
X921683Y284236D01*
X921612Y284249D01*
X921561Y284241D01*
X921509Y284244D01*
X921440Y284224D01*
X921369Y284213D01*
X921323Y284190D01*
X921273Y284175D01*
X921214Y284134D01*
X921150Y284102D01*
X921113Y284065D01*
X921071Y284035D01*
X921028Y283977D01*
X920978Y283926D01*
X920943Y283863D01*
X920924Y283837D01*
X920917Y283815D01*
X920897Y283779D01*
X919032Y279276D01*
X915504Y275748D01*
X910895Y273839D01*
X905905Y273839D01*
X901296Y275748D01*
X897768Y279276D01*
X895903Y283779D01*
X895866Y283840D01*
X895836Y283906D01*
X895801Y283944D01*
X895774Y283988D01*
X895719Y284034D01*
X895670Y284087D01*
X895624Y284112D01*
X895584Y284145D01*
X895517Y284171D01*
X895454Y284205D01*
X895403Y284215D01*
X895355Y284233D01*
X895283Y284236D01*
X895212Y284249D01*
X895161Y284241D01*
X895109Y284244D01*
X895040Y284224D01*
X894969Y284213D01*
X894923Y284190D01*
X894873Y284175D01*
X894814Y284134D01*
X894750Y284102D01*
X894713Y284065D01*
X894671Y284035D01*
X894628Y283977D01*
X894578Y283926D01*
X894543Y283863D01*
X894524Y283837D01*
X894517Y283815D01*
X894497Y283779D01*
X892632Y279276D01*
X889104Y275748D01*
X884495Y273839D01*
X879505Y273839D01*
X874896Y275748D01*
X871368Y279276D01*
X869503Y283779D01*
X869466Y283840D01*
X869436Y283906D01*
X869401Y283944D01*
X869374Y283988D01*
X869319Y284034D01*
X869270Y284087D01*
X869224Y284112D01*
X869184Y284145D01*
X869117Y284171D01*
X869054Y284205D01*
X869003Y284215D01*
X868955Y284233D01*
X868883Y284236D01*
X868812Y284249D01*
X868761Y284241D01*
X868709Y284244D01*
X868640Y284224D01*
X868569Y284213D01*
X868523Y284190D01*
X868473Y284175D01*
X868414Y284134D01*
X868350Y284102D01*
X868313Y284065D01*
X868271Y284035D01*
X868228Y283977D01*
X868178Y283926D01*
X868143Y283863D01*
X868124Y283837D01*
X868117Y283815D01*
X868097Y283779D01*
X866232Y279276D01*
X862704Y275748D01*
X858095Y273839D01*
X853105Y273839D01*
X848496Y275748D01*
X844968Y279276D01*
X843103Y283779D01*
X843066Y283840D01*
X843036Y283906D01*
X843001Y283944D01*
X842974Y283988D01*
X842919Y284034D01*
X842870Y284087D01*
X842824Y284112D01*
X842784Y284145D01*
X842717Y284171D01*
X842654Y284205D01*
X842603Y284215D01*
X842555Y284233D01*
X842483Y284236D01*
X842412Y284249D01*
X842361Y284241D01*
X842309Y284244D01*
X842240Y284224D01*
X842169Y284213D01*
X842123Y284190D01*
X842073Y284175D01*
X842014Y284134D01*
X841950Y284102D01*
X841913Y284065D01*
X841871Y284035D01*
X841828Y283977D01*
X841778Y283926D01*
X841743Y283863D01*
X841724Y283837D01*
X841717Y283815D01*
X841697Y283779D01*
X839832Y279276D01*
X836304Y275748D01*
X831695Y273839D01*
X826705Y273839D01*
X822096Y275748D01*
X818568Y279276D01*
X816703Y283779D01*
X816666Y283840D01*
X816636Y283906D01*
X816601Y283944D01*
X816574Y283988D01*
X816519Y284034D01*
X816470Y284087D01*
X816424Y284112D01*
X816384Y284145D01*
X816317Y284171D01*
X816254Y284205D01*
X816203Y284215D01*
X816155Y284233D01*
X816083Y284236D01*
X816012Y284249D01*
X815961Y284241D01*
X815909Y284244D01*
X815840Y284224D01*
X815769Y284213D01*
X815723Y284190D01*
X815673Y284175D01*
X815614Y284134D01*
X815550Y284102D01*
X815513Y284065D01*
X815471Y284035D01*
X815428Y283977D01*
X815378Y283926D01*
X815343Y283863D01*
X815324Y283837D01*
X815317Y283815D01*
X815297Y283779D01*
X813432Y279276D01*
X809904Y275748D01*
X805295Y273839D01*
X800305Y273839D01*
X795696Y275748D01*
X792168Y279276D01*
X790303Y283779D01*
X790265Y283840D01*
X790236Y283906D01*
X790201Y283944D01*
X790174Y283988D01*
X790118Y284034D01*
X790070Y284087D01*
X790024Y284112D01*
X789984Y284145D01*
X789917Y284171D01*
X789854Y284205D01*
X789803Y284215D01*
X789755Y284233D01*
X789683Y284236D01*
X789612Y284249D01*
X789561Y284241D01*
X789509Y284244D01*
X789440Y284224D01*
X789369Y284213D01*
X789323Y284190D01*
X789273Y284175D01*
X789214Y284134D01*
X789150Y284102D01*
X789113Y284065D01*
X789071Y284035D01*
X789028Y283977D01*
X788978Y283926D01*
X788943Y283863D01*
X788924Y283837D01*
X788917Y283815D01*
X788897Y283779D01*
X787032Y279276D01*
X783504Y275748D01*
X778895Y273839D01*
X773905Y273839D01*
X769296Y275748D01*
X765768Y279276D01*
X763903Y283779D01*
X763865Y283840D01*
X763836Y283906D01*
X763801Y283944D01*
X763774Y283988D01*
X763718Y284034D01*
X763670Y284087D01*
X763624Y284112D01*
X763584Y284145D01*
X763517Y284171D01*
X763454Y284205D01*
X763403Y284215D01*
X763355Y284233D01*
X763283Y284236D01*
X763212Y284249D01*
X763161Y284241D01*
X763109Y284244D01*
X763040Y284224D01*
X762969Y284213D01*
X762923Y284190D01*
X762873Y284175D01*
X762814Y284134D01*
X762750Y284102D01*
X762713Y284065D01*
X762671Y284035D01*
X762628Y283977D01*
X762578Y283926D01*
X762543Y283863D01*
X762524Y283838D01*
X762517Y283815D01*
X762497Y283779D01*
X760632Y279276D01*
X757104Y275748D01*
X752495Y273839D01*
X747505Y273839D01*
X742896Y275748D01*
X739368Y279276D01*
X737503Y283779D01*
X737465Y283840D01*
X737436Y283906D01*
X737401Y283944D01*
X737374Y283988D01*
X737318Y284034D01*
X737270Y284087D01*
X737224Y284112D01*
X737184Y284145D01*
X737117Y284171D01*
X737054Y284205D01*
X737003Y284215D01*
X736955Y284233D01*
X736883Y284236D01*
X736812Y284249D01*
X736761Y284241D01*
X736709Y284244D01*
X736640Y284224D01*
X736569Y284213D01*
X736523Y284190D01*
X736473Y284175D01*
X736414Y284134D01*
X736350Y284102D01*
X736313Y284065D01*
X736271Y284035D01*
X736228Y283977D01*
X736178Y283926D01*
X736143Y283863D01*
X736124Y283838D01*
X736117Y283815D01*
X736097Y283779D01*
X734232Y279276D01*
X730704Y275748D01*
X726095Y273839D01*
X721105Y273839D01*
X716496Y275748D01*
X712968Y279276D01*
X711103Y283779D01*
X711065Y283840D01*
X711036Y283906D01*
X711001Y283944D01*
X710974Y283988D01*
X710918Y284034D01*
X710870Y284087D01*
X710824Y284112D01*
X710784Y284145D01*
X710717Y284171D01*
X710654Y284205D01*
X710603Y284215D01*
X710555Y284233D01*
X710483Y284236D01*
X710412Y284249D01*
X710361Y284241D01*
X710309Y284244D01*
X710240Y284224D01*
X710169Y284213D01*
X710123Y284190D01*
X710073Y284175D01*
X710014Y284134D01*
X709950Y284102D01*
X709913Y284065D01*
X709871Y284035D01*
X709828Y283977D01*
X709778Y283926D01*
X709743Y283863D01*
X709724Y283838D01*
X709717Y283815D01*
X709697Y283779D01*
X707832Y279276D01*
X704304Y275748D01*
X699695Y273839D01*
X694705Y273839D01*
X690096Y275748D01*
X686568Y279276D01*
X684703Y283779D01*
X684665Y283840D01*
X684636Y283906D01*
X684601Y283944D01*
X684574Y283988D01*
X684518Y284034D01*
X684470Y284087D01*
X684424Y284112D01*
X684384Y284145D01*
X684317Y284171D01*
X684254Y284205D01*
X684203Y284215D01*
X684155Y284233D01*
X684083Y284236D01*
X684012Y284249D01*
X683961Y284241D01*
X683909Y284244D01*
X683840Y284224D01*
X683769Y284213D01*
X683723Y284190D01*
X683673Y284175D01*
X683614Y284134D01*
X683550Y284102D01*
X683513Y284065D01*
X683471Y284035D01*
X683428Y283977D01*
X683378Y283926D01*
X683343Y283863D01*
X683324Y283838D01*
X683317Y283815D01*
X683297Y283779D01*
X681432Y279276D01*
X677904Y275748D01*
X673295Y273839D01*
X668305Y273839D01*
X663696Y275748D01*
X660168Y279276D01*
X658303Y283779D01*
X658265Y283840D01*
X658236Y283906D01*
X658201Y283944D01*
X658174Y283988D01*
X658118Y284034D01*
X658070Y284087D01*
X658024Y284112D01*
X657984Y284145D01*
X657917Y284171D01*
X657854Y284205D01*
X657803Y284215D01*
X657755Y284233D01*
X657683Y284236D01*
X657612Y284249D01*
X657561Y284241D01*
X657509Y284244D01*
X657440Y284224D01*
X657369Y284213D01*
X657323Y284190D01*
X657273Y284175D01*
X657214Y284134D01*
X657150Y284102D01*
X657113Y284065D01*
X657071Y284035D01*
X657028Y283977D01*
X656978Y283926D01*
X656943Y283863D01*
X656924Y283838D01*
X656917Y283815D01*
X656897Y283779D01*
X655032Y279276D01*
X651504Y275748D01*
X646895Y273839D01*
X641905Y273839D01*
X637296Y275748D01*
X633768Y279276D01*
X631903Y283779D01*
X631865Y283840D01*
X631836Y283906D01*
X631801Y283944D01*
X631774Y283988D01*
X631718Y284034D01*
X631670Y284087D01*
X631624Y284112D01*
X631584Y284145D01*
X631517Y284171D01*
X631454Y284205D01*
X631403Y284215D01*
X631355Y284233D01*
X631283Y284236D01*
X631212Y284249D01*
X631161Y284241D01*
X631109Y284244D01*
X631040Y284224D01*
X630969Y284213D01*
X630923Y284190D01*
X630873Y284175D01*
X630814Y284134D01*
X630750Y284102D01*
X630713Y284065D01*
X630671Y284035D01*
X630628Y283977D01*
X630578Y283926D01*
X630543Y283863D01*
X630524Y283838D01*
X630517Y283815D01*
X630497Y283779D01*
X628632Y279276D01*
X625104Y275748D01*
X620495Y273839D01*
X615505Y273839D01*
X610896Y275748D01*
X607368Y279276D01*
X605503Y283779D01*
X605465Y283840D01*
X605436Y283906D01*
X605401Y283944D01*
X605374Y283988D01*
X605318Y284034D01*
X605270Y284087D01*
X605224Y284112D01*
X605184Y284145D01*
X605117Y284171D01*
X605054Y284205D01*
X605003Y284215D01*
X604955Y284233D01*
X604883Y284236D01*
X604812Y284249D01*
X604761Y284241D01*
X604709Y284244D01*
X604640Y284224D01*
X604569Y284213D01*
X604523Y284190D01*
X604473Y284175D01*
X604414Y284134D01*
X604350Y284102D01*
X604313Y284065D01*
X604271Y284035D01*
X604228Y283977D01*
X604178Y283926D01*
X604143Y283863D01*
X604124Y283838D01*
X604117Y283815D01*
X604097Y283779D01*
X602232Y279276D01*
X598704Y275748D01*
X594095Y273839D01*
X589105Y273839D01*
X584496Y275748D01*
X580968Y279276D01*
X579103Y283779D01*
X579065Y283840D01*
X579036Y283906D01*
X579001Y283944D01*
X578974Y283988D01*
X578918Y284034D01*
X578870Y284087D01*
X578824Y284112D01*
X578784Y284145D01*
X578717Y284171D01*
X578654Y284205D01*
X578603Y284215D01*
X578555Y284233D01*
X578483Y284236D01*
X578412Y284249D01*
X578361Y284241D01*
X578309Y284244D01*
X578240Y284224D01*
X578169Y284213D01*
X578123Y284190D01*
X578073Y284175D01*
X578014Y284134D01*
X577950Y284102D01*
X577913Y284065D01*
X577871Y284035D01*
X577828Y283977D01*
X577778Y283926D01*
X577743Y283863D01*
X577724Y283838D01*
X577717Y283815D01*
X577697Y283779D01*
X575832Y279276D01*
X572304Y275748D01*
X567695Y273839D01*
X562705Y273839D01*
X558096Y275748D01*
X554568Y279276D01*
X552703Y283779D01*
X552665Y283840D01*
X552636Y283906D01*
X552601Y283944D01*
X552574Y283988D01*
X552518Y284034D01*
X552470Y284087D01*
X552424Y284112D01*
X552384Y284145D01*
X552317Y284171D01*
X552254Y284205D01*
X552203Y284215D01*
X552155Y284233D01*
X552083Y284236D01*
X552012Y284249D01*
X551961Y284241D01*
X551909Y284244D01*
X551840Y284224D01*
X551769Y284213D01*
X551723Y284190D01*
X551673Y284175D01*
X551614Y284134D01*
X551550Y284102D01*
X551513Y284065D01*
X551471Y284035D01*
X551428Y283977D01*
X551378Y283926D01*
X551343Y283863D01*
X551324Y283838D01*
X551317Y283815D01*
X551297Y283779D01*
X549432Y279276D01*
X545904Y275748D01*
X541295Y273839D01*
X536305Y273839D01*
X531696Y275748D01*
X528168Y279276D01*
X526303Y283779D01*
X526265Y283840D01*
X526236Y283906D01*
X526201Y283944D01*
X526174Y283988D01*
X526118Y284034D01*
X526070Y284087D01*
X526024Y284112D01*
X525984Y284145D01*
X525917Y284171D01*
X525854Y284205D01*
X525803Y284215D01*
X525755Y284233D01*
X525683Y284236D01*
X525612Y284249D01*
X525561Y284241D01*
X525509Y284244D01*
X525440Y284224D01*
X525369Y284213D01*
X525323Y284190D01*
X525273Y284175D01*
X525214Y284134D01*
X525150Y284102D01*
X525113Y284065D01*
X525071Y284035D01*
X525028Y283977D01*
X524978Y283926D01*
X524943Y283863D01*
X524924Y283838D01*
X524917Y283815D01*
X524897Y283779D01*
X523032Y279276D01*
X519504Y275748D01*
X514895Y273839D01*
X509905Y273839D01*
G37*
%LPD*%
%LPC*%
G36*
X1022823Y160726D02*
X1022823Y160726D01*
X1022811Y160799D01*
X1022809Y160873D01*
X1022791Y160920D01*
X1022783Y160968D01*
X1022749Y161034D01*
X1022723Y161104D01*
X1022692Y161142D01*
X1022668Y161186D01*
X1022615Y161237D01*
X1022568Y161295D01*
X1022526Y161321D01*
X1022490Y161355D01*
X1022423Y161386D01*
X1022360Y161426D01*
X1022312Y161438D01*
X1022267Y161459D01*
X1022193Y161467D01*
X1022121Y161485D01*
X1022072Y161480D01*
X1022022Y161486D01*
X1021950Y161470D01*
X1021876Y161464D01*
X1021831Y161444D01*
X1021782Y161434D01*
X1021718Y161396D01*
X1021650Y161366D01*
X1021598Y161324D01*
X1021571Y161307D01*
X1021555Y161289D01*
X1021520Y161260D01*
X1019996Y159716D01*
X1019945Y159644D01*
X1019887Y159576D01*
X1019874Y159544D01*
X1019854Y159515D01*
X1019828Y159430D01*
X1019795Y159348D01*
X1019790Y159304D01*
X1019783Y159280D01*
X1019784Y159248D01*
X1019777Y159181D01*
X1019777Y157325D01*
X1018519Y157576D01*
X1017415Y158033D01*
X1017324Y158054D01*
X1017235Y158083D01*
X1017205Y158082D01*
X1017176Y158089D01*
X1017082Y158080D01*
X1016989Y158079D01*
X1016952Y158068D01*
X1016931Y158066D01*
X1016901Y158053D01*
X1016828Y158031D01*
X1015445Y157447D01*
X1011145Y157419D01*
X1007161Y159038D01*
X1004099Y162059D01*
X1002427Y166021D01*
X1002175Y203778D01*
X1003794Y207763D01*
X1006815Y210824D01*
X1010778Y212496D01*
X1015078Y212525D01*
X1019063Y210906D01*
X1022124Y207885D01*
X1023586Y204420D01*
X1023634Y204344D01*
X1023674Y204265D01*
X1023699Y204241D01*
X1023717Y204211D01*
X1023786Y204155D01*
X1023849Y204093D01*
X1023889Y204071D01*
X1023908Y204056D01*
X1023937Y204045D01*
X1023996Y204012D01*
X1028095Y202314D01*
X1029380Y201029D01*
X1029395Y201019D01*
X1029406Y201004D01*
X1029478Y200958D01*
X1029510Y200931D01*
X1029527Y200924D01*
X1029580Y200886D01*
X1029597Y200880D01*
X1029613Y200870D01*
X1029715Y200844D01*
X1029815Y200813D01*
X1029833Y200814D01*
X1029851Y200809D01*
X1030019Y200813D01*
X1036106Y201621D01*
X1036123Y201626D01*
X1036141Y201626D01*
X1036302Y201674D01*
X1036849Y201905D01*
X1038273Y201914D01*
X1038304Y201920D01*
X1038368Y201921D01*
X1039781Y202108D01*
X1040354Y201955D01*
X1040372Y201954D01*
X1040389Y201947D01*
X1040556Y201930D01*
X1041149Y201934D01*
X1042469Y201397D01*
X1042499Y201390D01*
X1042560Y201367D01*
X1043936Y201000D01*
X1044407Y200639D01*
X1044423Y200630D01*
X1044436Y200618D01*
X1044584Y200538D01*
X1045134Y200314D01*
X1046148Y199314D01*
X1046173Y199296D01*
X1046220Y199251D01*
X1046629Y198938D01*
X1046668Y198917D01*
X1046701Y198889D01*
X1046776Y198859D01*
X1046846Y198822D01*
X1046889Y198814D01*
X1046930Y198798D01*
X1047075Y198783D01*
X1047089Y198781D01*
X1047092Y198781D01*
X1047097Y198781D01*
X1128945Y199326D01*
X1128988Y199334D01*
X1129032Y199332D01*
X1129109Y199354D01*
X1129187Y199368D01*
X1129226Y199389D01*
X1129268Y199401D01*
X1129392Y199478D01*
X1129404Y199484D01*
X1129406Y199487D01*
X1129411Y199489D01*
X1129816Y199809D01*
X1129837Y199831D01*
X1129887Y199872D01*
X1130888Y200886D01*
X1131435Y201117D01*
X1131450Y201126D01*
X1131467Y201131D01*
X1131609Y201220D01*
X1132076Y201587D01*
X1133447Y201973D01*
X1133476Y201986D01*
X1133537Y202004D01*
X1134850Y202558D01*
X1135444Y202562D01*
X1135461Y202565D01*
X1135479Y202563D01*
X1135645Y202591D01*
X1136216Y202751D01*
X1137631Y202583D01*
X1137662Y202584D01*
X1137726Y202577D01*
X1139151Y202587D01*
X1139701Y202363D01*
X1139718Y202359D01*
X1139734Y202351D01*
X1139897Y202313D01*
X1151344Y200949D01*
X1151412Y200952D01*
X1151479Y200945D01*
X1151534Y200957D01*
X1151590Y200959D01*
X1151653Y200984D01*
X1151719Y200998D01*
X1151767Y201028D01*
X1151820Y201048D01*
X1151871Y201091D01*
X1151929Y201126D01*
X1151965Y201169D01*
X1152009Y201205D01*
X1152044Y201262D01*
X1152088Y201314D01*
X1152108Y201366D01*
X1152138Y201414D01*
X1152153Y201480D01*
X1152178Y201543D01*
X1152186Y201622D01*
X1152194Y201654D01*
X1152192Y201674D01*
X1152196Y201710D01*
X1152175Y204778D01*
X1153794Y208763D01*
X1156815Y211824D01*
X1160778Y213496D01*
X1165078Y213525D01*
X1169063Y211906D01*
X1172124Y208885D01*
X1173796Y204922D01*
X1174048Y167165D01*
X1172429Y163181D01*
X1169408Y160120D01*
X1165445Y158447D01*
X1161145Y158419D01*
X1157161Y160038D01*
X1154099Y163059D01*
X1152427Y167021D01*
X1152369Y175633D01*
X1152358Y175699D01*
X1152357Y175767D01*
X1152338Y175820D01*
X1152328Y175875D01*
X1152296Y175934D01*
X1152273Y175998D01*
X1152238Y176042D01*
X1152212Y176092D01*
X1152162Y176138D01*
X1152120Y176191D01*
X1152073Y176221D01*
X1152032Y176260D01*
X1151971Y176288D01*
X1151914Y176325D01*
X1151860Y176339D01*
X1151808Y176362D01*
X1151741Y176369D01*
X1151676Y176386D01*
X1151596Y176384D01*
X1151564Y176387D01*
X1151543Y176383D01*
X1151508Y176382D01*
X1140080Y174865D01*
X1140063Y174860D01*
X1140045Y174860D01*
X1139884Y174812D01*
X1139337Y174581D01*
X1137913Y174572D01*
X1137882Y174567D01*
X1137818Y174565D01*
X1136405Y174378D01*
X1135832Y174531D01*
X1135814Y174533D01*
X1135797Y174539D01*
X1135630Y174557D01*
X1135037Y174553D01*
X1133717Y175089D01*
X1133687Y175096D01*
X1133627Y175119D01*
X1132250Y175487D01*
X1131779Y175848D01*
X1131763Y175856D01*
X1131750Y175869D01*
X1131602Y175948D01*
X1131052Y176172D01*
X1130038Y177173D01*
X1130013Y177190D01*
X1129966Y177235D01*
X1129557Y177549D01*
X1129518Y177569D01*
X1129485Y177598D01*
X1129410Y177627D01*
X1129340Y177665D01*
X1129297Y177672D01*
X1129256Y177688D01*
X1129111Y177703D01*
X1129097Y177705D01*
X1129094Y177705D01*
X1129089Y177705D01*
X1047241Y177160D01*
X1047198Y177152D01*
X1047154Y177154D01*
X1047077Y177132D01*
X1046999Y177118D01*
X1046960Y177098D01*
X1046918Y177085D01*
X1046795Y177009D01*
X1046782Y177002D01*
X1046780Y176999D01*
X1046775Y176997D01*
X1046370Y176678D01*
X1046349Y176655D01*
X1046299Y176614D01*
X1045298Y175600D01*
X1044751Y175369D01*
X1044736Y175360D01*
X1044719Y175355D01*
X1044577Y175266D01*
X1044110Y174899D01*
X1042739Y174513D01*
X1042711Y174500D01*
X1042649Y174482D01*
X1041336Y173928D01*
X1040742Y173924D01*
X1040725Y173921D01*
X1040707Y173923D01*
X1040541Y173896D01*
X1039970Y173735D01*
X1038555Y173903D01*
X1038524Y173902D01*
X1038460Y173909D01*
X1037035Y173899D01*
X1036485Y174123D01*
X1036468Y174127D01*
X1036452Y174135D01*
X1036393Y174149D01*
X1036371Y174158D01*
X1036341Y174161D01*
X1036289Y174174D01*
X1028331Y175122D01*
X1028215Y175117D01*
X1028099Y175114D01*
X1028092Y175111D01*
X1028086Y175111D01*
X1027978Y175070D01*
X1027868Y175029D01*
X1027862Y175025D01*
X1027856Y175023D01*
X1027767Y174949D01*
X1027676Y174876D01*
X1027672Y174870D01*
X1027667Y174865D01*
X1027606Y174767D01*
X1027543Y174669D01*
X1027541Y174662D01*
X1027538Y174656D01*
X1027511Y174543D01*
X1027483Y174430D01*
X1027483Y174423D01*
X1027482Y174417D01*
X1027493Y174300D01*
X1027502Y174185D01*
X1027504Y174179D01*
X1027505Y174172D01*
X1027553Y174065D01*
X1027598Y173959D01*
X1027603Y173952D01*
X1027605Y173947D01*
X1027619Y173933D01*
X1027703Y173828D01*
X1028707Y172824D01*
X1029750Y171262D01*
X1030469Y169526D01*
X1030720Y168268D01*
X1024800Y168268D01*
X1024778Y168265D01*
X1024756Y168267D01*
X1024657Y168245D01*
X1024557Y168228D01*
X1024538Y168218D01*
X1024516Y168213D01*
X1024429Y168161D01*
X1024340Y168113D01*
X1024325Y168097D01*
X1024305Y168085D01*
X1024240Y168008D01*
X1024171Y167935D01*
X1024161Y167915D01*
X1024147Y167897D01*
X1024110Y167803D01*
X1024067Y167712D01*
X1024065Y167690D01*
X1024056Y167669D01*
X1024039Y167502D01*
X1024048Y166086D01*
X1024036Y166030D01*
X1024040Y165987D01*
X1024035Y165944D01*
X1024052Y165865D01*
X1024060Y165786D01*
X1024078Y165746D01*
X1024088Y165703D01*
X1024129Y165634D01*
X1024162Y165562D01*
X1024191Y165530D01*
X1024214Y165492D01*
X1024275Y165440D01*
X1024329Y165381D01*
X1024367Y165361D01*
X1024401Y165332D01*
X1024475Y165302D01*
X1024545Y165264D01*
X1024588Y165257D01*
X1024629Y165240D01*
X1024774Y165224D01*
X1024788Y165222D01*
X1024791Y165222D01*
X1024795Y165222D01*
X1030720Y165222D01*
X1030469Y163964D01*
X1029750Y162228D01*
X1028707Y160666D01*
X1027379Y159338D01*
X1025817Y158295D01*
X1024081Y157576D01*
X1022823Y157325D01*
X1022823Y160726D01*
G37*
%LPD*%
%LPC*%
G36*
X148755Y439359D02*
X148755Y439359D01*
X144146Y441268D01*
X140618Y444796D01*
X138709Y449405D01*
X138709Y454395D01*
X140618Y459004D01*
X144146Y462532D01*
X147442Y463897D01*
X147503Y463935D01*
X147569Y463964D01*
X147607Y463999D01*
X147651Y464026D01*
X147697Y464082D01*
X147750Y464130D01*
X147775Y464176D01*
X147808Y464216D01*
X147834Y464283D01*
X147868Y464346D01*
X147877Y464397D01*
X147896Y464445D01*
X147899Y464517D01*
X147912Y464588D01*
X147904Y464639D01*
X147907Y464691D01*
X147887Y464760D01*
X147876Y464831D01*
X147853Y464877D01*
X147838Y464927D01*
X147797Y464986D01*
X147765Y465050D01*
X147727Y465087D01*
X147698Y465129D01*
X147640Y465172D01*
X147589Y465222D01*
X147526Y465257D01*
X147500Y465276D01*
X147478Y465283D01*
X147442Y465303D01*
X144146Y466668D01*
X140618Y470196D01*
X139253Y473492D01*
X139215Y473553D01*
X139186Y473619D01*
X139151Y473657D01*
X139124Y473701D01*
X139068Y473747D01*
X139020Y473800D01*
X138974Y473825D01*
X138934Y473858D01*
X138867Y473884D01*
X138804Y473918D01*
X138753Y473927D01*
X138705Y473946D01*
X138633Y473949D01*
X138562Y473962D01*
X138511Y473954D01*
X138459Y473957D01*
X138390Y473937D01*
X138319Y473926D01*
X138273Y473903D01*
X138223Y473888D01*
X138164Y473847D01*
X138100Y473815D01*
X138063Y473777D01*
X138021Y473748D01*
X137978Y473690D01*
X137928Y473639D01*
X137893Y473576D01*
X137874Y473550D01*
X137867Y473528D01*
X137847Y473492D01*
X136482Y470196D01*
X132954Y466668D01*
X128345Y464759D01*
X123355Y464759D01*
X118746Y466668D01*
X115218Y470196D01*
X113309Y474805D01*
X113309Y479795D01*
X115218Y484404D01*
X118746Y487932D01*
X122042Y489297D01*
X122103Y489335D01*
X122169Y489364D01*
X122207Y489399D01*
X122251Y489426D01*
X122297Y489482D01*
X122350Y489530D01*
X122375Y489576D01*
X122408Y489616D01*
X122434Y489683D01*
X122468Y489746D01*
X122477Y489797D01*
X122496Y489845D01*
X122499Y489917D01*
X122512Y489988D01*
X122504Y490039D01*
X122507Y490091D01*
X122487Y490160D01*
X122476Y490231D01*
X122453Y490277D01*
X122438Y490327D01*
X122397Y490386D01*
X122365Y490450D01*
X122327Y490487D01*
X122298Y490529D01*
X122240Y490572D01*
X122189Y490622D01*
X122126Y490657D01*
X122100Y490676D01*
X122078Y490683D01*
X122042Y490703D01*
X118746Y492068D01*
X115218Y495596D01*
X113309Y500205D01*
X113309Y505195D01*
X115218Y509804D01*
X118746Y513332D01*
X122042Y514697D01*
X122103Y514734D01*
X122168Y514764D01*
X122207Y514799D01*
X122251Y514826D01*
X122297Y514881D01*
X122350Y514930D01*
X122375Y514976D01*
X122408Y515016D01*
X122434Y515083D01*
X122468Y515146D01*
X122477Y515197D01*
X122496Y515245D01*
X122499Y515317D01*
X122512Y515388D01*
X122504Y515439D01*
X122507Y515491D01*
X122487Y515560D01*
X122476Y515631D01*
X122452Y515677D01*
X122438Y515727D01*
X122397Y515786D01*
X122365Y515850D01*
X122327Y515887D01*
X122298Y515929D01*
X122240Y515972D01*
X122189Y516022D01*
X122126Y516057D01*
X122100Y516076D01*
X122078Y516083D01*
X122042Y516103D01*
X118746Y517468D01*
X115218Y520996D01*
X113309Y525605D01*
X113309Y530595D01*
X115218Y535204D01*
X118746Y538732D01*
X123355Y540641D01*
X128345Y540641D01*
X132954Y538732D01*
X136482Y535204D01*
X137847Y531908D01*
X137885Y531847D01*
X137914Y531781D01*
X137949Y531743D01*
X137976Y531699D01*
X138032Y531653D01*
X138080Y531600D01*
X138126Y531575D01*
X138166Y531542D01*
X138233Y531516D01*
X138296Y531482D01*
X138347Y531473D01*
X138395Y531454D01*
X138467Y531451D01*
X138538Y531438D01*
X138589Y531446D01*
X138641Y531443D01*
X138710Y531463D01*
X138781Y531474D01*
X138827Y531497D01*
X138877Y531512D01*
X138936Y531553D01*
X139000Y531585D01*
X139037Y531623D01*
X139079Y531652D01*
X139122Y531710D01*
X139172Y531761D01*
X139207Y531824D01*
X139226Y531850D01*
X139233Y531872D01*
X139253Y531908D01*
X140618Y535204D01*
X144146Y538732D01*
X148755Y540641D01*
X153745Y540641D01*
X158354Y538732D01*
X161882Y535204D01*
X163791Y530595D01*
X163791Y525605D01*
X161882Y520996D01*
X158354Y517468D01*
X155058Y516103D01*
X154997Y516065D01*
X154931Y516036D01*
X154893Y516001D01*
X154849Y515974D01*
X154803Y515918D01*
X154750Y515870D01*
X154725Y515824D01*
X154692Y515784D01*
X154666Y515717D01*
X154632Y515654D01*
X154623Y515603D01*
X154604Y515555D01*
X154601Y515483D01*
X154588Y515412D01*
X154596Y515361D01*
X154593Y515309D01*
X154613Y515240D01*
X154624Y515169D01*
X154647Y515123D01*
X154662Y515073D01*
X154703Y515014D01*
X154735Y514950D01*
X154773Y514913D01*
X154802Y514871D01*
X154860Y514828D01*
X154911Y514778D01*
X154974Y514743D01*
X155000Y514724D01*
X155022Y514717D01*
X155058Y514697D01*
X158354Y513332D01*
X161882Y509804D01*
X163791Y505195D01*
X163791Y500205D01*
X161882Y495596D01*
X158354Y492068D01*
X155058Y490703D01*
X154997Y490665D01*
X154931Y490636D01*
X154893Y490601D01*
X154849Y490574D01*
X154803Y490518D01*
X154750Y490470D01*
X154725Y490424D01*
X154692Y490384D01*
X154666Y490317D01*
X154632Y490254D01*
X154623Y490203D01*
X154604Y490155D01*
X154601Y490083D01*
X154588Y490012D01*
X154596Y489961D01*
X154593Y489909D01*
X154613Y489840D01*
X154624Y489769D01*
X154647Y489723D01*
X154662Y489673D01*
X154703Y489614D01*
X154735Y489550D01*
X154773Y489513D01*
X154802Y489471D01*
X154860Y489428D01*
X154911Y489378D01*
X154974Y489343D01*
X155000Y489324D01*
X155022Y489317D01*
X155058Y489297D01*
X158354Y487932D01*
X161882Y484404D01*
X163791Y479795D01*
X163791Y474805D01*
X161882Y470196D01*
X158354Y466668D01*
X155058Y465303D01*
X154997Y465265D01*
X154931Y465236D01*
X154893Y465201D01*
X154849Y465174D01*
X154803Y465118D01*
X154750Y465070D01*
X154725Y465024D01*
X154692Y464984D01*
X154666Y464917D01*
X154632Y464854D01*
X154623Y464803D01*
X154604Y464755D01*
X154601Y464683D01*
X154588Y464612D01*
X154596Y464561D01*
X154593Y464509D01*
X154613Y464440D01*
X154624Y464369D01*
X154647Y464323D01*
X154662Y464273D01*
X154703Y464214D01*
X154735Y464150D01*
X154773Y464113D01*
X154802Y464071D01*
X154860Y464028D01*
X154911Y463978D01*
X154974Y463943D01*
X155000Y463924D01*
X155022Y463917D01*
X155058Y463897D01*
X158354Y462532D01*
X161882Y459004D01*
X163791Y454395D01*
X163791Y449405D01*
X161882Y444796D01*
X158354Y441268D01*
X153745Y439359D01*
X148755Y439359D01*
G37*
%LPD*%
%LPC*%
G36*
X405586Y90759D02*
X405586Y90759D01*
X400164Y93005D01*
X396015Y97154D01*
X393769Y102576D01*
X393769Y108444D01*
X396015Y113866D01*
X400221Y118072D01*
X400233Y118088D01*
X400248Y118100D01*
X400277Y118145D01*
X400308Y118177D01*
X400327Y118219D01*
X400365Y118271D01*
X400370Y118290D01*
X400381Y118307D01*
X400397Y118370D01*
X400411Y118400D01*
X400415Y118435D01*
X400437Y118507D01*
X400436Y118526D01*
X400441Y118546D01*
X400436Y118620D01*
X400438Y118645D01*
X400433Y118670D01*
X400431Y118752D01*
X400424Y118771D01*
X400422Y118791D01*
X400390Y118867D01*
X400386Y118885D01*
X400376Y118902D01*
X400346Y118983D01*
X400334Y118999D01*
X400326Y119017D01*
X400221Y119148D01*
X396015Y123354D01*
X393769Y128776D01*
X393769Y134644D01*
X396015Y140066D01*
X400221Y144272D01*
X400233Y144288D01*
X400248Y144300D01*
X400304Y144388D01*
X400365Y144471D01*
X400370Y144490D01*
X400381Y144507D01*
X400407Y144608D01*
X400437Y144707D01*
X400436Y144726D01*
X400441Y144746D01*
X400433Y144849D01*
X400431Y144952D01*
X400424Y144971D01*
X400422Y144991D01*
X400382Y145086D01*
X400346Y145183D01*
X400334Y145199D01*
X400326Y145217D01*
X400221Y145348D01*
X396015Y149554D01*
X393769Y154976D01*
X393769Y160844D01*
X396015Y166266D01*
X400221Y170472D01*
X400233Y170488D01*
X400248Y170500D01*
X400304Y170588D01*
X400365Y170671D01*
X400370Y170690D01*
X400381Y170707D01*
X400407Y170808D01*
X400437Y170907D01*
X400436Y170926D01*
X400441Y170946D01*
X400433Y171049D01*
X400431Y171152D01*
X400424Y171171D01*
X400422Y171191D01*
X400382Y171286D01*
X400346Y171383D01*
X400334Y171399D01*
X400326Y171417D01*
X400221Y171548D01*
X396015Y175754D01*
X393769Y181176D01*
X393769Y187044D01*
X396015Y192466D01*
X400221Y196672D01*
X400233Y196688D01*
X400248Y196700D01*
X400304Y196788D01*
X400365Y196871D01*
X400370Y196890D01*
X400381Y196907D01*
X400407Y197008D01*
X400437Y197107D01*
X400436Y197126D01*
X400441Y197146D01*
X400433Y197249D01*
X400431Y197352D01*
X400424Y197371D01*
X400422Y197391D01*
X400382Y197486D01*
X400346Y197583D01*
X400334Y197599D01*
X400326Y197617D01*
X400221Y197748D01*
X396015Y201954D01*
X393769Y207376D01*
X393769Y213244D01*
X396015Y218666D01*
X400164Y222815D01*
X403140Y224048D01*
X403176Y224070D01*
X403215Y224084D01*
X403280Y224134D01*
X403349Y224177D01*
X403376Y224210D01*
X403409Y224236D01*
X403454Y224304D01*
X403506Y224367D01*
X403521Y224406D01*
X403544Y224441D01*
X403565Y224520D01*
X403594Y224596D01*
X403596Y224638D01*
X403607Y224679D01*
X403601Y224761D01*
X403605Y224842D01*
X403593Y224883D01*
X403590Y224924D01*
X403559Y225000D01*
X403536Y225078D01*
X403512Y225113D01*
X403496Y225152D01*
X403443Y225213D01*
X403396Y225280D01*
X403362Y225306D01*
X403335Y225337D01*
X403205Y225422D01*
X403199Y225427D01*
X403197Y225428D01*
X403195Y225429D01*
X402078Y225998D01*
X400513Y227135D01*
X399145Y228503D01*
X398008Y230068D01*
X397130Y231792D01*
X396532Y233632D01*
X396317Y234987D01*
X407758Y234987D01*
X407778Y234990D01*
X407797Y234988D01*
X407899Y235010D01*
X408001Y235027D01*
X408018Y235036D01*
X408038Y235040D01*
X408127Y235093D01*
X408218Y235142D01*
X408232Y235156D01*
X408249Y235166D01*
X408316Y235245D01*
X408387Y235320D01*
X408396Y235338D01*
X408409Y235353D01*
X408447Y235449D01*
X408491Y235543D01*
X408493Y235563D01*
X408501Y235581D01*
X408519Y235748D01*
X408519Y236511D01*
X408521Y236511D01*
X408521Y235748D01*
X408524Y235728D01*
X408522Y235709D01*
X408544Y235607D01*
X408561Y235505D01*
X408570Y235488D01*
X408574Y235468D01*
X408627Y235379D01*
X408676Y235288D01*
X408690Y235274D01*
X408700Y235257D01*
X408779Y235190D01*
X408854Y235119D01*
X408872Y235110D01*
X408887Y235097D01*
X408983Y235058D01*
X409077Y235015D01*
X409097Y235013D01*
X409115Y235005D01*
X409282Y234987D01*
X420723Y234987D01*
X420508Y233632D01*
X419910Y231792D01*
X419032Y230068D01*
X417895Y228503D01*
X416527Y227135D01*
X414962Y225998D01*
X413845Y225429D01*
X413812Y225404D01*
X413773Y225387D01*
X413713Y225332D01*
X413647Y225284D01*
X413623Y225249D01*
X413592Y225221D01*
X413553Y225149D01*
X413506Y225082D01*
X413494Y225042D01*
X413474Y225005D01*
X413459Y224925D01*
X413436Y224847D01*
X413437Y224805D01*
X413430Y224763D01*
X413442Y224682D01*
X413445Y224601D01*
X413460Y224562D01*
X413466Y224520D01*
X413503Y224447D01*
X413532Y224371D01*
X413558Y224338D01*
X413577Y224301D01*
X413636Y224244D01*
X413687Y224180D01*
X413723Y224158D01*
X413753Y224129D01*
X413888Y224054D01*
X413896Y224049D01*
X413897Y224049D01*
X413900Y224048D01*
X416876Y222815D01*
X421025Y218666D01*
X423271Y213244D01*
X423271Y207376D01*
X421025Y201954D01*
X416819Y197748D01*
X416807Y197732D01*
X416792Y197720D01*
X416736Y197632D01*
X416675Y197549D01*
X416670Y197530D01*
X416659Y197513D01*
X416633Y197412D01*
X416603Y197313D01*
X416604Y197294D01*
X416599Y197274D01*
X416607Y197171D01*
X416609Y197068D01*
X416616Y197049D01*
X416618Y197029D01*
X416658Y196934D01*
X416694Y196837D01*
X416706Y196821D01*
X416714Y196803D01*
X416819Y196672D01*
X421025Y192466D01*
X423271Y187044D01*
X423271Y181176D01*
X421025Y175754D01*
X416819Y171548D01*
X416807Y171532D01*
X416792Y171520D01*
X416736Y171432D01*
X416675Y171349D01*
X416670Y171330D01*
X416659Y171313D01*
X416633Y171212D01*
X416603Y171113D01*
X416604Y171094D01*
X416599Y171074D01*
X416607Y170971D01*
X416609Y170868D01*
X416616Y170849D01*
X416618Y170829D01*
X416658Y170734D01*
X416694Y170637D01*
X416706Y170621D01*
X416714Y170603D01*
X416819Y170472D01*
X421025Y166266D01*
X423271Y160844D01*
X423271Y154976D01*
X421025Y149554D01*
X416819Y145348D01*
X416807Y145332D01*
X416792Y145320D01*
X416736Y145232D01*
X416675Y145149D01*
X416670Y145130D01*
X416659Y145113D01*
X416633Y145012D01*
X416603Y144913D01*
X416604Y144894D01*
X416599Y144874D01*
X416607Y144771D01*
X416609Y144668D01*
X416616Y144649D01*
X416618Y144629D01*
X416658Y144534D01*
X416694Y144437D01*
X416706Y144421D01*
X416714Y144403D01*
X416819Y144272D01*
X421025Y140066D01*
X423271Y134644D01*
X423271Y128776D01*
X421025Y123354D01*
X416819Y119148D01*
X416807Y119132D01*
X416792Y119120D01*
X416744Y119046D01*
X416732Y119033D01*
X416725Y119018D01*
X416675Y118949D01*
X416670Y118930D01*
X416659Y118913D01*
X416638Y118830D01*
X416629Y118810D01*
X416627Y118790D01*
X416603Y118713D01*
X416604Y118694D01*
X416599Y118674D01*
X416605Y118594D01*
X416602Y118566D01*
X416608Y118539D01*
X416609Y118468D01*
X416616Y118449D01*
X416618Y118429D01*
X416646Y118363D01*
X416654Y118325D01*
X416673Y118294D01*
X416694Y118237D01*
X416706Y118221D01*
X416714Y118203D01*
X416766Y118137D01*
X416780Y118114D01*
X416795Y118102D01*
X416819Y118072D01*
X421025Y113866D01*
X423271Y108444D01*
X423271Y102576D01*
X421025Y97154D01*
X416876Y93005D01*
X411454Y90759D01*
X405586Y90759D01*
G37*
%LPD*%
%LPC*%
G36*
X146984Y294679D02*
X146984Y294679D01*
X141412Y296987D01*
X137147Y301252D01*
X134839Y306824D01*
X134839Y403016D01*
X137147Y408588D01*
X141412Y412853D01*
X146984Y415161D01*
X153016Y415161D01*
X158588Y412853D01*
X162853Y408588D01*
X165161Y403016D01*
X165161Y306824D01*
X162853Y301252D01*
X158588Y296987D01*
X153016Y294679D01*
X146984Y294679D01*
G37*
%LPD*%
%LPC*%
G36*
X86984Y294679D02*
X86984Y294679D01*
X81412Y296987D01*
X77147Y301252D01*
X74839Y306824D01*
X74839Y403016D01*
X77147Y408588D01*
X81412Y412853D01*
X86984Y415161D01*
X93016Y415161D01*
X98588Y412853D01*
X102853Y408588D01*
X105161Y403016D01*
X105161Y306824D01*
X102853Y301252D01*
X98588Y296987D01*
X93016Y294679D01*
X86984Y294679D01*
G37*
%LPD*%
%LPC*%
G36*
X1018914Y53149D02*
X1018914Y53149D01*
X1014505Y54976D01*
X1011131Y58350D01*
X1009304Y62759D01*
X1009304Y67531D01*
X1011131Y71940D01*
X1014505Y75314D01*
X1018916Y77142D01*
X1018977Y77180D01*
X1019043Y77209D01*
X1019081Y77244D01*
X1019125Y77271D01*
X1019171Y77327D01*
X1019224Y77375D01*
X1019249Y77421D01*
X1019282Y77461D01*
X1019308Y77528D01*
X1019342Y77591D01*
X1019352Y77642D01*
X1019370Y77690D01*
X1019373Y77762D01*
X1019386Y77833D01*
X1019379Y77884D01*
X1019381Y77936D01*
X1019361Y78005D01*
X1019350Y78076D01*
X1019327Y78122D01*
X1019312Y78172D01*
X1019271Y78231D01*
X1019239Y78295D01*
X1019202Y78332D01*
X1019172Y78374D01*
X1019114Y78417D01*
X1019063Y78467D01*
X1019000Y78502D01*
X1018975Y78521D01*
X1018952Y78528D01*
X1018916Y78548D01*
X1014505Y80376D01*
X1011131Y83750D01*
X1009304Y88159D01*
X1009304Y92931D01*
X1011131Y97340D01*
X1014505Y100714D01*
X1018916Y102542D01*
X1018977Y102580D01*
X1019043Y102609D01*
X1019081Y102644D01*
X1019125Y102671D01*
X1019171Y102727D01*
X1019224Y102775D01*
X1019249Y102821D01*
X1019282Y102861D01*
X1019308Y102928D01*
X1019342Y102991D01*
X1019352Y103042D01*
X1019370Y103090D01*
X1019373Y103162D01*
X1019386Y103233D01*
X1019379Y103284D01*
X1019381Y103336D01*
X1019361Y103405D01*
X1019350Y103476D01*
X1019327Y103522D01*
X1019312Y103572D01*
X1019271Y103631D01*
X1019239Y103695D01*
X1019202Y103732D01*
X1019172Y103774D01*
X1019114Y103817D01*
X1019063Y103867D01*
X1019000Y103902D01*
X1018975Y103921D01*
X1018952Y103928D01*
X1018916Y103948D01*
X1014505Y105776D01*
X1011131Y109150D01*
X1009304Y113559D01*
X1009304Y118331D01*
X1011131Y122740D01*
X1014505Y126114D01*
X1018916Y127942D01*
X1018977Y127980D01*
X1019043Y128009D01*
X1019081Y128044D01*
X1019125Y128071D01*
X1019171Y128127D01*
X1019224Y128175D01*
X1019249Y128221D01*
X1019282Y128261D01*
X1019308Y128328D01*
X1019342Y128391D01*
X1019352Y128442D01*
X1019370Y128490D01*
X1019373Y128562D01*
X1019386Y128633D01*
X1019379Y128684D01*
X1019381Y128736D01*
X1019361Y128805D01*
X1019350Y128876D01*
X1019327Y128922D01*
X1019312Y128972D01*
X1019271Y129031D01*
X1019239Y129095D01*
X1019202Y129132D01*
X1019172Y129174D01*
X1019114Y129217D01*
X1019063Y129267D01*
X1019000Y129302D01*
X1018975Y129321D01*
X1018952Y129328D01*
X1018916Y129348D01*
X1014505Y131176D01*
X1011131Y134550D01*
X1009304Y138959D01*
X1009304Y143731D01*
X1011131Y148140D01*
X1014505Y151514D01*
X1018914Y153341D01*
X1023686Y153341D01*
X1028095Y151514D01*
X1031469Y148140D01*
X1033296Y143731D01*
X1033296Y138959D01*
X1031469Y134550D01*
X1028095Y131176D01*
X1023684Y129348D01*
X1023623Y129310D01*
X1023557Y129281D01*
X1023519Y129246D01*
X1023475Y129219D01*
X1023429Y129163D01*
X1023376Y129115D01*
X1023351Y129069D01*
X1023318Y129029D01*
X1023292Y128962D01*
X1023258Y128899D01*
X1023248Y128848D01*
X1023230Y128800D01*
X1023227Y128728D01*
X1023214Y128657D01*
X1023221Y128606D01*
X1023219Y128554D01*
X1023239Y128485D01*
X1023250Y128414D01*
X1023273Y128368D01*
X1023288Y128318D01*
X1023329Y128259D01*
X1023361Y128195D01*
X1023398Y128158D01*
X1023428Y128116D01*
X1023486Y128073D01*
X1023537Y128023D01*
X1023600Y127988D01*
X1023625Y127969D01*
X1023648Y127962D01*
X1023684Y127942D01*
X1028095Y126114D01*
X1031469Y122740D01*
X1033296Y118331D01*
X1033296Y113559D01*
X1031469Y109150D01*
X1028095Y105776D01*
X1023684Y103948D01*
X1023623Y103910D01*
X1023557Y103881D01*
X1023519Y103846D01*
X1023475Y103819D01*
X1023429Y103763D01*
X1023376Y103715D01*
X1023351Y103669D01*
X1023318Y103629D01*
X1023292Y103562D01*
X1023258Y103499D01*
X1023248Y103448D01*
X1023230Y103400D01*
X1023227Y103328D01*
X1023214Y103257D01*
X1023221Y103206D01*
X1023219Y103154D01*
X1023239Y103085D01*
X1023250Y103014D01*
X1023273Y102968D01*
X1023288Y102918D01*
X1023329Y102859D01*
X1023361Y102795D01*
X1023398Y102758D01*
X1023428Y102716D01*
X1023486Y102673D01*
X1023537Y102623D01*
X1023600Y102588D01*
X1023625Y102569D01*
X1023648Y102562D01*
X1023684Y102542D01*
X1028095Y100714D01*
X1031469Y97340D01*
X1033296Y92931D01*
X1033296Y88159D01*
X1031469Y83750D01*
X1028095Y80376D01*
X1023684Y78548D01*
X1023623Y78510D01*
X1023557Y78481D01*
X1023519Y78446D01*
X1023475Y78419D01*
X1023429Y78363D01*
X1023376Y78315D01*
X1023351Y78269D01*
X1023318Y78229D01*
X1023292Y78162D01*
X1023258Y78099D01*
X1023248Y78048D01*
X1023230Y78000D01*
X1023227Y77928D01*
X1023214Y77857D01*
X1023221Y77806D01*
X1023219Y77754D01*
X1023239Y77685D01*
X1023250Y77614D01*
X1023273Y77568D01*
X1023288Y77518D01*
X1023329Y77459D01*
X1023361Y77395D01*
X1023398Y77358D01*
X1023428Y77316D01*
X1023486Y77273D01*
X1023537Y77223D01*
X1023600Y77188D01*
X1023625Y77169D01*
X1023648Y77162D01*
X1023684Y77142D01*
X1028095Y75314D01*
X1031469Y71940D01*
X1033296Y67531D01*
X1033296Y62759D01*
X1031469Y58350D01*
X1028095Y54976D01*
X1023686Y53149D01*
X1018914Y53149D01*
G37*
%LPD*%
%LPC*%
G36*
X1220111Y136474D02*
X1220111Y136474D01*
X1214772Y138686D01*
X1210686Y142772D01*
X1208474Y148111D01*
X1208474Y153889D01*
X1210686Y159228D01*
X1214772Y163314D01*
X1220111Y165526D01*
X1225889Y165526D01*
X1231228Y163314D01*
X1235314Y159228D01*
X1237526Y153889D01*
X1237526Y148111D01*
X1235314Y142772D01*
X1231228Y138686D01*
X1225889Y136474D01*
X1220111Y136474D01*
G37*
%LPD*%
%LPC*%
G36*
X1220111Y256474D02*
X1220111Y256474D01*
X1214772Y258686D01*
X1210686Y262772D01*
X1208474Y268111D01*
X1208474Y273889D01*
X1210686Y279228D01*
X1214772Y283314D01*
X1220111Y285526D01*
X1225889Y285526D01*
X1231228Y283314D01*
X1235314Y279228D01*
X1237526Y273889D01*
X1237526Y268111D01*
X1235314Y262772D01*
X1231228Y258686D01*
X1225889Y256474D01*
X1220111Y256474D01*
G37*
%LPD*%
%LPC*%
G36*
X1113772Y557379D02*
X1113772Y557379D01*
X1106379Y564772D01*
X1106379Y575228D01*
X1113772Y582621D01*
X1124228Y582621D01*
X1131621Y575228D01*
X1131621Y564772D01*
X1124228Y557379D01*
X1113772Y557379D01*
G37*
%LPD*%
%LPC*%
G36*
X1086772Y557379D02*
X1086772Y557379D01*
X1079379Y564772D01*
X1079379Y575228D01*
X1086772Y582621D01*
X1097228Y582621D01*
X1104621Y575228D01*
X1104621Y564772D01*
X1097228Y557379D01*
X1086772Y557379D01*
G37*
%LPD*%
%LPC*%
G36*
X1167772Y557379D02*
X1167772Y557379D01*
X1160379Y564772D01*
X1160379Y575228D01*
X1167772Y582621D01*
X1178228Y582621D01*
X1185621Y575228D01*
X1185621Y564772D01*
X1178228Y557379D01*
X1167772Y557379D01*
G37*
%LPD*%
%LPC*%
G36*
X1140772Y557379D02*
X1140772Y557379D01*
X1133379Y564772D01*
X1133379Y575228D01*
X1140772Y582621D01*
X1151228Y582621D01*
X1158621Y575228D01*
X1158621Y564772D01*
X1151228Y557379D01*
X1140772Y557379D01*
G37*
%LPD*%
%LPC*%
G36*
X1220325Y198459D02*
X1220325Y198459D01*
X1215716Y200368D01*
X1212188Y203896D01*
X1210279Y208505D01*
X1210279Y213495D01*
X1212188Y218104D01*
X1215716Y221632D01*
X1220325Y223541D01*
X1225315Y223541D01*
X1229924Y221632D01*
X1233452Y218104D01*
X1235361Y213495D01*
X1235361Y208505D01*
X1233452Y203896D01*
X1229924Y200368D01*
X1225315Y198459D01*
X1220325Y198459D01*
G37*
%LPD*%
%LPC*%
G36*
X1220325Y168459D02*
X1220325Y168459D01*
X1215716Y170368D01*
X1212188Y173896D01*
X1210279Y178505D01*
X1210279Y183495D01*
X1212188Y188104D01*
X1215716Y191632D01*
X1220325Y193541D01*
X1225315Y193541D01*
X1229924Y191632D01*
X1233452Y188104D01*
X1235361Y183495D01*
X1235361Y178505D01*
X1233452Y173896D01*
X1229924Y170368D01*
X1225315Y168459D01*
X1220325Y168459D01*
G37*
%LPD*%
%LPC*%
G36*
X1220325Y228459D02*
X1220325Y228459D01*
X1215716Y230368D01*
X1212188Y233896D01*
X1210279Y238505D01*
X1210279Y243495D01*
X1212188Y248104D01*
X1215716Y251632D01*
X1220325Y253541D01*
X1225315Y253541D01*
X1229924Y251632D01*
X1233452Y248104D01*
X1235361Y243495D01*
X1235361Y238505D01*
X1233452Y233896D01*
X1229924Y230368D01*
X1225315Y228459D01*
X1220325Y228459D01*
G37*
%LPD*%
%LPC*%
G36*
X1222605Y332659D02*
X1222605Y332659D01*
X1218179Y334492D01*
X1214792Y337879D01*
X1212959Y342305D01*
X1212959Y347095D01*
X1214792Y351521D01*
X1218179Y354908D01*
X1222605Y356741D01*
X1227395Y356741D01*
X1231821Y354908D01*
X1235208Y351521D01*
X1237041Y347095D01*
X1237041Y342305D01*
X1235208Y337879D01*
X1231821Y334492D01*
X1227395Y332659D01*
X1222605Y332659D01*
G37*
%LPD*%
%LPC*%
G36*
X1222205Y91759D02*
X1222205Y91759D01*
X1217779Y93592D01*
X1214392Y96979D01*
X1212559Y101405D01*
X1212559Y106195D01*
X1214392Y110621D01*
X1217779Y114008D01*
X1222205Y115841D01*
X1226995Y115841D01*
X1231421Y114008D01*
X1234808Y110621D01*
X1236641Y106195D01*
X1236641Y101405D01*
X1234808Y96979D01*
X1231421Y93592D01*
X1226995Y91759D01*
X1222205Y91759D01*
G37*
%LPD*%
%LPC*%
G36*
X1016769Y225559D02*
X1016769Y225559D01*
X1012360Y227386D01*
X1008986Y230760D01*
X1007159Y235169D01*
X1007159Y239941D01*
X1008986Y244350D01*
X1012360Y247724D01*
X1016769Y249551D01*
X1021541Y249551D01*
X1025950Y247724D01*
X1029324Y244350D01*
X1031151Y239941D01*
X1031151Y235169D01*
X1029324Y230760D01*
X1025950Y227386D01*
X1021541Y225559D01*
X1016769Y225559D01*
G37*
%LPD*%
%LPC*%
G36*
X1016769Y329559D02*
X1016769Y329559D01*
X1012360Y331386D01*
X1008986Y334760D01*
X1007159Y339169D01*
X1007159Y343941D01*
X1008986Y348350D01*
X1012360Y351724D01*
X1016769Y353551D01*
X1021541Y353551D01*
X1025950Y351724D01*
X1029324Y348350D01*
X1031151Y343941D01*
X1031151Y339169D01*
X1029324Y334760D01*
X1025950Y331386D01*
X1021541Y329559D01*
X1016769Y329559D01*
G37*
%LPD*%
%LPC*%
G36*
X1016769Y277559D02*
X1016769Y277559D01*
X1012360Y279386D01*
X1008986Y282760D01*
X1007159Y287169D01*
X1007159Y291941D01*
X1008986Y296350D01*
X1012360Y299724D01*
X1016769Y301551D01*
X1021541Y301551D01*
X1025950Y299724D01*
X1029324Y296350D01*
X1031151Y291941D01*
X1031151Y287169D01*
X1029324Y282760D01*
X1025950Y279386D01*
X1021541Y277559D01*
X1016769Y277559D01*
G37*
%LPD*%
%LPC*%
G36*
X1016769Y355559D02*
X1016769Y355559D01*
X1012360Y357386D01*
X1008986Y360760D01*
X1007159Y365169D01*
X1007159Y369941D01*
X1008986Y374350D01*
X1012360Y377724D01*
X1016769Y379551D01*
X1021541Y379551D01*
X1025950Y377724D01*
X1029324Y374350D01*
X1031151Y369941D01*
X1031151Y365169D01*
X1029324Y360760D01*
X1025950Y357386D01*
X1021541Y355559D01*
X1016769Y355559D01*
G37*
%LPD*%
%LPC*%
G36*
X1016769Y381559D02*
X1016769Y381559D01*
X1012360Y383386D01*
X1008986Y386760D01*
X1007159Y391169D01*
X1007159Y395941D01*
X1008986Y400350D01*
X1012360Y403724D01*
X1016769Y405551D01*
X1021541Y405551D01*
X1025950Y403724D01*
X1029324Y400350D01*
X1031151Y395941D01*
X1031151Y391169D01*
X1029324Y386760D01*
X1025950Y383386D01*
X1021541Y381559D01*
X1016769Y381559D01*
G37*
%LPD*%
%LPC*%
G36*
X1016769Y303559D02*
X1016769Y303559D01*
X1012360Y305386D01*
X1008986Y308760D01*
X1007159Y313169D01*
X1007159Y317941D01*
X1008986Y322350D01*
X1012360Y325724D01*
X1016769Y327551D01*
X1021541Y327551D01*
X1025950Y325724D01*
X1029324Y322350D01*
X1031151Y317941D01*
X1031151Y313169D01*
X1029324Y308760D01*
X1025950Y305386D01*
X1021541Y303559D01*
X1016769Y303559D01*
G37*
%LPD*%
%LPC*%
G36*
X1016769Y407559D02*
X1016769Y407559D01*
X1012360Y409386D01*
X1008986Y412760D01*
X1007159Y417169D01*
X1007159Y421941D01*
X1008986Y426350D01*
X1012360Y429724D01*
X1016769Y431551D01*
X1021541Y431551D01*
X1025950Y429724D01*
X1029324Y426350D01*
X1031151Y421941D01*
X1031151Y417169D01*
X1029324Y412760D01*
X1025950Y409386D01*
X1021541Y407559D01*
X1016769Y407559D01*
G37*
%LPD*%
%LPC*%
G36*
X315193Y259195D02*
X315193Y259195D01*
X308395Y265993D01*
X308395Y275607D01*
X315193Y282405D01*
X324807Y282405D01*
X331605Y275607D01*
X331605Y265993D01*
X324807Y259195D01*
X315193Y259195D01*
G37*
%LPD*%
%LPC*%
G36*
X275193Y259195D02*
X275193Y259195D01*
X268395Y265993D01*
X268395Y275607D01*
X275193Y282405D01*
X284807Y282405D01*
X291605Y275607D01*
X291605Y265993D01*
X284807Y259195D01*
X275193Y259195D01*
G37*
%LPD*%
%LPC*%
G36*
X315193Y157595D02*
X315193Y157595D01*
X308395Y164393D01*
X308395Y174007D01*
X315193Y180805D01*
X324807Y180805D01*
X331605Y174007D01*
X331605Y164393D01*
X324807Y157595D01*
X315193Y157595D01*
G37*
%LPD*%
%LPC*%
G36*
X275193Y157595D02*
X275193Y157595D01*
X268395Y164393D01*
X268395Y174007D01*
X275193Y180805D01*
X284807Y180805D01*
X291605Y174007D01*
X291605Y164393D01*
X284807Y157595D01*
X275193Y157595D01*
G37*
%LPD*%
%LPC*%
G36*
X410043Y238033D02*
X410043Y238033D01*
X410043Y248713D01*
X411398Y248498D01*
X413238Y247900D01*
X414962Y247022D01*
X416527Y245885D01*
X417895Y244517D01*
X419032Y242952D01*
X419910Y241228D01*
X420508Y239388D01*
X420723Y238033D01*
X410043Y238033D01*
G37*
%LPD*%
%LPC*%
G36*
X396317Y238033D02*
X396317Y238033D01*
X396532Y239388D01*
X397130Y241228D01*
X398008Y242952D01*
X399145Y244517D01*
X400513Y245885D01*
X402078Y247022D01*
X403802Y247900D01*
X405642Y248498D01*
X406997Y248713D01*
X406997Y238033D01*
X396317Y238033D01*
G37*
%LPD*%
%LPC*%
G36*
X127373Y453423D02*
X127373Y453423D01*
X127373Y461981D01*
X133724Y461981D01*
X134371Y461808D01*
X134950Y461473D01*
X135423Y461000D01*
X135758Y460421D01*
X135931Y459774D01*
X135931Y453423D01*
X127373Y453423D01*
G37*
%LPD*%
%LPC*%
G36*
X115769Y453423D02*
X115769Y453423D01*
X115769Y459774D01*
X115942Y460421D01*
X116277Y461000D01*
X116750Y461473D01*
X117329Y461808D01*
X117976Y461981D01*
X124327Y461981D01*
X124327Y453423D01*
X115769Y453423D01*
G37*
%LPD*%
%LPC*%
G36*
X127373Y441819D02*
X127373Y441819D01*
X127373Y450377D01*
X135931Y450377D01*
X135931Y444026D01*
X135758Y443379D01*
X135423Y442800D01*
X134950Y442327D01*
X134371Y441992D01*
X133724Y441819D01*
X127373Y441819D01*
G37*
%LPD*%
%LPC*%
G36*
X117976Y441819D02*
X117976Y441819D01*
X117329Y441992D01*
X116750Y442327D01*
X116277Y442800D01*
X115942Y443379D01*
X115769Y444026D01*
X115769Y450377D01*
X124327Y450377D01*
X124327Y441819D01*
X117976Y441819D01*
G37*
%LPD*%
%LPC*%
G36*
X1201523Y571523D02*
X1201523Y571523D01*
X1201523Y580161D01*
X1204209Y580161D01*
X1210161Y574209D01*
X1210161Y571523D01*
X1201523Y571523D01*
G37*
%LPD*%
%LPC*%
G36*
X1189839Y571523D02*
X1189839Y571523D01*
X1189839Y574209D01*
X1195791Y580161D01*
X1198477Y580161D01*
X1198477Y571523D01*
X1189839Y571523D01*
G37*
%LPD*%
%LPC*%
G36*
X1201523Y559839D02*
X1201523Y559839D01*
X1201523Y568477D01*
X1210161Y568477D01*
X1210161Y565791D01*
X1204209Y559839D01*
X1201523Y559839D01*
G37*
%LPD*%
%LPC*%
G36*
X1195791Y559839D02*
X1195791Y559839D01*
X1189839Y565791D01*
X1189839Y568477D01*
X1198477Y568477D01*
X1198477Y559839D01*
X1195791Y559839D01*
G37*
%LPD*%
%LPC*%
G36*
X487523Y287903D02*
X487523Y287903D01*
X487523Y296345D01*
X488361Y296213D01*
X489870Y295722D01*
X491283Y295002D01*
X492567Y294069D01*
X493689Y292947D01*
X494622Y291663D01*
X495342Y290250D01*
X495833Y288741D01*
X495965Y287903D01*
X487523Y287903D01*
G37*
%LPD*%
%LPC*%
G36*
X487523Y60573D02*
X487523Y60573D01*
X487523Y69015D01*
X488361Y68883D01*
X489870Y68392D01*
X491283Y67672D01*
X492567Y66739D01*
X493689Y65617D01*
X494622Y64333D01*
X495342Y62920D01*
X495833Y61411D01*
X495965Y60573D01*
X487523Y60573D01*
G37*
%LPD*%
%LPC*%
G36*
X487523Y284857D02*
X487523Y284857D01*
X495965Y284857D01*
X495833Y284019D01*
X495342Y282510D01*
X494622Y281097D01*
X493689Y279813D01*
X492567Y278691D01*
X491283Y277758D01*
X489870Y277038D01*
X488361Y276547D01*
X487523Y276415D01*
X487523Y284857D01*
G37*
%LPD*%
%LPC*%
G36*
X476035Y287903D02*
X476035Y287903D01*
X476167Y288741D01*
X476658Y290250D01*
X477378Y291663D01*
X478311Y292947D01*
X479433Y294069D01*
X480717Y295002D01*
X482130Y295722D01*
X483639Y296213D01*
X484477Y296345D01*
X484477Y287903D01*
X476035Y287903D01*
G37*
%LPD*%
%LPC*%
G36*
X476035Y60573D02*
X476035Y60573D01*
X476167Y61411D01*
X476658Y62920D01*
X477378Y64333D01*
X478311Y65617D01*
X479433Y66739D01*
X480717Y67672D01*
X482130Y68392D01*
X483639Y68883D01*
X484477Y69015D01*
X484477Y60573D01*
X476035Y60573D01*
G37*
%LPD*%
%LPC*%
G36*
X487523Y57527D02*
X487523Y57527D01*
X495965Y57527D01*
X495833Y56689D01*
X495342Y55180D01*
X494622Y53767D01*
X493689Y52483D01*
X492567Y51361D01*
X491283Y50428D01*
X489870Y49708D01*
X488361Y49217D01*
X487523Y49085D01*
X487523Y57527D01*
G37*
%LPD*%
%LPC*%
G36*
X483639Y49217D02*
X483639Y49217D01*
X482130Y49708D01*
X480717Y50428D01*
X479433Y51361D01*
X478311Y52483D01*
X477378Y53767D01*
X476658Y55180D01*
X476167Y56689D01*
X476035Y57527D01*
X484477Y57527D01*
X484477Y49085D01*
X483639Y49217D01*
G37*
%LPD*%
%LPC*%
G36*
X483639Y276547D02*
X483639Y276547D01*
X482130Y277038D01*
X480717Y277758D01*
X479433Y278691D01*
X478311Y279813D01*
X477378Y281097D01*
X476658Y282510D01*
X476167Y284019D01*
X476035Y284857D01*
X484477Y284857D01*
X484477Y276415D01*
X483639Y276547D01*
G37*
%LPD*%
%LPC*%
G36*
X1226523Y320823D02*
X1226523Y320823D01*
X1226523Y328759D01*
X1227243Y328645D01*
X1228678Y328179D01*
X1230021Y327494D01*
X1231242Y326608D01*
X1232308Y325542D01*
X1233194Y324321D01*
X1233879Y322978D01*
X1234345Y321543D01*
X1234459Y320823D01*
X1226523Y320823D01*
G37*
%LPD*%
%LPC*%
G36*
X1226123Y79923D02*
X1226123Y79923D01*
X1226123Y87859D01*
X1226843Y87745D01*
X1228278Y87279D01*
X1229621Y86594D01*
X1230842Y85708D01*
X1231908Y84642D01*
X1232794Y83421D01*
X1233479Y82078D01*
X1233945Y80643D01*
X1234059Y79923D01*
X1226123Y79923D01*
G37*
%LPD*%
%LPC*%
G36*
X1215541Y320823D02*
X1215541Y320823D01*
X1215655Y321543D01*
X1216121Y322978D01*
X1216806Y324321D01*
X1217692Y325542D01*
X1218758Y326608D01*
X1219979Y327494D01*
X1221322Y328179D01*
X1222757Y328645D01*
X1223477Y328759D01*
X1223477Y320823D01*
X1215541Y320823D01*
G37*
%LPD*%
%LPC*%
G36*
X1215141Y79923D02*
X1215141Y79923D01*
X1215255Y80643D01*
X1215721Y82078D01*
X1216406Y83421D01*
X1217292Y84642D01*
X1218358Y85708D01*
X1219579Y86594D01*
X1220922Y87279D01*
X1222357Y87745D01*
X1223077Y87859D01*
X1223077Y79923D01*
X1215141Y79923D01*
G37*
%LPD*%
%LPC*%
G36*
X1226123Y76877D02*
X1226123Y76877D01*
X1234059Y76877D01*
X1233945Y76157D01*
X1233479Y74722D01*
X1232794Y73379D01*
X1231908Y72158D01*
X1230842Y71092D01*
X1229621Y70206D01*
X1228278Y69521D01*
X1226843Y69055D01*
X1226123Y68941D01*
X1226123Y76877D01*
G37*
%LPD*%
%LPC*%
G36*
X1226523Y317777D02*
X1226523Y317777D01*
X1234459Y317777D01*
X1234345Y317057D01*
X1233879Y315622D01*
X1233194Y314279D01*
X1232308Y313058D01*
X1231242Y311992D01*
X1230021Y311106D01*
X1228678Y310421D01*
X1227243Y309955D01*
X1226523Y309841D01*
X1226523Y317777D01*
G37*
%LPD*%
%LPC*%
G36*
X1222357Y69055D02*
X1222357Y69055D01*
X1220922Y69521D01*
X1219579Y70206D01*
X1218358Y71092D01*
X1217292Y72158D01*
X1216406Y73379D01*
X1215721Y74722D01*
X1215255Y76157D01*
X1215141Y76877D01*
X1223077Y76877D01*
X1223077Y68941D01*
X1222357Y69055D01*
G37*
%LPD*%
%LPC*%
G36*
X1222757Y309955D02*
X1222757Y309955D01*
X1221322Y310421D01*
X1219979Y311106D01*
X1218758Y311992D01*
X1217692Y313058D01*
X1216806Y314279D01*
X1216121Y315622D01*
X1215655Y317057D01*
X1215541Y317777D01*
X1223477Y317777D01*
X1223477Y309841D01*
X1222757Y309955D01*
G37*
%LPD*%
%LPC*%
G36*
X1020678Y265078D02*
X1020678Y265078D01*
X1020678Y272975D01*
X1021936Y272724D01*
X1023672Y272005D01*
X1025234Y270962D01*
X1026562Y269634D01*
X1027605Y268072D01*
X1028324Y266336D01*
X1028575Y265078D01*
X1020678Y265078D01*
G37*
%LPD*%
%LPC*%
G36*
X1009735Y265078D02*
X1009735Y265078D01*
X1009986Y266336D01*
X1010705Y268072D01*
X1011748Y269634D01*
X1013076Y270962D01*
X1014638Y272005D01*
X1016374Y272724D01*
X1017632Y272975D01*
X1017632Y265078D01*
X1009735Y265078D01*
G37*
%LPD*%
%LPC*%
G36*
X1020678Y262032D02*
X1020678Y262032D01*
X1028575Y262032D01*
X1028324Y260774D01*
X1027605Y259038D01*
X1026562Y257476D01*
X1025234Y256148D01*
X1023672Y255105D01*
X1021936Y254386D01*
X1020678Y254135D01*
X1020678Y262032D01*
G37*
%LPD*%
%LPC*%
G36*
X1016374Y254386D02*
X1016374Y254386D01*
X1014638Y255105D01*
X1013076Y256148D01*
X1011748Y257476D01*
X1010705Y259038D01*
X1009986Y260774D01*
X1009735Y262032D01*
X1017632Y262032D01*
X1017632Y254135D01*
X1016374Y254386D01*
G37*
%LPD*%
%LPC*%
G36*
X1224999Y319299D02*
X1224999Y319299D01*
X1224999Y319301D01*
X1225001Y319301D01*
X1225001Y319299D01*
X1224999Y319299D01*
G37*
%LPD*%
%LPC*%
G36*
X1019154Y263554D02*
X1019154Y263554D01*
X1019154Y263556D01*
X1019156Y263556D01*
X1019156Y263554D01*
X1019154Y263554D01*
G37*
%LPD*%
%LPC*%
G36*
X485999Y286379D02*
X485999Y286379D01*
X485999Y286381D01*
X486001Y286381D01*
X486001Y286379D01*
X485999Y286379D01*
G37*
%LPD*%
%LPC*%
G36*
X125849Y451899D02*
X125849Y451899D01*
X125849Y451901D01*
X125851Y451901D01*
X125851Y451899D01*
X125849Y451899D01*
G37*
%LPD*%
%LPC*%
G36*
X1199999Y569999D02*
X1199999Y569999D01*
X1199999Y570001D01*
X1200001Y570001D01*
X1200001Y569999D01*
X1199999Y569999D01*
G37*
%LPD*%
%LPC*%
G36*
X485999Y59049D02*
X485999Y59049D01*
X485999Y59051D01*
X486001Y59051D01*
X486001Y59049D01*
X485999Y59049D01*
G37*
%LPD*%
%LPC*%
G36*
X1224599Y78399D02*
X1224599Y78399D01*
X1224599Y78401D01*
X1224601Y78401D01*
X1224601Y78399D01*
X1224599Y78399D01*
G37*
%LPD*%
D10*
X1021300Y192145D03*
X1021300Y166745D03*
X1021300Y141345D03*
X1021300Y115945D03*
X1021300Y90545D03*
X1021300Y65145D03*
D11*
X408520Y236510D03*
X408520Y210310D03*
X408520Y184110D03*
X408520Y157910D03*
X408520Y131710D03*
X408520Y105510D03*
D10*
X1019155Y237555D03*
X1019155Y263555D03*
X1019155Y289555D03*
X1019155Y315555D03*
X1019155Y341555D03*
X1019155Y367555D03*
X1019155Y393555D03*
X1019155Y419555D03*
D12*
X1224600Y103800D03*
X1224600Y78400D03*
D13*
X1222820Y181000D03*
X1222820Y211000D03*
X1222820Y241000D03*
D14*
X1223000Y151000D03*
X1223000Y271000D03*
D13*
X934800Y59050D03*
X908400Y59050D03*
X882000Y59050D03*
X855600Y59050D03*
X829200Y59050D03*
X802800Y59050D03*
X776400Y59050D03*
X750000Y59050D03*
X723600Y59050D03*
X697200Y59050D03*
X670800Y59050D03*
X644400Y59050D03*
X618000Y59050D03*
X591600Y59050D03*
X565200Y59050D03*
X538800Y59050D03*
X512400Y59050D03*
X486000Y59050D03*
X934800Y286380D03*
X908400Y286380D03*
X882000Y286380D03*
X855600Y286380D03*
X829200Y286380D03*
X802800Y286380D03*
X776400Y286380D03*
X750000Y286380D03*
X723600Y286380D03*
X697200Y286380D03*
X670800Y286380D03*
X644400Y286380D03*
X618000Y286380D03*
X591600Y286380D03*
X565200Y286380D03*
X538800Y286380D03*
X512400Y286380D03*
X486000Y286380D03*
D15*
X1146000Y570000D03*
D16*
X125850Y451900D03*
D13*
X151250Y528100D03*
X151250Y502700D03*
X151250Y477300D03*
X151250Y451900D03*
X125850Y477300D03*
X125850Y502700D03*
X125850Y528100D03*
D15*
X1119000Y570000D03*
X1092000Y570000D03*
X1200000Y570000D03*
X1173000Y570000D03*
D12*
X1225000Y344700D03*
X1225000Y319300D03*
D17*
X320000Y169200D03*
X320000Y270800D03*
X280000Y169200D03*
X280000Y270800D03*
D18*
X348840Y329840D03*
D19*
X276861Y329840D02*
X276701Y329680D01*
X231489Y330000D02*
X220000Y330000D01*
X276861Y329840D02*
X348840Y329840D01*
X276701Y329680D02*
X231809Y329680D01*
X231489Y330000D01*
D18*
X220000Y330000D03*
X340000Y350000D03*
D19*
X268511Y350000D01*
X268351Y349840D01*
X251649Y349840D01*
X251489Y350000D01*
X240000Y350000D01*
X230000Y360000D01*
X230000Y492000D01*
X219000Y503000D01*
X205000Y503000D01*
D18*
X205000Y503000D03*
X180000Y530000D03*
D19*
X180000Y250000D01*
D18*
X180000Y250000D03*
D19*
X130000Y250000D01*
X120000Y260000D01*
X120000Y400000D01*
D18*
X120000Y400000D03*
X460000Y180000D03*
D19*
X450000Y240000D02*
X460000Y250000D01*
X450000Y240000D02*
X450000Y190000D01*
X460000Y180000D01*
D18*
X460000Y250000D03*
X331649Y370160D03*
D19*
X260160Y370160D01*
X260000Y370000D01*
D18*
X260000Y370000D03*
X150000Y309840D03*
D19*
X150000Y400000D01*
D18*
X150000Y400000D03*
X820000Y30000D03*
D19*
X900000Y30000D01*
D18*
X900000Y30000D03*
X90000Y309840D03*
D19*
X90000Y400000D01*
D18*
X90000Y400000D03*
M02*
