M48
;GenerationSoftware,Autodesk,EAGLE,9.6.2*%
;CreationDate,2023-05-05T21:29:34Z*%
FMAT,2
ICI,OFF
METRIC,TZ,000.000
T9C0.350
T8C0.813
T7C0.891
T6C0.900
T5C1.000
T4C1.016
T3C1.270
T2C1.300
T1C2.700
%
G90
M71
T1
X3000Y-1000
X3000Y59000
X126000Y-1000
X126000Y59000
T2
X40852Y23651
X40852Y21031
X40852Y18411
X40852Y15791
X40852Y13171
X40852Y10551
T3
X122300Y27100
X122300Y15100
T4
X111900Y57000
X114600Y57000
X117300Y57000
X120000Y57000
X109200Y57000
T5
X48600Y5905
X93480Y28638
X90840Y28638
X88200Y28638
X85560Y28638
X82920Y28638
X80280Y28638
X77640Y28638
X75000Y28638
X72360Y28638
X69720Y28638
X67080Y28638
X53880Y5905
X64440Y28638
X61800Y28638
X59160Y28638
X56520Y28638
X53880Y28638
X51240Y28638
X48600Y28638
X12585Y45190
X15125Y52810
X15125Y50270
X15125Y47730
X15125Y45190
X12585Y50270
X12585Y52810
X85560Y5905
X122282Y18100
X122282Y21100
X122282Y24100
X93480Y5905
X90840Y5905
X88200Y5905
X12585Y47730
X82920Y5905
X80280Y5905
X77640Y5905
X75000Y5905
X72360Y5905
X69720Y5905
X67080Y5905
X64440Y5905
X61800Y5905
X59160Y5905
X56520Y5905
X51240Y5905
T6
X122500Y31930
X122500Y34470
X122460Y10380
X122460Y7840
T7
X102130Y11594
X102130Y14134
X101915Y34156
X101915Y36756
X101915Y41956
X101915Y39356
X101915Y31555
X101915Y28955
X101915Y26355
X101915Y23755
X102130Y6514
X102130Y9055
X102130Y19215
X102130Y16675
T8
X28000Y16920
X28000Y27080
X32000Y16920
X32000Y27080
T9
X22000Y33000
X82000Y3000
X15000Y30984
X26000Y37000
X34884Y32984
X33165Y37016
X46000Y25000
X46000Y18000
X12000Y40000
X18000Y25000
X18000Y53000
X20500Y50300
X34000Y35000
X9000Y40000
X9000Y30984
X90000Y3000
X15000Y40000
M30